<?xml version="1.0" encoding="UTF-8"?>
<svg id="Layer_2" data-name="Layer 2" xmlns="http://www.w3.org/2000/svg" viewBox="0 0 327.26 330.17">
  <defs>
    <style>
      .cls-1 {
        fill: #feeeaf;
      }

      .cls-2 {
        fill: #feea99;
      }

      .cls-3 {
        fill: #fff4c7;
      }

      .cls-4 {
        fill: #fff1b8;
      }

      .cls-5 {
        fill: #fff0b5;
      }

      .cls-6 {
        fill: #fff7d4;
      }

      .cls-7 {
        fill: #fffdf5;
      }

      .cls-8 {
        fill: #feeb9c;
      }

      .cls-9 {
        fill: #fff0b3;
      }

      .cls-10 {
        fill: #fffae8;
      }

      .cls-11 {
        fill: #fff1bb;
      }

      .cls-12 {
        fill: #fff6d6;
      }

      .cls-13 {
        fill: #fffffc;
      }

      .cls-14 {
        fill: #feec9f;
      }

      .cls-15 {
        fill: #fffdf4;
      }

      .cls-16 {
        fill: #feeb9a;
      }

      .cls-17 {
        fill: #fffcf0;
      }

      .cls-18 {
        fill: #feeb9d;
      }

      .cls-19 {
        fill: #ffefb1;
      }

      .cls-20 {
        fill: #fff7d9;
      }

      .cls-21 {
        fill: #fffef9;
      }

      .cls-22 {
        fill: #fff2c1;
      }

      .cls-23 {
        fill: #feeb9b;
      }

      .cls-24 {
        fill: #feefb2;
      }

      .cls-25 {
        fill: #feeda3;
      }

      .cls-26 {
        fill: #fff8df;
      }

      .cls-27 {
        fill: #feea9a;
      }

      .cls-28 {
        fill: #fffffe;
      }

      .cls-29 {
        fill: #fff6d0;
      }

      .cls-30 {
        fill: #fff4c9;
      }

      .cls-31 {
        fill: #ffeeb0;
      }

      .cls-32 {
        fill: #fffae4;
      }

      .cls-33 {
        fill: #fffdf6;
      }

      .cls-34 {
        fill: #fffcef;
      }

      .cls-35 {
        fill: #feeca1;
      }

      .cls-36 {
        fill: #fff2bf;
      }

      .cls-37 {
        fill: #fff6d2;
      }

      .cls-38 {
        fill: #fff9e3;
      }

      .cls-39 {
        fill: #fffefa;
      }

      .cls-40 {
        fill: #fff4cc;
      }

      .cls-41 {
        fill: #fffdf3;
      }

      .cls-42 {
        fill: #fff0b6;
      }

      .cls-43 {
        fill: #fff2be;
      }

      .cls-44 {
        fill: #feeb9e;
      }

      .cls-45 {
        fill: #fffbe9;
      }
    </style>
  </defs>
  <g id="Layer_1-2" data-name="Layer 1">
    <g>
      <path class="cls-2" d="M20.68,212.68v5.59c-1.43-2.14-1.89-4.63-3.28-6.69-.3-.34-.84-.19-1.11-.58-1.47-7.17-2.88-14.35-4.43-21.49-.74-3.4-1-7.25-2.86-9.95-1.91-2.78-1.57-5.5-2.05-8.28-.04-.25,.09-.53,.14-.8,.2-.04,.42-.15,.54-.09,4.03,2.08,4.01,2.09,4.28-2.6,.08-1.46,.46-2.91,.47-4.36,.01-1.35-.14-2.62-1.93-3.14-1.41-.41-1-1.95-1.28-3.18,1.18,.35,1.58,1.26,2.21,1.89,.64,.63,.88,1.63,1.96,2.07,1.28-1.97,.2-3.87-.27-5.68-1.31-5.06-3.75-9.76-4.74-14.93-.62-3.25-1.25-6.49-.34-9.79,.14-.52,.06-1.17,.78-1.26,.59-.08,1.08,.28,1.41,.73,.85,1.14,1.1,2.48,1.17,3.88,.16,3.3,.38,6.59,.55,9.89q.2,3.8,5.4,3.57c-.14,2.09-1.82,4.09-.54,6.31,2.08-2.21,3.36-9.31,2.36-12.05-.53-1.44-1.11-1.18-1.94-.4-1.14,1.08-1.17,2.62-1.66,4.48-1.74-5.74-.43-10.87,.56-16,.79-4.13,1.96-8.2,1.89-12.46-.03-1.96-.5-3.76-1.8-5.72-1.37,2.14-2.58,4.02-3.79,5.91,.61-6.16,6.29-9.2,8.67-14.54,1.4,2.21,2.75,4.32,4.09,6.43,1.27,.18,.8-.55,.6-1.14,.02-7.31,2.11-14.23,3.97-21.2,.49-1.85,.9-3.72,1.35-5.59,.37-1.51,.36-2.77-2.54-2.49,4.02-2.87,6.8-5.86,9.36-9.05,.45-.57,1.62-1.1,.61-1.98-.84-.74-1.21,.41-1.71,.8-.79,.62-1.51,1.32-2.26,1.99-.52,.14-.77,0-.57-.57,1.77-2.21,3.55-4.41,5.29-6.64,.65-.84,1.83-1.78,1.07-2.84-.73-1.01-2.02-.31-3.06,0-.16,.04-.35-.04-.96-.12,5.88-8.42,14.72-12.86,22.52-18.54,.58-.2,.71,.05,.56,.56-.32,.69-1.1,1.85,.52,1.47,2.16-.5,4.07-2.41,6.51-.9,.06-.35,.13-.7,.19-1.05,.46-1.16,.14-2.52,1.04-3.68-.62,.5-.51,1.66-1.62,1.36-.74-2.06-1.23-4.36-4.52-4.34,4.19-5.14,9.29-8.24,14.73-10.89,11.21-5.44,23.43-7.71,35.27-11.49,.22,1.22-1.17,1.7-.97,2.94,2.77-1.05,5.56-1.73,8.01,1.24-1.08,.46-1.95,.84-3.45,1.49,4.86,.31,8.98,.54,12.3-2.69h-3.94v.03c0-.37,.13-.84-.05-1.08-2.2-3.03-1.27-5.08,1.91-6.58,.53-.25,.92-.89,1.26-1.42,.52-.8,.19-2.18,1.44-2.44,1.57-.32,3.13,.2,4.56,.72,1.47,.53,1.24,1.7,.25,2.57-.59,.52-1.45,.74-2.19,1.1-.64,1.06-1.84,.7-2.32,1.11,.69-.13,1.76-.44,2.87-.56,6.04-1.03,12.18-1.2,18.23-1.92,2.76-.33,5.23-2.76,8.06-.06,.19,.18,1.75,.09,2.18-.69,.53-.95-.58-1.48-1.39-2.47,2.7,.61,5.28,.2,6.25,3.18,.31,.95,1.28,.81,2.14,.69,2.7-.41,5.41-.77,8.15-1.15,.25-.89-.68-.79-1.34-1.24,2.6-.7,5.17-.71,7.36-2.01,1.17-1.17,2.71-.82,4.12-.99,.47,0,.94,0,1.41-.04,3.67-.32,7.05,.87,10.44,1.98,3.16,1.04,6.33,1.85,9.68,1.02,.55-.14,1.23-.28,1.48,.31,1.26,2.95,4.41,4.41,5.72,7.35,.97-.3,1.16-1.33,1.79-1.94,1.76-1.7,4.51-2.29,6.27-.85,3.55,2.92,7.88,4.72,11.18,7.94,1.82,1.77,4.56,3.36,1.9,6.53-.54,.65,.24,.97,.68,1.18,1.08,.5,2.2,.9,3.3,1.34,.33,.04,.46,.36,.7,.53,1.94,.49,3.81,1.39,5.89,1.13,3.68-.45,5.25-2.7,4.96-7.21,2.18,.87,2.72,2.34,1.94,4.34-.26,.67-.78,1.24-1.2,1.84-.93,1.33-3.16,2.22-2.86,3.69,.21,1.04,2.41,1.68,3.73,2.48,11.53,6.99,22.11,15.16,31.48,24.89,5.68,5.9,10.3,12.68,15.76,18.78,1.55,1.73,1.96,4.41,3.28,6.52,6.42,10.27,10.68,21.49,14.18,33.03,.3,.97,.38,2.16,1.32,2.63,4.91,2.44,3.64,6.95,3.36,10.8-.27,3.68-.28,7.34-.14,11,.09,2.48,.45,2.6,3.36,2.15-1.05,4.19,.51,7.92,1.84,11.69,.3,.86,.6,1.74,.75,2.64,.14,.79,.3,1.7-.51,2.29-.72,.53-1.43,.02-2.08-.23-1.09-.42-.73-1.35-.59-2.13,.17-.98,.45-1.93,.7-2.95-2.99,.41-3.43,.97-2.76,3.92,1.06,4.65,2.19,9.27,3.35,13.9,.27,1.08,.32,1.86-.76,2.59-1.12,.76-1.12,2.26-1.7,3.4-.12,.25-.17,.64-.36,.73-3.46,1.66-1.23,3.67-.43,5.66,.33,.81,1.63,1.76,.5,2.59-1.1,.8-2.02-.3-2.8-1.06-.26-.25-.42-.61-.93-1.38-.95,3.69-2.17,6.59-.86,9.99,.76,1.99,.76,4.32,.87,6.51,.13,2.65-.83,3.35-3.06,1.92-2.57-1.66-2.65,.07-2.9,1.71-.15,.99-.04,2.02-.04,3.03,0,1.64,.48,3.49-2.19,3.6-.87,.04-1.16,1.11-1.5,1.85-5.5,12.03-12.6,23.05-21.27,33.02-6.62,7.6-13.13,15.28-19.24,23.3-2.75,3.6-4.21,7.97-7.16,11.42-.84,.98-1.39,2.56-3.18,1.15-.6-.47-1.18,.21-1.64,.65-1.05,1.01-2.09,2.03-3.76,3.65,6.34-.62,11.81-1.4,17.24-3.46-.56,2.76-3.56,4.25-2.6,7.18-.72,.87-1.98,1.24-2.29,2.49-.48,.78-1.51,.84-2.03,1.56-1.95,2.61-4.87,3.89-7.61,5.31-3.07,1.59-5.87,3.42-7.99,6.17-.63,.81-1.16,1.28-2.28,.85-.74-.28-1.62-.22-2.44-.26-1.97-.09-3.95-.15-5.92-.22,.38,2.05,.11,3.93-1.07,5.74-.57,.87,.38,.94,1,1.08,2.69,.62,5.43,.59,8.99,.61-2.59,1.44-1.89,4.45-4.22,5.45-.26-.3-.45-.42-.46-.56q-.28-3.57-3.64-2.76c-.98,.24-2.01,.33-2.94,.69-1.6,.62-2.1-.05-1.77-1.47,.36-1.53-.5-1.52-1.47-1.33-4.66,.93-9.27,2.27-14.09,2.16-.91-.02-1.15,1.24-2.12,1.07-1.42-1.34-1.59-3.11-1.79-4.82,.37-.33-.28-.35,.07-.23-.76,1.38-2.24,1.32-3.48,1.76-.49,.11-.99,.08-1.48,.01-2.05,.47-3.66,1.78-4.97,3.22-2.76,3.05-2.03,6.37,1.62,8.66-3.88,.69-4.79-.06-4.96-4.1-.19-4.67-.2-4.71-4.71-3.53-14.85,3.92-29.96,5.22-45.27,4.51-.64-.03-1.27-.16-1.91-.23-.94-.09-2.25-.8-2.63,.5-.36,1.22-2.2,2.11-.89,3.83,1.26,1.65,.41,2.04-1.35,2.09-7.26,.21-13.93-2.07-20.48-4.78-9.62-3.98-18.26-9.84-27.49-14.56-.76-.39-1.27-.54-.11-1.35,.56-.4-.75-.9-1.28-1.18-7.47-3.97-14.62-8.45-21.38-13.52-6.53-4.91-12.65-10.43-18.01-16.46-3.43-3.86-7.33-6.92-11.08-10.29-2.07-1.86-3.1-4.39-3.43-7.04-.61-4.87-3.84-8.36-5.9-12.71-.75,1.17,.38,1.78,.03,2.84-2.14-.57-3.29-1.87-3.65-4.08-.33-2-1.2-3.83-2.75-5.73,2.58,.22,3.15-.55,1.98-2.55-.77-1.33-1.19-2.85-1.8-4.35-1.17,.15-1.27,2.03-2.27,1.62-1.04-.43-.89-1.84-1.2-2.87-1.42-4.72-.6-9.68-1.56-14.45-.56-2.78-1.16-5.55-1.75-8.33-1.47,.66-.68,1.77-.55,2.75Z"/>
      <path class="cls-2" d="M148.83,326.08c14.19,.53,28.19-2.96,43.1-2.45-3.44,1.46-6.49,1.02-9.38,1.58-1.31,.26-3.1-.3-3.73,1.11-.76,1.69,1.64,1.84,2.26,3.31-11.18,2.15-21.49-2.59-32.25-3.54Z"/>
      <path class="cls-16" d="M285.12,262.34c.09,2.11,.05,4.23,.32,6.32,.18,1.39-.28,1.89-1.55,1.91-.83,.02-1.65,0-2.48,.04-.96,.04-2.16-.29-2.24,1.28-.08,1.56,.76,2.14,2.21,2.09,.33-.01,.66,0,1.28,0-2.34,2.31-4.51,3.89-7.56,1.82,1.06-.31,2.1-.62,3.42-1.02-2.56-3.07-.94-5.24,1.29-7.37,1.71-1.63,3.65-3.13,4.35-5.57,.59-.37,.71,.17,.94,.49Z"/>
      <path class="cls-16" d="M299.69,244.33c-1.25,1.65-1.87,3.43-3.68,4.47,.69-1.86,1.3-3.76,2.08-5.59,.75-1.77,2.23-.73,3.34-.57,1.43,.2,2.32,1.17,1.98,2.75-.46,2.17-.81,4.13,.56,6.32,.77,1.23-1.43,1.72-2.27,2.52-.7,.67-1.75,1.67-2.89,.95-1.37-.87-.53-2.15-.18-3.23,.46-1.39,1.03-2.75,1.59-4.11,.48-1.19,.55-2.31-.53-3.53Z"/>
      <path class="cls-8" d="M.79,108.35c-.06,1.81,1.16,2.8,2.6,3.08,1.46,.28,1.66-1.41,2.29-2.33,.36-.53,.55-1.16,.9-1.69,.47-.72,.59-1.93,1.78-1.79,.89,.11,1.23,1.05,1.61,1.75,.57,1.03-.16,1.75-.83,2.37-2.4,2.22-5.44,3.7-7.67,6.99,.09-3.24-2.36-5.48-1.1-8.36,.14-.3,.28-.3,.43,0Z"/>
      <path class="cls-16" d="M304.27,227.26c3.78,3.26,4.18,4.64,2.43,7.52-.61,1-1.47,1.63-2.55,1.98-.7,.23-1.55,.47-2.08-.11-.52-.56,.13-1.2,.38-1.75,1.07-2.38,1.32-4.98,1.83-7.64Z"/>
      <path class="cls-23" d="M290.95,264.25c.62,.33,1.16,.65,1.72,.92,1.18,.57,2.6,1.25,1.73,2.78-.8,1.4-1.24,3.71-3.87,2.88-.59-.19-1.25-.18-1.88-.24-1.06-.09-1.22-.51-.65-1.41,1.01-1.61,1.96-3.26,2.95-4.94Z"/>
      <path class="cls-27" d="M148.07,0c2.17-.14,2.57,1.8,3.56,3.01,.32,.39,.21,.82-.44,.96-1.78,.4-3.54,1.06-5.34,1.22-1.69,.15-.84-1.64-1.32-2.48-.54-.94-.1-2.03,1.1-2.38,.78-.23,1.62-.23,2.44-.33Z"/>
      <path class="cls-33" d="M209.59,314.23c1.3-.42,2.6-.85,4.06-1.32,.49,1.71,.99,3.43,1.48,5.15-.39,0-.79,0-1.18,.01-1.15-.54-2.54,.02-3.63-.84-1.04-.82-2.1-1.61-.72-3Z"/>
      <path class="cls-18" d="M28.57,79.84c-2.09,2.98-2.06,6.56-3.07,9.85-2.53-4.37-2.38-5.55,3.07-9.85Z"/>
      <path class="cls-44" d="M223.28,322.94c1.68-1.51,3.36-3.03,5.06-4.54,.32-.28,.66-.82,1.13-.44,.31,.25,.51,.74,.57,1.16,.16,.99-.24,1.82-1.06,2.37-1.58,1.06-3.25,1.94-5.69,1.45Z"/>
      <path class="cls-16" d="M10.82,94.27c0,2.79,.03,4.79-.01,6.8-.01,.66,.27,1.66-.89,1.63-1.03-.03-1.33-.84-1.38-1.74-.13-2.2,.63-4.12,2.28-6.69Z"/>
      <path class="cls-14" d="M318.74,205.72c-.39,3.05-.65,5.36-1,7.64-.1,.69-.44,1.34-.88,1.96-.14-3.07-.87-6.23,1.87-9.61Z"/>
      <path class="cls-44" d="M215.89,318.84c-1.15,3.28-3.31,2.52-6.05,2.38,2.19-1.19,3.75-1.93,6.05-2.38Z"/>
      <path class="cls-25" d="M209.59,314.23c-.82,1.57,.39,2.04,1.39,2.69,.92,.6,2.2,.2,2.96,1.15-.79,.12-1.6,.4-2.38,.32-2.12-.21-3.63-1.08-3.12-3.62,.25-.46,.67-.56,1.14-.55Z"/>
      <path class="cls-44" d="M21.87,86.62c-.53,2.42-1.25,3.94-2.48,5.25-1.33-2.41,.63-3.49,2.48-5.25Z"/>
      <path class="cls-35" d="M239.5,28.22c-.23-.18-.46-.35-.69-.53,1.1-1.61,.44-3.1-.72-4.74,3.28,1.21,3.53,2.46,1.42,5.27Z"/>
      <path class="cls-17" d="M66.01,39.83c1.08-.45,.74-2.05,2.13-2.47-.15,1.78-.78,3.3-1.55,4.78-.2-.77-.39-1.54-.59-2.31Z"/>
      <path class="cls-5" d="M263.14,295.51c.15-.99,1.31-1.06,1.7-1.84,.74-.77,1.09-2.23,2.67-1.51-1.03,1.66-2.42,2.86-4.36,3.35Z"/>
      <path class="cls-7" d="M185.16,3.38c-1.44,.16-2.88,.33-4.33,.49,.03-.76,.42-1.26,1.12-1.55,.7,.53,1.52,.17,2.28,.29,.47,.07,1.14-.11,.93,.77Z"/>
      <path class="cls-31" d="M276.52,279.1c-.63,1.32-1.65,2.26-3.04,2.82,.74-1.2,1.62-2.26,3.04-2.82Z"/>
      <path class="cls-3" d="M166.53,5.59c-.7,.03-1.42,.1-2.04-.92,1.79-.12,3.32-.54,4.82,.36-.82,.74-1.94-.06-2.78,.56Z"/>
      <path class="cls-19" d="M21.68,92.62c-.16,1.12-.52,1.92-1.36,2.75-.12-1.27-1.19-2.65,1.36-2.75Z"/>
      <path class="cls-12" d="M20.68,212.68c-.83-.93-.44-2.07-.5-3.12-.03-.43,.02-1.1,.58-.99,.66,.12,.47,.84,.46,1.36-.91,.77-.31,1.84-.55,2.75Z"/>
      <path class="cls-19" d="M59.38,42.62c-.19-.19-.38-.38-.56-.56,.89-.74,1.77-1.48,2.66-2.21-.23,1.36-1.07,2.15-2.09,2.78Z"/>
      <path class="cls-24" d="M185.16,3.38c-.82-1.11-2.42,.14-3.21-1.06,1.48,.07,3.04-.49,4.42,.52-.25,.52-.7,.59-1.21,.54Z"/>
      <path class="cls-26" d="M131.19,9.54c-1.08,.38-2.16,.75-3.9,1.36,1.21-1.47,2.41-1.44,3.34-1.91,.19,.18,.37,.37,.56,.55Z"/>
      <path class="cls-34" d="M267.5,292.17c-1.25-.13-1.66,1.21-2.67,1.51,.11-1.65,1.05-2.31,2.63-2.22,.01,.23,.03,.47,.04,.7Z"/>
      <path class="cls-1" d="M166.53,5.59c.78-.9,1.86-.32,2.78-.56,.51,.04,1.02,.09,1.53,.13,0,.14,0,.28,0,.43h-4.32Z"/>
      <path class="cls-36" d="M299.42,240.99c-.29-1.23-.01-2.08,1.34-2.9-.58,1.25-.96,2.08-1.34,2.9Z"/>
      <path class="cls-42" d="M16.29,210.99c.47,0,.9,.09,1.11,.58-.94,.73-.39,1.78-.59,2.67-.16,.3-.32,.3-.46,0-.02-1.08-.04-2.16-.06-3.24Z"/>
      <path class="cls-30" d="M123.44,16.09c-.57,.79-1.37,1.02-2.5,1.13,.6-1.44,1.66-1.03,2.52-1.1,0,0-.01-.03-.01-.03Z"/>
      <path class="cls-45" d="M16.35,214.23c.15,.03,.31,.03,.47,.01,.32,.71,.86,1.39,.25,2.61-.29-1.06-.5-1.84-.72-2.62Z"/>
      <path class="cls-11" d="M285.12,262.34c-.32-.16-.63-.33-.94-.49,.21-.57,.42-1.15,.63-1.72,.1,0,.21,0,.31,.01v2.2Z"/>
      <path class="cls-22" d="M246.53,314.31c.63-.94,.94-1.41,1.5-2.24,.21,1.19-.04,1.7-1.5,2.24Z"/>
      <path class="cls-40" d="M239.68,321.53c-.67,.7-1.25,1.01-2.14,.85,.51-.74,1.08-.99,2.14-.85Z"/>
      <path class="cls-9" d="M3.02,120.46c-.32,.18-.55,.42-.71,.38-.22-.06-.49-.3-.55-.51-.08-.33,.26-.43,.5-.37,.22,.06,.41,.27,.75,.5Z"/>
      <path class="cls-6" d="M25.74,108.27c.54,.55,.75,1.28,.25,1.81-.29,.31-.69-.26-.85-.67,.47-.24,.51-.7,.6-1.14Z"/>
      <path class="cls-30" d="M.79,108.35h-.21s-.21,0-.21,0c-.06-.75,.25-1.36,.76-1.91,.62,.78-.13,1.29-.33,1.91Z"/>
      <path class="cls-43" d="M1.37,118.54c-.08,.16-.19,.38-.3,.61-.19-.12-.54-.23-.54-.35,0-.22,.13-.52,.31-.65,.3-.22,.43,.04,.53,.4Z"/>
      <path class="cls-4" d="M33.96,70.2c.19,.19,.38,.38,.57,.57-.24,.51-.79,1.21-1.13,.9-.63-.57,.13-1.05,.56-1.47Z"/>
      <path class="cls-29" d="M140.4,7.07c.49-.43,.98-.65,1.64-.34-.47,.75-1.02,.61-1.64,.34Z"/>
      <path class="cls-28" d="M86.42,35.93c-.71,1.2-.61,2.28,.53,3.16,1.6,1.24,.95,2.43-.22,3.39-1.39,1.14-2.79,2.11-4.74,2.54-4.3,.95-8.44,2.5-12.18,4.96-.75,.49-1.59,.86-2.6,1.4-.11-5.29,5.41-9.57,2.23-15.46,2.62-2.22,6.28-2.84,10.56-4.18-3.42,4.17-4.52,8.44-5.51,12.81,2.72-3.7,6.56-6.14,9.7-9.34,2-2.04,1.84-4.61,1.98-6.92,.15-2.36,2.04-2.07,3.09-2.92,.95-.77,2.07,.3,2.97,.85,1.29,.79,.14,1.35-.36,1.87-1.95,2.05-4.29,3.8-4.9,6.81,.34,.62-.2,.77-.55,1.02Z"/>
      <path class="cls-28" d="M39.02,97.66c.85,3.52,1.57,3.76,4.54,2.05,1.61-.92,2.38-2.48,3.3-3.96,.55-.88,.61-2.12,2-2.72-.5,2.31-.87,4.51-2.15,6.29-5.15,7.15-9.89,14.53-13.73,22.48-.15,.31-.32,.67-1.22,.45,0-2.48,.02-5.09,0-7.69-.03-2.96-.26-5.91-.07-8.88,.14-2.08,1.78-3.2,2.95-3.99,1.61-1.08,2.84-2.44,4.38-4.03Z"/>
      <path class="cls-28" d="M86.42,35.93c.18-.34,.37-.68,.55-1.02,1.2-.03,1.64-1.01,2.3-1.76,1.56-1.76,2.94-3.8,5.96-2.6,.78,.31,2.57-.27,1.68-1.99-.51-.99,.15-1.11,.63-1.41,2.97-1.82,5.98-3.58,8.93-5.44,1.3-.82,1.76-.28,2.13,.93,.74,2.39-.47,5.11-2.68,6.21-2.55,1.26-5.15,2.47-7.52,4.02-3.69,2.41-7.57,3.66-11.98,3.06Z"/>
      <path class="cls-13" d="M30.2,127.6c-.89,2.27-1.63,4.6-2.7,6.78-.87,1.77-2.16,1.18-2.86-.16-1.47-2.82-1.85-5.71,.36-8.76,1.18,2,2.13,4.65,5.2,2.14Z"/>
      <path class="cls-21" d="M54.4,49.24c-1.93,3.33-3.91,6.63-5.76,10.01-.73,1.33-1.49,.99-2.46,.48-.84-.44-1.15-1.01-.3-1.64,3.39-2.52,4.8-6.7,7.97-9.39,.51-.15,.75-.03,.54,.54Z"/>
      <path class="cls-21" d="M41.31,98.31c-.19-1.77,.84-3.08,1-4.58,.07-.66,.39-1.22,1.14-1.34,.74-.12,1.2,.32,1.52,.91,.34,.62,.89,1.3,.14,1.95-1.18,1.02-1.99,2.53-3.8,3.06Z"/>
      <path class="cls-7" d="M319.4,125.43c.9,1.66,1.87,3.31,.73,5.68-1-1.81-1.15-3.45-1.31-5.09-.22-.6,.07-.7,.58-.59Z"/>
      <path class="cls-39" d="M216.5,311.88c.63-.92,1.58-1.11,2.38-1.52,.45-.23,.97-.72,1.48-.24,.21,.2,.24,.68,.22,1.02-.06,.78-.7,1.16-1.33,1.16-.89,0-1.78-.25-2.75-.41Z"/>
      <path class="cls-15" d="M231.06,24.28c-1.49-.19-2.59-.51-3.56-1.21,1.79-2.04,2.25-1.91,3.56,1.21Z"/>
      <path class="cls-41" d="M138.94,322.44c1.48,.15,3.04-.21,4.65,.81-2.13,.92-3.92,.02-5.74-.28-.03-.98,.52-.77,1.09-.52Z"/>
      <path class="cls-17" d="M51.18,93.24c0-1.14-.54-2.15,.74-2.53,.39-.12,1.07-.1,1.09,.44,.04,1.01-.77,1.47-1.83,2.09Z"/>
      <path class="cls-37" d="M44.55,84.48c.59,1.1,.53,1.6,.14,2.03-.06,.07-.39,.02-.46-.07-.41-.59,.2-.92,.32-1.96Z"/>
      <path class="cls-32" d="M54.4,49.24c-.18-.18-.36-.36-.54-.54,.27-.59,.65-1.08,1.42-1.44,.23,.95-.35,1.46-.87,1.98Z"/>
      <path class="cls-20" d="M138.94,322.44c-.36,.17-.73,.35-1.09,.52-.48-.16-1.02-.22-1.3-.83,.88-.36,1.66-.31,2.38,.31Z"/>
      <path class="cls-38" d="M319.4,125.43c-.19,.2-.39,.39-.58,.59-.5-.46-.59-1.03-.43-1.68,.79-.05,.78,.63,1.01,1.09Z"/>
      <path class="cls-10" d="M109.67,17.74c-.12,.67-.24,1.01-.67,.93-.13-.03-.29-.41-.25-.57,.06-.21,.29-.45,.49-.51,.16-.05,.4,.14,.43,.15Z"/>
    </g>
  </g>
</svg>