<?xml version="1.0" encoding="UTF-8"?>
<svg id="Layer_2" data-name="Layer 2" xmlns="http://www.w3.org/2000/svg" viewBox="0 0 241.22 153.8">
  <defs>
    <style>
      .cls-1 {
        fill: #fff;
      }

      .cls-2 {
        fill: #f7f6e9;
      }

      .cls-3 {
        fill: #e5c768;
      }

      .cls-4 {
        fill: #31322f;
      }

      .cls-5 {
        fill: #4a4846;
      }

      .cls-6 {
        fill: #434244;
      }

      .cls-7 {
        fill: #444344;
      }

      .cls-8 {
        fill: #4b4846;
      }
    </style>
  </defs>
  <g id="Layer_1-2" data-name="Layer 1">
    <g>
      <g>
        <path class="cls-2" d="M98.46,141.09c.13-.55-.4-.53-.66-.69-.91-.58-2.48-.43-2.35-2.15-1.78,.23-3.26-.75-4.86-1.21-.26-.07-.61,.38-.46,.61,.62,.88,1.68,1.33,2.18,2.41,.2,.44,.94-.14,1.42-.3,1.14-.37,1.25-.4,1.31,.01,.23,1.62,1.8,1.31,2.71,1.93,.47,.32,.49-.36,.71-.62ZM1.81,7.39c-.05-.6,.09-1.45-.62-1.28-1.34,.33-.51,1.65-.83,2.48-.22,.56,.02,1.25,.68,1.04,1.14-.37,.25-1.63,.77-2.24ZM85.51,79.56c.96-.45,2.26-.27,2.89-1.35,.14-.24-.09-.95-.78-.73-1.04,.34-2.28,.36-2.97,1.32-.22,.31,.26,.79,.86,.75Zm-9.61,63.49c.6-.29,1.74,.52,1.81-.6,.07-1.14-1.08-.74-1.72-.72-.63,.02-1.75-.53-1.8,.6-.05,1.23,1.12,.45,1.71,.72Zm85.28,10.43c.63-.37,1.8,.5,2.02-.71,.18-1.03-.82-.72-1.27-.61-.8,.2-2.14-.32-2.32,.7-.19,1.05,.98,.4,1.57,.61ZM72.97,88.8c-.87,.71-1.24,1.75-1.59,2.79-.16,.48,.36,.83,.58,.73,1.15-.55,1.33-1.81,1.77-2.84,.16-.37-.31-.6-.76-.68Zm42.9,3.32c-.13,.06-.32,.09-.38,.2-.51,.91,.17,1.68,.33,2.51,.07,.38-.06,.98,.61,.98,.27,0,.76-.14,.77-.26,.12-1.07-.52-1.96-.76-2.96-.08-.32-.19-.54-.57-.47Zm-99.04,2.49c-.37,.16-.89,.21-.66,.72,.38,.88,.81,1.75,1.32,2.57,.23,.36,.77,.2,.99-.05,.44-.51-.07-1-.31-1.38-.4-.65-.4-1.63-1.34-1.87Zm99.87,5.16c.35,.48-.59,1.81,.82,1.95,.68,.07,.73-.66,.46-1.19-.4-.79,.53-2.2-.88-2.39-.71-.1-.64,.83-.4,1.63Zm-3.17,19.01c-.04,.57,.46,.93,.64,.84,1.24-.58,1.11-1.96,1.59-2.99,.22-.48-.4-.65-.7-.55-1.32,.45-.79,1.98-1.53,2.7Zm79.33,28.71c-.15-.62-.3-1.14-.9-.76-.87,.54-2.41-.12-2.68,1.43-.05,.3,.32,.78,.77,.51,.89-.54,2.21-.17,2.82-1.18Zm-128.25-5.67c.6,.29,1.23,.17,1.17-.48-.12-1.36-1.47-.86-2.26-1.18-.39-.16-1.25-.49-1.22,.35,.05,1.49,1.59,.79,2.31,1.32Zm108.06,10.59c.65-.53,2.03,.28,2.4-1.06,.15-.52-.32-.83-.84-.6-.9,.4-2.25-.23-2.72,.96-.29,.74,.52,.66,1.15,.7Zm8.47-1.91c-.13-.67-.47-.98-.99-.8-.93,.31-2.18-.05-2.69,1.08-.16,.36,.32,.86,.89,.62,.91-.38,2.12,.04,2.79-.89Zm-55.34,.36c.67,.24,1.34,.21,1.28-.46-.12-1.37-1.51-.7-2.26-1.11-.31-.17-1.25-.45-1.27,.3-.04,1.71,1.71,.6,2.25,1.27ZM3.2,44.93c-.86-.54,.55-2.16-1.01-2.44-.71-.13-.83,.61-.61,1.11,.36,.84-.18,2.11,.92,2.52,.61,.23,.77-.5,.71-1.19Zm114.72,60.68c.1-.67,.34-1.55-.57-1.38-1.06,.21-.51,1.36-.68,2.08-.14,.58-.43,1.69,.55,1.5,1.08-.2,.38-1.54,.7-2.21Zm-95.99,.53c.62,.85,.78,2.11,1.96,2.52,.19,.07,.81-.31,.53-.76-.57-.93-.76-2.18-1.96-2.58-.29-.1-.63,.33-.53,.82Zm76.62-29.54c-.53,.09-1.59-.4-1.32,.55,.29,1.01,1.58,.83,2.5,.94,.48,.06,1.33,.32,1.17-.46-.25-1.21-1.51-.83-2.36-1.04Zm12.72,48.98c1.15-1.12,1.68-2.16,2.03-3.26,.09-.27-.52-.79-.75-.62-.95,.72-1.48,1.78-1.81,2.89-.07,.24,.32,.62,.52,.99Zm-.1-40.81c.18-.17,.59-.37,.58-.57-.02-.93-.92-1.27-1.45-1.86-.31-.34-.53-.99-1.2-.78-.17,.06-.36,.29-.41,.48-.14,.49,1.89,2.76,2.48,2.72Zm26.53,68.1c.62-.02,1.48,.15,1.3-.57-.39-1.54-1.91-.46-2.82-.96-.59-.33-.95,.18-.81,.59,.4,1.24,1.66,.53,2.33,.93Zm-16.31-4.19c-.79-.45-1.71-.71-2.69-.88-.46-.08-1.02-.25-.97,.41,.12,1.49,1.6,.86,2.38,1.35,.52,.32,1,.08,1.27-.87Zm-6.31-59.71c-.61-.77-.72-2.06-1.87-2.6-.05-.02-.82,.26-.57,.75,.51,1.01,.64,2.33,1.92,2.76,.36,.12,.62-.31,.52-.9ZM10.32,77.62c-.51,.34-1.19,.39-.84,1.01,.49,.9,.09,2.34,1.51,2.66,.4,.09,.69-.3,.55-.74-.32-1-.46-2.1-1.21-2.92Zm-1.73-5.62c-.52,.1-.97,.16-.85,.67,.25,1.04,.22,2.28,1.25,2.9,.36,.22,.81-.37,.67-.87-.27-.95-.25-2.05-1.08-2.71Zm104.31,74.03c-.66-.06-1.24,.09-1.02,.65,.46,1.17,1.74,.92,2.67,1.26,.48,.17,1.06-.15,.86-.66-.46-1.17-1.84-.7-2.52-1.25Zm-35.24-61.62c-.16-.14-.36-.41-.61-.49-.44-.13-2.58,2.14-2.44,2.61,.07,.24,.36,.48,.6,.57,.34,.12,2.51-2.22,2.45-2.7ZM4.11,50.88c-.76-.57,.43-2.21-1.11-2.44-.74-.11-.71,.71-.55,1.17,.3,.84-.14,2.06,.94,2.45,.53,.19,.88-.42,.72-1.18ZM.71,2.2c.07,.62-.44,1.55,.62,1.38,1.3-.21,.51-1.46,.82-2.2C2.34,.92,2.6-.07,1.71,0,.25,.13,1.28,1.62,.71,2.2ZM92.57,77.73c.41-.69,1.9,.64,1.98-.85,.06-1.13-1.09-.71-1.52-.5-.7,.34-2.1-.49-2.07,.95,.02,.98,.91,.34,1.61,.39ZM13.57,86.19c-.61-.82-.25-2.27-1.56-2.67-.4-.12-.73,.4-.56,.74,.46,.95,.36,2.24,1.44,2.79,.35,.18,.83-.23,.68-.86Zm56.33,10.62c-.12,.54-.11,1.3,.57,1.09,1.07-.33,.83-1.55,1.1-2.42,.19-.61,.04-1.24-.58-1.07-1.15,.32-.78,1.56-1.08,2.4Zm2.09,17.05c-.14-.91-.12-1.98-.99-2.48-.33-.19-.97,.29-.65,1.02,.35,.82-.03,2.05,1.12,2.38,.56,.16,.66-.43,.52-.92Zm3.84,11.33c.55-.11,1.07-.49,.94-.66-.63-.88-.82-2.12-1.98-2.54-.12-.04-.61,.4-.57,.5,.35,1.04,.91,1.96,1.61,2.7Zm14.06,15.62c-.33-.44-.2-1.13-.92-.84-.97,.39-2.29,.05-2.88,1.18-.2,.39,.27,.86,.82,.64,.95-.38,2.14-.13,2.98-.98Zm-40.65-6.83c-.72-.81-1.66-1.48-2.77-1.84-.35-.11-.67,.52-.48,.8,.62,.94,1.61,1.46,2.62,1.85,.45,.18,.6-.27,.62-.81Zm51.77,1.68c-.08-.12-.15-.37-.31-.47-.55-.33-.99,.05-1.4,.35-.63,.45-1.53,.58-1.79,1.43-.05,.18,.24,.55,.46,.69,.28,.18,3.01-1.6,3.04-2Zm-30.61,7.16c.66,.08,1.45,.18,1.36-.48-.19-1.52-1.69-.57-2.49-1.06-.4-.24-1.2-.28-1.06,.54,.23,1.4,1.63,.47,2.19,1Zm33.79,.23c-.96-.37-1.93-.78-2.92-1.12-.39-.13-.89,.13-.74,.52,.45,1.19,1.72,1.2,2.7,1.61,.55,.23,.73-.29,.97-1.01Zm2.78,1.03c-.66,0-1.06,.64-.92,.81,.7,.83,1.84,.86,2.8,1.22,.41,.15,.89-.09,.77-.5-.39-1.36-1.83-1-2.66-1.53Zm80.08,5.02c-.16-.65-.52-.96-1.02-.76-.91,.37-2.21-.02-2.65,1.17-.15,.4,.44,.83,.94,.62,.9-.38,2.11-.07,2.73-1.03Zm-55.57,2.87c.7-.02,1.67,.27,1.53-.55-.23-1.33-1.62-.6-2.45-.94-.51-.21-1.24-.29-1.18,.43,.12,1.42,1.59,.45,2.09,1.06Zm34.97,1.12c1.67,.05,2.66-.26,2.69-.84,.04-.79-.51-.86-1.03-.67-.88,.31-2.21-.39-2.61,.95-.15,.49,.46,.66,.95,.56Zm-60.01-21.45c-.51-.19-.78-.31-1.07-.39-.54-.15-2.95,1.97-2.75,2.45,.09,.22,.56,.54,.63,.49,.93-.69,1.82-1.43,3.19-2.55Zm2.69-4.92c-.69,.85-1.77,1.49-1.99,2.76-.02,.14,.54,.54,.6,.5,.95-.69,1.78-1.54,2.26-2.61,.12-.27-.32-.58-.87-.65ZM1.51,19.87c-.36-.5,.4-1.76-.86-1.63-1.06,.11-.51,1.24-.49,1.87,.01,.58-.65,1.79,.67,1.68,1.16-.09,.35-1.23,.68-1.93ZM149.11,152.36c-.61,.17-1.74-.35-1.7,.47,.06,1.25,1.36,.71,2.15,.81,.61,.08,1.62,.34,1.43-.73-.18-1.04-1.27-.26-1.88-.55Zm-60.52-16.45c-.48-.96-1.5-1.31-2.34-1.83-.3-.19-.89,.1-.79,.5,.29,1.11,1.43,1.36,2.26,1.9,.47,.3,.59-.21,.87-.56Zm-7.2,6.9c.42-.92,2,.53,2.35-.97,.13-.56-.36-.8-.86-.57-.89,.41-2.21-.35-2.73,.8-.28,.62,.47,.76,1.24,.74Zm25.55-63.01c-.73-.91-1.88-1.22-2.9-1.72-.39-.19-.88,.23-.76,.54,.48,1.23,1.82,1.35,2.81,1.9,.36,.2,.62-.23,.85-.73ZM39.68,126.37c-.79-.52-1.33-1.62-2.52-1.95-.13-.04-.6,.5-.55,.59,.52,1.08,1.49,1.77,2.45,2.41,.22,.15,.6-.32,.62-1.05Zm2.23,2.04c-.5,.09-.91,.52-.8,.71,.59,1.02,1.54,1.71,2.61,2.18,.09,.04,.58-.43,.55-.54-.41-1.18-1.59-1.6-2.36-2.35Zm27.62-20.99c.52,.42-.59,1.73,.83,1.8,.98,.05,.66-.88,.57-1.35-.15-.77,.31-2.07-.99-2.09-.82,0-.33,.95-.41,1.64Zm1.16-5.83c-.22-.53,.35-1.66-.7-1.49-1,.16-.49,1.36-.64,2.09-.1,.48-.34,1.4,.66,1.25,1.14-.17,.34-1.24,.69-1.84Zm-10.66,37.62c-.84-.65-1.94-.96-3.06-1.18-.13-.03-.53,.5-.49,.57,.66,1.08,1.86,1.22,2.94,1.52,.36,.1,.64-.28,.6-.91Zm12.64-22.52c-.57,.11-1,.43-.8,.76,.54,.88,.21,2.29,1.5,2.68,.28,.09,.66-.34,.5-.79-.34-.92-.35-2.03-1.2-2.64ZM5.14,56.87c-.47-.67,.26-2.03-1.07-2.44-.5-.15-.96,.3-.61,.79,.61,.87-.38,2.41,1.12,2.79,.55,.14,.61-.51,.56-1.14Zm10.81,34.85c-.53-.71-.42-2.05-1.57-2.58-.28-.13-.81,.28-.64,.69,.41,.99,.51,2.22,1.61,2.76,.3,.15,.72-.15,.59-.87ZM1.57,26.23c-.42-.52,.54-1.75-.69-1.93-1.07-.17-.78,.92-.7,1.47,.12,.78-.55,2.09,.78,2.19,.94,.08,.44-1.01,.61-1.73Zm78.36,56.56c.87-.74,2.13-1.03,2.72-2.12,.12-.22-.35-.86-.65-.67-1,.61-2.19,1.03-2.8,2.11-.19,.35,.3,.58,.72,.68Zm-60.46,17.26c-.15,.11-.59,.32-.57,.44,.24,1.15,.77,2.18,1.72,2.92,.1,.08,.57-.14,.7-.34,.26-.4-1.28-3.01-1.85-3.02ZM5.13,60.26c-.72,.34-.62,1.08-.37,1.48,.44,.71-.14,2.05,1.06,2.17,.89,.09,.79-.77,.5-1.29-.41-.75,.24-2.03-1.19-2.36Zm204.75,81.02c-.14-.5-.42-.95-.76-.79-.97,.45-2.22,.48-2.8,1.53-.18,.32,.29,.77,.67,.65,1.03-.32,2.14-.54,2.89-1.39ZM.48,32.15c.54,.46-.61,1.79,.83,1.83,1.1,.03,.63-1.03,.58-1.57-.06-.72,.37-1.96-.82-1.99-1.1-.03-.32,1.05-.59,1.73Zm195.28,114.81c.82-.63,2.24-.3,2.77-1.52,.18-.43-.2-.85-.57-.67-1,.49-2.45,.19-2.96,1.53-.12,.33,.24,.67,.76,.67ZM7.89,68.44c-.8-.36,.23-2-1.29-2.2-.66-.09-.71,.51-.51,.9,.44,.88-.05,2.27,1.16,2.66,.63,.21,.69-.56,.64-1.36ZM1.5,13.92c-.3-.54,.63-1.67-.66-1.74-1.11-.05-.73,.99-.68,1.54,.07,.71-.61,1.94,.56,2.03,1.05,.09,.67-1.1,.78-1.83ZM204.4,143.53c-.32-.44-.45-1.09-1.04-.67-.82,.58-2.21,.22-2.57,1.41-.17,.55,.47,.71,.93,.5,.88-.41,2.04-.31,2.67-1.24Zm-49.05,8.81c-.41,.57-1.77-.68-1.75,.81,.02,1.01,1.07,.54,1.63,.53,.7-.02,1.93,.5,1.91-.77-.02-.92-1.09-.29-1.79-.57ZM25.84,110.31c-.14,.09-.34,.19-.49,.33-.47,.47-.03,.88,.22,1.15,.59,.63,.71,1.69,1.71,1.92,.13,.03,.39-.22,.5-.4,.26-.42-1.36-2.98-1.94-3.01Zm25.85,24.98c-.34,.26-.86,.53-.65,.86,.62,.95,1.75,1.25,2.73,1.71,.36,.17,.82-.46,.74-.62-.56-1.18-2-1.13-2.82-1.95Zm63.78-22.78c0,.57-.29,1.37,.48,1.29,1.49-.17,.69-1.69,1.21-2.49,.3-.47,.18-1.21-.54-1.07-1.28,.25-.57,1.65-1.14,2.27Zm-33.82,17.91c-.23,.35-.63,.86-.59,.9,.74,.71,1.5,1.42,2.35,2,.21,.14,.74-.46,.57-.75-.53-.9-1.37-1.51-2.33-2.15ZM.96,37.84c.46,.54-.53,1.83,.79,2.09,1,.2,.69-.77,.64-1.27-.08-.82,.36-2.03-.76-2.29-.95-.22-.55,.77-.66,1.46ZM31.46,117.63c-.85-.54-.92-2.04-2.28-2.27-.19-.03-.76,.4-.46,.82,.64,.89,1.17,1.9,2.17,2.46,.09,.05,.64-.35,.57-1Zm4.09,4.85c-.59-1.01-1.4-1.89-2.43-2.52-.21-.13-.78,.32-.62,.66,.48,1.02,1.23,1.88,2.21,2.45,.39,.23,.63-.18,.84-.6Zm107.76,30.9c.57-.25,1.64,.49,1.66-.57,.03-1.36-1.24-.72-1.92-.8-.53-.06-1.6-.53-1.63,.49-.03,1.37,1.26,.56,1.89,.88Zm-63.21-24.75c-.68-.58-.98-1.68-2.02-2.05-.37-.13-.86,.35-.69,.61,.55,.86,1.05,1.83,1.99,2.33,.21,.11,.63-.28,.72-.88Z"/>
        <path class="cls-4" d="M98.46,141.09c-.22,.25-.24,.94-.71,.62-.91-.62-2.48-.32-2.71-1.93-.06-.42-.17-.38-1.31-.01-.48,.16-1.22,.74-1.42,.3-.49-1.08-1.56-1.53-2.18-2.41-.16-.23,.2-.68,.46-.61,1.61,.46,3.08,1.44,4.86,1.21-.12,1.72,1.44,1.57,2.35,2.15,.26,.16,.79,.14,.66,.69Z"/>
        <path class="cls-4" d="M1.81,7.39c-.52,.61,.37,1.87-.77,2.24-.66,.21-.89-.48-.68-1.04,.32-.83-.51-2.15,.83-2.48,.71-.17,.58,.68,.62,1.28Z"/>
        <path class="cls-4" d="M85.51,79.56c-.6,.04-1.08-.45-.86-.75,.69-.96,1.93-.98,2.97-1.32,.69-.22,.92,.49,.78,.73-.64,1.08-1.94,.9-2.89,1.35Z"/>
        <path class="cls-4" d="M75.9,143.05c-.59-.27-1.76,.5-1.71-.72,.05-1.13,1.17-.58,1.8-.6,.63-.02,1.79-.42,1.72,.72-.07,1.12-1.21,.32-1.81,.6Z"/>
        <path class="cls-4" d="M161.18,153.47c-.58-.21-1.75,.44-1.57-.61,.18-1.02,1.52-.5,2.32-.7,.45-.11,1.45-.43,1.27,.61-.22,1.21-1.39,.33-2.02,.71Z"/>
        <path class="cls-4" d="M72.97,88.8c.45,.08,.92,.31,.76,.68-.44,1.03-.62,2.29-1.77,2.84-.22,.1-.74-.25-.58-.73,.35-1.04,.72-2.08,1.59-2.79Z"/>
        <path class="cls-4" d="M115.87,92.13c.38-.07,.49,.15,.57,.47,.24,.99,.87,1.89,.76,2.96-.01,.12-.5,.26-.77,.26-.66,0-.54-.6-.61-.98-.15-.83-.83-1.61-.33-2.51,.06-.1,.25-.13,.38-.2Z"/>
        <path class="cls-4" d="M16.83,94.62c.94,.24,.94,1.22,1.34,1.87,.24,.39,.75,.87,.31,1.38-.22,.25-.76,.41-.99,.05-.51-.81-.93-1.69-1.32-2.57-.22-.51,.3-.56,.66-.72Z"/>
        <path class="cls-4" d="M116.7,99.78c-.23-.81-.31-1.73,.4-1.63,1.41,.19,.48,1.61,.88,2.39,.27,.53,.21,1.25-.46,1.19-1.41-.14-.47-1.47-.82-1.95Z"/>
        <path class="cls-4" d="M113.53,118.79c.74-.71,.2-2.24,1.53-2.7,.3-.1,.92,.06,.7,.55-.48,1.03-.35,2.41-1.59,2.99-.17,.08-.67-.27-.64-.84Z"/>
        <path class="cls-4" d="M192.85,147.5c-.61,1.01-1.93,.64-2.82,1.18-.45,.27-.82-.21-.77-.51,.27-1.55,1.81-.89,2.68-1.43,.6-.37,.75,.14,.9,.76Z"/>
        <path class="cls-4" d="M64.6,141.83c-.73-.53-2.26,.18-2.31-1.32-.03-.83,.83-.5,1.22-.35,.79,.32,2.14-.18,2.26,1.18,.06,.66-.57,.78-1.17,.48Z"/>
        <path class="cls-4" d="M172.66,152.42c-.63-.04-1.45,.04-1.15-.7,.47-1.19,1.82-.56,2.72-.96,.52-.23,.98,.08,.84,.6-.38,1.34-1.75,.53-2.4,1.06Z"/>
        <path class="cls-4" d="M181.13,150.51c-.67,.94-1.88,.51-2.79,.89-.57,.24-1.05-.26-.89-.62,.51-1.13,1.77-.77,2.69-1.08,.51-.17,.86,.14,.99,.8Z"/>
        <path class="cls-4" d="M125.8,150.87c-.54-.67-2.28,.44-2.25-1.27,.02-.74,.96-.47,1.27-.3,.75,.41,2.13-.26,2.26,1.11,.06,.67-.61,.7-1.28,.46Z"/>
        <path class="cls-4" d="M3.2,44.93c.07,.69-.1,1.42-.71,1.19-1.1-.41-.56-1.68-.92-2.52-.22-.5-.1-1.24,.61-1.11,1.56,.28,.15,1.9,1.01,2.44Z"/>
        <path class="cls-4" d="M117.92,105.61c-.32,.67,.38,2.01-.7,2.21-.99,.19-.69-.93-.55-1.5,.17-.72-.37-1.88,.68-2.08,.91-.18,.68,.7,.57,1.38Z"/>
        <path class="cls-4" d="M21.93,106.14c-.09-.49,.24-.92,.53-.82,1.19,.4,1.39,1.65,1.96,2.58,.28,.45-.35,.83-.53,.76-1.18-.41-1.34-1.67-1.96-2.52Z"/>
        <path class="cls-4" d="M98.55,76.6c.85,.21,2.11-.17,2.36,1.04,.16,.77-.69,.51-1.17,.46-.93-.11-2.22,.07-2.5-.94-.27-.95,.79-.46,1.32-.55Z"/>
        <path class="cls-4" d="M111.27,125.58c-.21-.37-.59-.75-.52-.99,.33-1.12,.86-2.18,1.81-2.89,.22-.17,.83,.35,.75,.62-.35,1.1-.88,2.14-2.03,3.26Z"/>
        <path class="cls-4" d="M111.16,84.76c-.59,.03-2.62-2.23-2.48-2.72,.05-.19,.24-.42,.41-.48,.67-.22,.89,.43,1.2,.78,.53,.59,1.43,.92,1.45,1.86,0,.19-.4,.4-.58,.57Z"/>
        <path class="cls-4" d="M137.7,152.87c-.67-.4-1.93,.31-2.33-.93-.14-.42,.22-.92,.81-.59,.9,.5,2.43-.58,2.82,.96,.18,.72-.68,.55-1.3,.57Z"/>
        <path class="cls-4" d="M121.38,148.68c-.27,.95-.75,1.19-1.27,.87-.79-.49-2.26,.14-2.38-1.35-.05-.66,.5-.49,.97-.41,.98,.17,1.9,.43,2.69,.88Z"/>
        <path class="cls-4" d="M115.07,88.97c.1,.59-.15,1.02-.52,.9-1.27-.43-1.4-1.75-1.92-2.76-.25-.48,.52-.77,.57-.75,1.15,.54,1.25,1.83,1.87,2.6Z"/>
        <path class="cls-4" d="M10.32,77.62c.76,.83,.89,1.93,1.21,2.92,.14,.44-.14,.83-.55,.74-1.42-.32-1.01-1.76-1.51-2.66-.34-.62,.33-.67,.84-1.01Z"/>
        <path class="cls-4" d="M8.59,72c.83,.65,.81,1.76,1.08,2.71,.14,.49-.31,1.09-.67,.87-1.03-.62-1.01-1.86-1.25-2.9-.12-.51,.32-.57,.85-.67Z"/>
        <path class="cls-4" d="M112.91,146.03c.68,.55,2.06,.08,2.52,1.25,.2,.51-.38,.84-.86,.66-.93-.34-2.22-.09-2.67-1.26-.22-.56,.35-.71,1.02-.65Z"/>
        <path class="cls-4" d="M77.67,84.42c.07,.48-2.11,2.83-2.45,2.7-.25-.09-.53-.34-.6-.57-.14-.47,1.99-2.75,2.44-2.61,.25,.08,.45,.35,.61,.49Z"/>
        <path class="cls-4" d="M4.11,50.88c.16,.76-.2,1.37-.72,1.18-1.08-.39-.65-1.61-.94-2.45-.16-.46-.19-1.28,.55-1.17,1.55,.23,.36,1.87,1.11,2.44Z"/>
        <path class="cls-4" d="M.71,2.2C1.28,1.62,.25,.13,1.71,0c.89-.07,.63,.92,.44,1.38-.3,.74,.48,1.99-.82,2.2-1.06,.17-.55-.76-.62-1.38Z"/>
        <path class="cls-4" d="M92.57,77.73c-.69-.06-1.58,.58-1.61-.39-.03-1.45,1.37-.61,2.07-.95,.43-.21,1.58-.63,1.52,.5-.08,1.49-1.57,.16-1.98,.85Z"/>
        <path class="cls-4" d="M13.57,86.19c.14,.64-.34,1.04-.68,.86-1.08-.55-.97-1.84-1.44-2.79-.16-.34,.16-.86,.56-.74,1.31,.4,.95,1.84,1.56,2.67Z"/>
        <path class="cls-4" d="M69.89,96.8c.3-.84-.07-2.08,1.08-2.4,.63-.17,.78,.46,.58,1.07-.27,.87-.04,2.08-1.1,2.42-.68,.21-.69-.55-.56-1.09Z"/>
        <path class="cls-4" d="M71.99,113.85c.14,.5,.04,1.09-.52,.93-1.16-.33-.77-1.57-1.12-2.38-.31-.73,.32-1.21,.65-1.02,.88,.5,.85,1.57,1,2.48Z"/>
        <path class="cls-4" d="M75.83,125.19c-.7-.75-1.26-1.66-1.61-2.7-.03-.1,.45-.55,.57-.5,1.16,.43,1.36,1.67,1.98,2.54,.12,.17-.39,.55-.94,.66Z"/>
        <path class="cls-4" d="M89.89,140.81c-.84,.85-2.04,.61-2.98,.98-.55,.22-1.02-.25-.82-.64,.58-1.13,1.9-.79,2.88-1.18,.73-.29,.59,.4,.92,.84Z"/>
        <path class="cls-4" d="M49.24,133.98c-.02,.54-.17,.99-.62,.81-1.01-.39-2.01-.91-2.62-1.85-.19-.28,.13-.91,.48-.8,1.11,.36,2.05,1.02,2.77,1.84Z"/>
        <path class="cls-4" d="M101.01,135.67c-.03,.41-2.76,2.18-3.04,2-.22-.14-.51-.52-.46-.69,.26-.85,1.16-.99,1.79-1.43,.42-.3,.85-.67,1.4-.35,.16,.09,.23,.35,.31,.47Z"/>
        <path class="cls-4" d="M70.4,142.82c-.56-.53-1.96,.39-2.19-1-.14-.82,.66-.78,1.06-.54,.8,.49,2.3-.47,2.49,1.06,.08,.66-.71,.56-1.36,.48Z"/>
        <path class="cls-4" d="M104.18,143.05c-.24,.72-.42,1.24-.97,1.01-.97-.41-2.25-.42-2.7-1.61-.15-.39,.35-.66,.74-.52,1,.34,1.97,.75,2.92,1.12Z"/>
        <path class="cls-4" d="M106.96,144.09c.83,.53,2.27,.17,2.66,1.53,.12,.41-.36,.65-.77,.5-.96-.35-2.1-.38-2.8-1.22-.15-.18,.26-.82,.92-.81Z"/>
        <path class="cls-4" d="M187.04,149.11c-.62,.95-1.83,.65-2.73,1.03-.5,.21-1.09-.21-.94-.62,.44-1.19,1.75-.8,2.65-1.17,.49-.2,.86,.11,1.02,.76Z"/>
        <path class="cls-4" d="M131.47,151.98c-.5-.61-1.97,.36-2.09-1.06-.06-.71,.67-.63,1.18-.43,.83,.34,2.22-.4,2.45,.94,.14,.82-.83,.53-1.53,.55Z"/>
        <path class="cls-4" d="M166.44,153.1c-.5,.1-1.1-.07-.95-.56,.4-1.34,1.72-.64,2.61-.95,.52-.18,1.07-.11,1.03,.67-.03,.58-1.02,.89-2.69,.84Z"/>
        <path class="cls-4" d="M106.43,131.65c-1.37,1.12-2.26,1.86-3.19,2.55-.06,.05-.53-.27-.63-.49-.2-.48,2.21-2.6,2.75-2.45,.28,.08,.56,.2,1.07,.39Z"/>
        <path class="cls-4" d="M109.12,126.73c.55,.07,.99,.38,.87,.65-.49,1.07-1.31,1.92-2.26,2.61-.06,.04-.62-.36-.6-.5,.22-1.27,1.3-1.91,1.99-2.76Z"/>
        <path class="cls-4" d="M1.51,19.87c-.33,.7,.48,1.84-.68,1.93-1.32,.1-.66-1.1-.67-1.68-.02-.63-.57-1.76,.49-1.87,1.26-.13,.5,1.13,.86,1.63Z"/>
        <path class="cls-4" d="M149.11,152.36c.61,.29,1.7-.49,1.88,.55,.19,1.07-.82,.8-1.43,.73-.79-.1-2.09,.44-2.15-.81-.04-.82,1.09-.3,1.7-.47Z"/>
        <path class="cls-4" d="M88.58,135.92c-.27,.35-.4,.87-.87,.56-.83-.54-1.97-.79-2.26-1.9-.1-.39,.48-.69,.79-.5,.84,.52,1.86,.87,2.34,1.83Z"/>
        <path class="cls-4" d="M81.38,142.82c-.77,.02-1.52-.11-1.24-.74,.52-1.15,1.84-.39,2.73-.8,.5-.23,1,0,.86,.57-.35,1.5-1.93,.05-2.35,.97Z"/>
        <path class="cls-4" d="M106.93,79.81c-.23,.5-.49,.93-.85,.73-.99-.55-2.33-.67-2.81-1.9-.12-.31,.37-.73,.76-.54,1.02,.5,2.18,.81,2.9,1.72Z"/>
        <path class="cls-4" d="M39.68,126.37c-.02,.73-.4,1.2-.62,1.05-.96-.64-1.93-1.32-2.45-2.41-.05-.1,.42-.63,.55-.59,1.19,.33,1.74,1.43,2.52,1.95Z"/>
        <path class="cls-4" d="M41.9,128.41c.77,.75,1.95,1.17,2.36,2.35,.04,.11-.45,.58-.55,.54-1.08-.47-2.02-1.15-2.61-2.18-.11-.19,.29-.62,.8-.71Z"/>
        <path class="cls-4" d="M69.52,107.42c.08-.69-.41-1.65,.41-1.64,1.29,.02,.84,1.32,.99,2.09,.09,.47,.4,1.4-.57,1.35-1.42-.07-.31-1.38-.83-1.8Z"/>
        <path class="cls-4" d="M70.68,101.6c-.35,.61,.45,1.67-.69,1.84-1,.15-.76-.76-.66-1.25,.15-.73-.36-1.93,.64-2.09,1.05-.17,.48,.96,.7,1.49Z"/>
        <path class="cls-4" d="M60.02,139.21c.04,.64-.25,1.01-.6,.91-1.08-.3-2.28-.44-2.94-1.52-.05-.07,.36-.6,.49-.57,1.12,.22,2.22,.53,3.06,1.18Z"/>
        <path class="cls-4" d="M72.66,116.69c.85,.61,.85,1.72,1.2,2.64,.17,.45-.21,.88-.5,.79-1.29-.39-.96-1.79-1.5-2.68-.2-.33,.23-.64,.8-.76Z"/>
        <path class="cls-4" d="M5.14,56.87c.05,.63-.01,1.28-.56,1.14-1.5-.38-.51-1.92-1.12-2.79-.35-.5,.11-.95,.61-.79,1.33,.41,.6,1.78,1.07,2.44Z"/>
        <path class="cls-4" d="M15.94,91.71c.13,.72-.29,1.02-.59,.87-1.1-.54-1.21-1.77-1.61-2.76-.17-.41,.36-.82,.64-.69,1.15,.53,1.04,1.87,1.57,2.58Z"/>
        <path class="cls-4" d="M1.57,26.23c-.17,.72,.33,1.8-.61,1.73-1.33-.11-.65-1.42-.78-2.19-.09-.55-.37-1.63,.7-1.47,1.23,.19,.27,1.41,.69,1.93Z"/>
        <path class="cls-4" d="M79.93,82.78c-.42-.1-.92-.34-.72-.68,.61-1.08,1.8-1.5,2.8-2.11,.3-.18,.77,.45,.65,.67-.59,1.09-1.86,1.38-2.72,2.12Z"/>
        <path class="cls-4" d="M19.47,100.05c.57,.01,2.11,2.62,1.85,3.02-.13,.19-.6,.41-.7,.34-.95-.74-1.47-1.76-1.72-2.92-.02-.11,.42-.33,.57-.44Z"/>
        <path class="cls-4" d="M5.13,60.26c1.43,.33,.78,1.61,1.19,2.36,.28,.52,.39,1.38-.5,1.29-1.2-.13-.62-1.46-1.06-2.17-.24-.4-.35-1.14,.37-1.48Z"/>
        <path class="cls-4" d="M209.88,141.29c-.75,.85-1.86,1.07-2.89,1.39-.39,.12-.85-.33-.67-.65,.58-1.05,1.83-1.08,2.8-1.53,.33-.15,.62,.29,.76,.79Z"/>
        <path class="cls-4" d="M.48,32.15c.27-.68-.51-1.76,.59-1.73,1.19,.03,.76,1.26,.82,1.99,.04,.54,.51,1.6-.58,1.57-1.44-.04-.29-1.37-.83-1.83Z"/>
        <path class="cls-4" d="M195.76,146.95c-.52,0-.88-.34-.76-.67,.51-1.33,1.96-1.03,2.96-1.53,.36-.18,.75,.25,.57,.67-.53,1.23-1.95,.89-2.77,1.52Z"/>
        <path class="cls-4" d="M7.89,68.44c.05,.8-.01,1.57-.64,1.36-1.21-.4-.72-1.78-1.16-2.66-.2-.39-.14-.99,.51-.9,1.52,.21,.48,1.84,1.29,2.2Z"/>
        <path class="cls-4" d="M1.5,13.92c-.11,.73,.27,1.92-.78,1.83-1.17-.1-.5-1.32-.56-2.03-.05-.55-.44-1.59,.68-1.54,1.3,.06,.37,1.2,.66,1.74Z"/>
        <path class="cls-4" d="M204.4,143.53c-.64,.93-1.79,.82-2.67,1.24-.46,.22-1.1,.06-.93-.5,.36-1.19,1.75-.83,2.57-1.41,.59-.42,.72,.23,1.04,.67Z"/>
        <path class="cls-4" d="M155.35,152.34c.7,.28,1.77-.35,1.79,.57,.02,1.28-1.21,.76-1.91,.77-.56,.01-1.61,.48-1.63-.53-.03-1.49,1.34-.24,1.75-.81Z"/>
        <path class="cls-4" d="M25.84,110.31c.57,.03,2.19,2.59,1.94,3.01-.11,.18-.37,.43-.5,.4-1-.23-1.12-1.29-1.71-1.92-.25-.27-.69-.68-.22-1.15,.15-.15,.35-.24,.49-.33Z"/>
        <path class="cls-4" d="M51.7,135.29c.82,.83,2.26,.77,2.82,1.95,.07,.16-.39,.79-.74,.62-.97-.46-2.1-.76-2.73-1.71-.21-.33,.31-.6,.65-.86Z"/>
        <path class="cls-4" d="M115.48,112.51c.57-.62-.14-2.02,1.14-2.27,.72-.14,.84,.61,.54,1.07-.51,.8,.29,2.32-1.21,2.49-.76,.09-.47-.72-.48-1.29Z"/>
        <path class="cls-4" d="M81.66,130.42c.96,.63,1.8,1.25,2.33,2.15,.17,.29-.36,.89-.57,.75-.85-.57-1.61-1.28-2.35-2-.05-.04,.36-.56,.59-.9Z"/>
        <path class="cls-4" d="M.96,37.84c.11-.69-.28-1.68,.66-1.46,1.12,.26,.69,1.47,.76,2.29,.05,.5,.37,1.47-.64,1.27-1.32-.26-.33-1.55-.79-2.09Z"/>
        <path class="cls-4" d="M31.46,117.63c.07,.65-.48,1.06-.57,1-1-.56-1.53-1.57-2.17-2.46-.3-.42,.27-.85,.46-.82,1.35,.23,1.42,1.72,2.28,2.27Z"/>
        <path class="cls-4" d="M35.54,122.49c-.21,.42-.45,.83-.84,.6-.98-.58-1.72-1.44-2.21-2.45-.16-.34,.41-.79,.62-.66,1.02,.63,1.83,1.5,2.43,2.52Z"/>
        <path class="cls-4" d="M143.3,153.39c-.63-.32-1.92,.5-1.89-.88,.02-1.03,1.1-.56,1.63-.49,.68,.08,1.95-.56,1.92,.8-.02,1.06-1.09,.32-1.66,.57Z"/>
        <path class="cls-4" d="M80.09,128.64c-.09,.6-.5,1-.72,.88-.94-.5-1.45-1.46-1.99-2.33-.16-.26,.32-.74,.69-.61,1.04,.38,1.34,1.48,2.02,2.05Z"/>
      </g>
      <g id="Layer_1-2" data-name="Layer 1-2">
        <g>
          <path class="cls-1" d="M228.83,121.41c4.89,6.32,6.66,13.41,5.17,21.28-.22,1.18-.58,2.35-1.37,3.3-1.08,1.3-2.43,1.53-3.77,.51-2.59-1.97-3.96-4.61-3.8-7.89,.15-3.17,.87-6.27,1.55-9.37,.05-.24,.09-.48,.13-.72-.22-.51,0-.99,.09-1.47,.12-.54,.26-1.08,.43-1.6,.23-1.06,.51-2.11,.81-3.15,.08-.25,.07-.53,.21-.76,.13-.21,.27-.46,.53-.12h.02Z"/>
          <path class="cls-1" d="M215.88,121.35c-1.31,.87-2.61,1.73-3.92,2.6-1.54,1.02-3.11,1.99-4.78,2.76-3,1.39-5.97,1.23-8.8-.48-1.71-1.03-1.91-2.81-.59-4.33,.93-1.07,2.05-1.9,3.27-2.6,6.42-3.68,13.2-4.53,20.34-2.57,.12,.03,.23,.09,.34,.13,.06,.5-.34,.66-.64,.9-.82,.64-1.64,1.29-2.5,1.87-.68,.55-1.37,1.06-2.12,1.52-.16,.18-.35,.28-.6,.19h0Z"/>
          <path class="cls-3" d="M220.93,117.58c.27-.24,.54-.48,.8-.72-.39-1.95-.23-3.8,1-5.45,1.37-1.83,3.16-2.8,5.49-2.65,.1,.13,.07,.28,.04,.42-.02,.12-.1,.23,0,.4,.41-.19,.36-.9,.94-.87,.72,.4,1.53,.59,2.21,1.11,.56,.43,1.15,.82,1.57,1.4,.14,.19,.29,.32,.55,.22,.18,.58-.53,.77-.54,1.28,.26,.09,.44-.21,.69-.12,.73,1.07,.74,2.29,.53,3.46-.49,2.73-2.14,4.48-4.79,5.29-.18,.06-.39,.05-.58,.07-.12-.03-.26-.15-.29,.12-.03,.28-.14,.55-.22,.83-.72,.11-1.02-.52-1.46-.86-1.48-1.18-3.01-2.27-4.76-3.03-.45-.19-1.03-.26-1.17-.89h0Z"/>
          <path class="cls-6" d="M210.73,128.78l1.05-1.91c.74-1.36,.77-1.39,2.13-.82,1.92,.81,3.81,1.68,5.5,2.92,1.47,1.08,2.77,2.33,3.82,3.82,.21,.29,.33,.59,.32,.95-.51,.89-1.26,1.59-1.82,2.43-.45,.16-.7-.17-.92-.44-1.2-1.5-2.62-2.77-4.15-3.91-1.47-1.1-3.15-1.85-4.91-2.41-.39-.12-.83-.17-1.01-.63h-.01Z"/>
          <path class="cls-6" d="M215.88,121.35c.14-.11,.28-.23,.43-.34,.45-.12,.86-.03,1.28,.17,2,.94,3.94,1.99,5.7,3.31,1.07,.8,2.13,1.64,3.02,2.66,.41,.48,.58,.94,.29,1.53-.55,.87-.86,1.87-1.47,2.7-.42,.08-.62-.22-.84-.48-1.38-1.64-2.91-3.13-4.74-4.26-1.44-.89-2.96-1.62-4.53-2.27-.39-.16-.87-.25-.98-.79,.61-.74,1.22-1.48,1.84-2.23Z"/>
          <path class="cls-6" d="M219.6,138.36c-.77,.63-1.46,1.34-2.33,1.84-.43,.05-.68-.24-.92-.51-1.88-2.14-4.22-3.58-6.86-4.6-.38-.15-.8-.28-.89-.78,.32-1.01,.64-2.02,.96-3.03,.28-.19,.59-.21,.92-.13,2.35,.57,4.42,1.7,6.26,3.25,1.02,.85,1.97,1.77,2.75,2.84,.25,.34,.49,.7,.1,1.11h.01Z"/>
          <path class="cls-3" d="M214.05,123.57c1.41,.68,2.87,1.26,4.25,2,2.48,1.32,4.59,3.08,6.34,5.27,.15,.19,.33,.36,.49,.54-.53,.79-1.06,1.58-1.58,2.37-1.47-2.12-3.24-3.93-5.45-5.28-1.66-1.01-3.43-1.78-5.23-2.52-.28-.12-.45-.06-.6,.2-.14,.26-.33,.49-.5,.73,.34-.96,1.03-1.71,1.61-2.52,.2-.28,.44-.52,.66-.78h.01Z"/>
          <path class="cls-3" d="M219.6,138.36c.13-.18,.12-.34-.03-.53-2.56-3.32-5.72-5.73-9.93-6.54h-.07c.39-.83,.66-1.72,1.16-2.51,1.82,.51,3.57,1.18,5.17,2.2,1.92,1.22,3.59,2.7,5.05,4.44,.23,.27,.4,.63,.77,.76-.7,.74-1.35,1.52-2.12,2.18Z"/>
          <path class="cls-3" d="M226.6,128.67c.21-.46-.04-.77-.32-1.09-1.64-1.86-3.62-3.29-5.75-4.52-1.35-.79-2.71-1.58-4.22-2.06,.72-.52,1.43-1.04,2.15-1.56,1.11-.11,1.93,.59,2.84,1.03,1.97,.95,3.66,2.31,5.31,3.73,.42,.36,.76,.75,.88,1.31-.25,1.01-.49,2.02-.74,3.03-.05,.05-.1,.09-.15,.14h0Z"/>
          <path class="cls-3" d="M208.6,134.31c.41,.44,1,.46,1.51,.68,2.8,1.17,5.18,2.9,7.16,5.21-.67,.66-1.5,1.05-2.34,1.43-.53-.18-.87-.62-1.26-.99-1.23-1.15-2.62-2.06-4.18-2.7-.45-.19-.89-.4-1.3-.66,.03-1,.18-1.99,.41-2.96h0Z"/>
          <path class="cls-6" d="M208.19,137.28c.12-.13,.25-.12,.4-.07,2.34,.91,4.44,2.16,6.13,4.05,.09,.11,.23,.19,.21,.37-.71,.27-1.42,.55-2.18,.65-2.23,.32-3.76-.71-4.32-2.89-.18-.69-.17-1.41-.24-2.11Z"/>
          <path class="cls-7" d="M229.21,108.72c-.21,.36-.41,.72-.63,1.08-.13,.22-.3,.42-.59,.26s-.22-.41-.1-.64c.11-.22,.23-.43,.35-.65,1.09-1.8,1.78-3.71,1.59-5.85-.05-.56-.07-1.11-.63-1.49-.29-.19-.27-.57-.09-.87,.17-.3,.45-.5,.79-.39,.32,.1,.76,.31,.66,.68-.31,1.09,.17,2.12,.09,3.2-.13,1.68-.74,3.18-1.44,4.67Z"/>
          <path class="cls-7" d="M233.68,112.6c-.16,.18-.33,.35-.49,.53-.18,.21-.37,.18-.57,.02-.19-.16-.15-.34-.02-.51,.31-.4,.62-.8,.93-1.2,1.59-1.81,3.37-3.29,5.86-3.64,.28-.04,.4-.27,.6-.4,.39-.25,.71-.08,1,.17,.29,.24,.29,.56,.12,.87-.19,.34-.52,.57-.85,.38-.95-.55-1.78-.05-2.58,.3-1.68,.74-2.97,1.97-4,3.47h0Z"/>
          <path class="cls-6" d="M227.49,125.51c-2.57-2.67-5.67-4.57-9.03-6.07,.83-.62,1.65-1.24,2.48-1.86,2.82,1.04,5.22,2.73,7.39,4.78-.28,1.05-.55,2.09-.83,3.14h0Z"/>
          <path class="cls-5" d="M230.84,116.03c-.27,.33-.62,.42-.97,.2-.36-.22-.44-.61-.22-.96,.24-.38,.63-.48,1.01-.22,.34,.24,.38,.6,.18,.97h0Z"/>
          <path class="cls-8" d="M227.04,113.49c-.27,.33-.62,.42-.96,.18-.34-.23-.43-.59-.2-.96,.25-.39,.64-.46,1.01-.2,.34,.24,.37,.6,.16,.97h0Z"/>
        </g>
      </g>
    </g>
  </g>
</svg>