<?xml version="1.0" encoding="UTF-8"?>
<svg id="Layer_2" data-name="Layer 2" xmlns="http://www.w3.org/2000/svg" viewBox="0 0 255.75 182.09">
  <defs>
    <style>
      .cls-1 {
        fill: #77c597;
      }

      .cls-2 {
        fill: #f1ab35;
      }

      .cls-3 {
        fill: #379874;
      }

      .cls-4 {
        fill: #389875;
      }

      .cls-5 {
        fill: #fff;
      }

      .cls-6 {
        fill: #479c7d;
      }

      .cls-7 {
        fill: #7cbe9e;
      }

      .cls-8 {
        fill: #b7d6c9;
      }

      .cls-9 {
        fill: #c15a89;
      }

      .cls-10 {
        fill: #f9e9d5;
      }

      .cls-11 {
        fill: #f18023;
      }

      .cls-12 {
        fill: #77c697;
      }

      .cls-13 {
        fill: #2d9270;
      }

      .cls-14 {
        fill: #5e6cb3;
      }

      .cls-15 {
        fill: #6470b5;
      }

      .cls-16 {
        fill: #fdeed8;
      }

      .cls-17 {
        fill: #5c6bb2;
      }

      .cls-18 {
        fill: #3a9a76;
      }

      .cls-19 {
        fill: #b5a5ca;
      }

      .cls-20 {
        fill: #dfe6c8;
      }

      .cls-21 {
        fill: #f1ac3a;
      }

      .cls-22 {
        fill: #f3ce1a;
      }

      .cls-23 {
        fill: #606db3;
      }

      .cls-24 {
        fill: #bf5b89;
      }

      .cls-25 {
        fill: #399474;
      }

      .cls-26 {
        fill: #47a27d;
      }

      .cls-27 {
        fill: #4f997d;
      }

      .cls-28 {
        fill: #439d7a;
      }

      .cls-29 {
        fill: #f9fcfa;
      }

      .cls-30 {
        fill: #efab37;
      }

      .cls-31 {
        fill: #c4dad1;
      }

      .cls-32 {
        fill: #5d6bb2;
      }

      .cls-33 {
        fill: #fbebd7;
      }

      .cls-34 {
        fill: #f0ab3a;
      }

      .cls-35 {
        fill: #fcedd7;
      }

      .cls-36 {
        fill: #6a70ab;
      }

      .cls-37 {
        fill: #ece9d0;
      }

      .cls-38 {
        fill: #e285b3;
      }

      .cls-39 {
        fill: #3c9c77;
      }

      .cls-40 {
        fill: #399a75;
      }

      .cls-41 {
        fill: #2c926f;
      }

      .cls-42 {
        fill: #f2ab2c;
      }

      .cls-43 {
        fill: #f0ab36;
      }

      .cls-44 {
        fill: #3b9b76;
      }

      .cls-45 {
        fill: #e086b3;
      }

      .cls-46 {
        fill: #f9c7b9;
      }

      .cls-47 {
        fill: #8fa695;
      }

      .cls-48 {
        fill: #f9e9d6;
      }

      .cls-49 {
        fill: #646daf;
      }

      .cls-50 {
        fill: #5b6bb2;
      }

      .cls-51 {
        fill: #77c596;
      }

      .cls-52 {
        fill: #3e9c78;
      }

      .cls-53 {
        fill: #f1ac3b;
      }

      .cls-54 {
        fill: #4ca37e;
      }

      .cls-55 {
        fill: #c15989;
      }

      .cls-56 {
        fill: #48a07c;
      }

      .cls-57 {
        fill: #e3e7ca;
      }

      .cls-58 {
        fill: #f2aa28;
      }

      .cls-59 {
        fill: #679c82;
      }

      .cls-60 {
        fill: #6d76b8;
      }

      .cls-61 {
        fill: #41a07a;
      }

      .cls-62 {
        fill: #fae9d6;
      }

      .cls-63 {
        fill: #f2ab31;
      }

      .cls-64 {
        fill: #dab5c5;
      }

      .cls-65 {
        fill: #429f79;
      }

      .cls-66 {
        fill: #76c496;
      }

      .cls-67 {
        fill: #2c916f;
      }

      .cls-68 {
        fill: #f3ce19;
      }

      .cls-69 {
        fill: #f0ac39;
      }

      .cls-70 {
        fill: #409d79;
      }

      .cls-71 {
        fill: #75c395;
      }

      .cls-72 {
        fill: #75c496;
      }

      .cls-73 {
        fill: #5d6cb3;
      }

      .cls-74 {
        fill: #f2ab29;
      }

      .cls-75 {
        fill: #fbebd2;
      }

      .cls-76 {
        fill: #f9c6b9;
      }

      .cls-77 {
        fill: #f17e23;
      }

      .cls-78 {
        fill: #5a6ab2;
      }

      .cls-79 {
        fill: #f2ab2b;
      }

      .cls-80 {
        fill: #e284b3;
      }

      .cls-81 {
        fill: #5b9880;
      }

      .cls-82 {
        fill: #7ac799;
      }

      .cls-83 {
        fill: #f8e5d3;
      }

      .cls-84 {
        fill: #c15889;
      }

      .cls-85 {
        fill: #459f7b;
      }

      .cls-86 {
        fill: #f1ab38;
      }

      .cls-87 {
        fill: #409e79;
      }

      .cls-88 {
        fill: #f2ab2a;
      }

      .cls-89 {
        fill: #fcecd7;
      }

      .cls-90 {
        fill: #606cb2;
      }

      .cls-91 {
        fill: #339673;
      }

      .cls-92 {
        fill: #666eae;
      }

      .cls-93 {
        fill: #78c497;
      }

      .cls-94 {
        fill: #3e9b78;
      }

      .cls-95 {
        fill: #f2ce22;
      }

      .cls-96 {
        fill: #e1d4d9;
      }

      .cls-97 {
        fill: #5d6cb2;
      }

      .cls-98 {
        fill: #f1ab37;
      }

      .cls-99 {
        fill: #5b6ab2;
      }

      .cls-100 {
        fill: #78c697;
      }
    </style>
  </defs>
  <g id="Layer_1-2" data-name="Layer 1">
    <g>
      <path class="cls-46" d="M63.27,88.31c-.98,2.02-.41,4.17-.39,6.24,.02,2.58-.67,4.85-1.77,7.13-2.27,4.69-5.73,7.03-11.05,6.14-.73-.12-1.59-.54-2.18-.3-3.97,1.62-7.6,1.87-10.84-1.62-.61-.66-1.59,.34-2.39,.63-3.65,1.31-6.2,.33-8.09-3.11-3.39-6.19-.95-12.04,1.11-17.86,.74-2.09,1.91-4.02,3.22-6.69-3.96,1.91-6.46,4.9-9.97,6.29-2.7,1.07-5.33,2.08-8.28,1.72-4.37-.53-7.42-3.65-7.32-7.93,.06-2.6-.64-4.52-2.65-6.17-2.75-2.26-3.53-4.99-1.55-8.23,.78-1.28,1.22-2.61,.89-4.24-.97-4.81,.29-7.33,4.79-9.63,9.34-4.76,18.65-3.82,27.91,.34,.31,.14,.59,.5,1.09-.08-2.21-2.57-4.55-5.09-6.67-7.78-4.49-5.71-8.08-11.91-9.82-19.04-1.26-5.16,.12-8.91,4.82-11.13,3.68-1.74,6.2-4.06,7.96-7.8C34.54-.04,39.84-.97,44.51,2.63c2.61,2.01,5.22,3.64,8.71,3.64,8.58,.01,12.92,4.53,13.33,13.21,.25,5.27-1.74,9.97-3.25,14.8-.84,2.68-1.77,5.33-2.95,8.85,2.8-2.34,4.58-4.33,6.31-6.43,3.5-4.25,7.57-7.94,12.48-10.45,1.64-.84,2.41-1.83,2.81-3.41,3,1.99,4.92,5.36,8.48,6.65,3.78,1.09,5.77,3.48,5.52,7.54-.06,.96-.1,1.96,.43,2.86,1.43,2.38,3.96,4,4.71,6.85,.93,5.75-1.89,10.04-7.9,12.03-1.3,.43-2.63,.72-4,.74-2.56-.09-5.14,.12-7.71-.16-.5-.05-.86-.07-.37-.03,.03,0,.05,.11,.11,.17,1.09,.31,2.04,.85,3.06,1.27,4.58,2.21,9.16,4.43,13.45,7.2,1.77,1.45,3.07,3.28,4.05,5.3,1.96,4.04,.89,7.88-2.89,10.26-1.39,.88-2.29,1.87-2.19,3.57,.05,2.58-1.25,4.15-3.64,4.91-1.33,.47-2.32,1.31-3.2,2.42-4.31,5.46-8.56,6.58-14.99,3.99-2.08-.83-4.02-1.94-5.85-3.22-2.53-1.78-3.51-4.84-5.73-6.88Z"/>
      <path class="cls-76" d="M69.55,181.01c-2.54,.91-4.91,.08-7.28-.72-3.71-3.4-8-5.68-12.96-6.67-2.12-1-3.81-2.49-5.11-4.44,2.89-1.37,5.42,1.01,8.32,.62-1.06-2.37-2.79-4.14-5.03-5.65-4.39-2.96-8.84-5.89-12.31-9.99-1.07-1.89-2.01-3.84-2.16-6.06,3.01,.55,4.58,3.18,6.86,4.79,1.59,1.12,2.94,2.57,4.85,3.64-.53-3.12-2.26-5.23-4.18-7.36-3.63-4.03-7.64-7.8-9.84-12.93,.14-2.01-1.09-3.86-.65-5.91,1.08-.18,1.56,.65,2.05,1.33,2.82,3.92,5.84,7.69,8.11,10.66-.63-5.94-4.31-11.7-8.39-17.25-.69-.94-.77-2.06-1.16-3.08-.11-1.3-.04-2.56,.82-3.65,3.09,.7,3.32,4.05,5.68,6.02,.01-3.02-.04-5.8,.02-8.57,.03-1.45-.3-3.03,1.04-4.17,1.2-.11,2.28-1.23,3.58-.4,.42,4.55-1.24,9.06-.1,13.53,.56-2.85,2.07-5.46,3.43-8.12,.36-.71,.82-1.62,1.96-1.23,.97,.72,1.38,1.71,1.45,2.87-.13,3.11-1.76,5.7-3.18,8.26-2.31,4.16-3.04,8.33-1.52,12.85,.31,.91,.11,1.91,.49,2.88-.02,.42,.7-.47,.28-.2-.18,.11-.3,0-.21-.3,1.64-5.78,2.98-11.67,6.7-16.61,.57,1.8,1.28,3.56,1.2,5.5-.58,4.61-2.61,8.79-4.23,13.04-1.65,4.33-.69,7.93,1.56,11.75,2.53-3.43,1.77-8.17,5.13-10.95,1.13,1.86,.12,4.12,1.13,5.99-.55,1.39-.45,2.92-.93,4.32-1.7,4.95-2.17,9.69,2.36,13.45,.09-.13-.02-.65,.19-1.06,.29-.57,.6-1.07,1.33-1.09,1.27,.99,1.4,2.44,1.57,3.87-.45,2.45,.94,4.17,2.35,5.89,.83,1.05,1.67,2.11,2.5,3.16,4.41-1.37,6.14-3.54,6.44-8.09,.87-2.37,.67-5.38,3.79-6.42,1.45,1.74,.83,3.71,.64,5.81,1.7-1.33,2.34-3,1.95-4.97-.55-2.78-.45-5.64-1.12-8.41,.16-2.37,.35-4.72,2.1-6.57,2.01,.04,1.74,1.77,2.05,2.93,.79,2.96,.65,6.07,1.41,9.26,1.15-1.3,1.3-2.68,.99-4.15-1.09-5.18-1.69-10.46-2.86-15.63,.31-2.98,.11-6.14,3-8.17,1.65,1.72,1.06,4,1.41,6.02,.85,4.85,1.89,9.69,2.36,14.22,2.63-3.45,3.01-7.64,1.74-12.25-1.45-5.25-1.57-10.81-3.5-15.98,.42-2.84,.1-6.02,3.42-7.56,1.82,4.4,1.87,9.17,2.91,13.74,.59,2.61,1.09,5.24,1.59,7.64,2.47-4.91,.89-10.03,.14-15.16-.59-4.04-1.74-7.99-1.72-12.12,.54-1.43,1.2-2.71,3.09-2.37,2.56,3.89,2.22,8.45,2.87,12.78,.1,.66-.1,1.37,.14,1.93,.05-5.43,1.55-10.63,2.44-15.92,1.58-1.05,2.57-.01,3.57,1.01,.55,4.75-.56,9.29-1.86,13.81-.16,.47,.54,.23,.05,.19-.08,0-.1-.14,.01-.37,1.4-2.82,2.08-6.14,5.29-7.73,1.65,.38,1.77,1.7,1.89,3.03-1.89,4.46-4.64,8.45-7.1,12.59-1.84,3.1-3.56,6.24-4.6,10.09,2.81-2.76,5.33-5.42,8-7.91,.97-.9,1.78-2.55,3.63-1.53,.4,1.89,0,3.62-.98,5.25-5.69,5.81-12.25,10.85-17.19,18.48,2.91-1.43,4.73-2.93,6.75-4.12,1.11-.66,2.11-1.88,3.67-1.05-.72,2.73-2.93,4.43-4.55,6.53-3.78,3.15-8.55,4.91-11.97,8.71,1.12,.52,2.68-.14,3.66,1-.69,1.63-2.13,2.59-3.38,3.72-1.89-.13-3.57,.36-5.16,1.43-1.56,1.05-1.68,2.1-.4,3.39-.66,1.05-1.78,1.44-2.83,1.95-2.83,.2-4.92,2.25-7.52,3Z"/>
      <path class="cls-100" d="M134.68,93.74c-.48,8.14-1.98,16.19-5.48,23.45-1.84,3.84-1.83,7.43-2.17,11.26-.57,6.29-1.74,12.48-3.01,18.86,6.5-6.47,11.87-14.03,19.39-19.4,1.46-.37,1.98,.67,2.51,1.68-7.43,8.69-14.74,17.47-19.64,27.94-.4,.85-1.2,1.59-.82,3.23,5.06-3.65,10.28-6.63,15.53-9.56,1.47,.57,1.84,1.62,1.34,3.05-5.76,3.41-11.58,6.71-17,10.7-2.74,2.01-4.15,4.45-4.8,7.59-.4,1.94-.71,3.92-1.38,5.78-.9,2.5-2.96,3.31-5.43,2.68-2.66-.67-3.55-2.7-2.99-5.18,.54-2.41,1.07-4.97,2.32-7.03,3.97-6.49,2.48-12.81-.05-19.17-1.28-3.22-2.68-6.41-4.7-9.27,.55-1.86,1.75-2.5,3.6-1.89,3.06,3.57,4.44,7.98,6.09,12.28,4.9-10.11,5.83-29.44,2.17-44.97,.87-1.07,1.8-2.04,3.39-1.67,1.66,2.47,2.81,5.14,3.42,7.94,1.34-4.79,2.3-9.81,3.17-14.85,.24-1.41,.35-2.97,1.69-3.97,1.06-.39,2.05-.42,2.86,.53Z"/>
      <path class="cls-67" d="M141.42,98.86c1.24-5,3.3-9.61,6.53-13.66,.79,.11,1.41,.54,1.9,1.1,4.86,5.52,11.4,6.78,18.25,7.11,10.92,.53,18.21,5.68,23.16,16.99-.04,1.21-.74,2.1-1.51,2.94-.24,.27-.52,.52-.77,.78-1.54,1.58-3.84,2.78-4.49,4.75-.74,2.23,2.4,3.04,3.21,4.92,.2,.46,.34,.91,.26,1.41-.74,1.25-1.55,.51-2.35,.09-4.63-2.35-7.69-5.98-10.43-10.47-3.52-5.76-9.28-8.7-16.29-9.13-4.19-.25-8.46-.56-12.43-2.27-2.21-.95-4.33-1.99-5.05-4.57Z"/>
      <path class="cls-13" d="M206.26,89.16c.16,4.79-1.69,9.62,.64,14.44,1.77-.09,1.62-3,3.59-3.29,.95,1.3,.06,2.34-.68,2.97-2.82,2.39-2.99,5.4-2.68,8.76,1.19,13.28,1.11,26.57-.15,39.85-.65,1.18,.37,2.21,.33,3.33,.08,.66,.14,1.32-.18,1.94-2.23,5.71-2.15,11.92-3.77,17.76-.62,2.21-1.02,4.49-2.79,7.17-.71-4.74,.95-8.31,1.69-11.93,1.65-8.06,2.22-16.24,3.2-24.38,.09-.77,.09-1.49-.56-2.05-1.01-.88-2.37-1.45-2.65-2.98,.07-.54,.35-.91,.85-1.13,.33-.07,.65-.04,.97,.05,.38,.19,.69,.57,1.18,.37,.02-7.01,.56-14-.34-20.96-.46-2.89-.44-5.82-.83-8.73-.32-2.38-.91-4.5-2.43-6.35-.39-1.28,.66-1.91,1.23-2.75,.5-1.4,.5-2.78-.19-4.11-.9-1.09-1.33-.38-1.81,.42-.9,1.52-1.29,3.35-2.76,4.53-.37,.09-.72,.05-1.08-.08-.91-.49-1.56-1.25-2.06-2.1-4.13-7.04-10.83-10.25-18.31-12.32-5.25-1.45-10.74-2.16-15.68-4.56-2.55-1.23-5.72-2.05-6.17-5.67,3.4-2.8,6.93-5.39,11.06-7.03,1-.23,1.67,.35,2.22,1.02,3.6,4.39,8.59,6.19,13.87,7.22,7.99,1.56,15.69,3.62,21.79,9.46,.92,.19,1.83,.4,2.49,1.14Z"/>
      <path class="cls-67" d="M95.84,86.97c-.3-1.85-.09-3.22,2.02-4.13,4.2-1.8,5.1-4.72,3.26-8.93-.97-2.22-2.67-3.81-4.25-5.53-.23-1.44,.83-2.27,1.56-3.24,1.49-1.99,3.2-3.83,4.62-5.87,6.79-9.74,16.74-11.74,27.68-11.39,1.33,.04,2.41,.53,3.19,1.63,1.59,5.1,2.37,10.31,2.31,15.66,.49,2.46-1.35,1.84-2.54,1.8-3.08-.11-6.08-.6-9.24-.17-6.15,.84-10.94,3.82-14.92,8.31-2.96,3.33-5.52,7.04-8.89,10-1.33,1.17-2.58,2.86-4.81,1.86Z"/>
      <path class="cls-100" d="M141.42,98.86c4.83,5.32,11.48,5.42,17.84,5.91,8.94,.69,15.04,5.29,18.99,12.95,1.13,2.2,1.82,4.2,4.75,4.44,1.53,.13,2.42,1.6,3.24,2.86-1.19,2.48-2.78,.09-4.15,.35-1.51-.5-3.18-.26-4.65-.94,1.07,.49,2.24,.55,3.41,.67,2,.39,3.9,1.13,5.99,1.15,1.29,.01,2.69,.29,3.26,1.82-2.56,2.74-5.91,2.15-9.09,2.07-2.28-.06-4.46-1.21-6.81-.75-1.68-2.43-3.54-4.32-6.74-2.28-.94-.66-1.54-1.59-2.07-2.59-3.01-5.69-7.86-8.59-14.09-9.83-3.82-.76-7.97-.59-11.34-3.08-.37-4.35-.19-8.63,1.47-12.74Z"/>
      <path class="cls-100" d="M154.82,77.35c2.78,3.91,7.06,5.27,11.32,6.59,5.2,1.62,10.58,2.51,15.75,4.34,7.09,2.51,12,7.23,15.45,13.72-.46,4.23-2.66,7.2-6.52,8.96-3.29-6.7-7.5-12.56-14.86-15.25-4.57-1.68-9.52-1.14-14.24-2.03-5.72-1.08-10.54-3.44-13.77-8.47,1.73-3.11,3.81-5.91,6.87-7.85Z"/>
      <path class="cls-100" d="M95.84,86.97c4.1-1.21,6.31-4.65,8.89-7.62,3-3.46,5.6-7.33,9.57-9.82,5.09-3.2,10.58-4.53,16.66-3.77,1.63,.2,3.8,1.77,5.28-.59,.88,1.34,.37,2.87,.59,4.3-.23,1.86-1.53,2.29-3.11,2.21-1.36-.07-2.65-.04-3.67,1.03-3.8,2.3-5.59,6.06-7.21,9.94-6.06,2.34-10.93,6.18-14.82,11.39-1.64,2.19-3.87,3.82-6.31,5.12-4.2-1.25-7.54-3.54-9.3-7.73,2.02-.81,3.84-1.78,3.44-4.45Z"/>
      <path class="cls-100" d="M133.93,49.52c-9.82-1.9-22.9-.21-30.34,10.51-2.03,2.93-4.46,5.58-6.71,8.36-4.38-2.34-8.75-4.67-13.12-7.01,.09-1.78,1.64-1.77,2.78-2.28,.75-.31,1.59-.02,2.34-.34,4.63-.55,8.72-1.95,10.86-6.63,.81-1.76,1.1-3.52,.6-5.39,7.23-6.18,15.02-10.96,25.1-10.1,1.35,.12,2.75-.06,3.86,.96,2.55,3.58,3.84,7.66,4.63,11.92Z"/>
      <path class="cls-67" d="M89.69,30.13c-3.31-1.66-5.99-3.98-7.74-7.29,1.01-7.61,.72-15.08-2.75-22.84,11.78,1.98,21.65,6.94,30.69,13.81,.27,1.29-.67,1.8-1.57,2.14-4.91,1.83-8.36,5.52-11.91,9.13-1.98,2.02-3.95,4.08-6.72,5.05Z"/>
      <path class="cls-100" d="M207.79,153.18c7.88-20.47,17.38-39.85,35.86-53.17,2.81-2.02,5.68-3.99,9.04-5.04,.63,2.29-1.63,2.95-2.49,4.4-9.19,10.87-17.13,22.61-24.64,34.67-2.24,3.59-5.02,6.8-7.25,10.4-.54,.64-1.11,1.26-1.57,1.98-.56,.85-1.2,1.63-1.93,2.33-2.48,1.52-3.37,4.56-5.82,6.11-.66,.41-1.1,1.53-2.14,.65-.27-1.01,.28-1.69,.94-2.33Z"/>
      <path class="cls-67" d="M177.24,65.34c2.75-1.46,5.79-2.38,8.23-4.41,1.69-2.45,4.09-3.62,6.99-3.9,2.68-1.42,.25-3.13,.26-4.69,.1-.98,.62-1.5,1.63-1.46,.66,.4,.74,1.27,1.36,1.68,1.02-.12,1.26-1.09,1.85-1.65,1.03-.98,1.9-2.59,3.54-2.08,1.84,.58,1.68,2.39,1.6,3.98,.75,3.16,1.49,6.32,2.24,9.48,2.44,3.16,1.2,7.14,2.38,10.58-.53,1.47-1.07,2.95-1.6,4.42-1,.66-1.94,.27-2.78-.27-4.28-2.77-9.13-3.81-14.02-4.77-3.31-.65-6.53-1.6-9.4-3.43-1.22-.78-2.58-1.63-2.27-3.48Z"/>
      <path class="cls-100" d="M177.24,65.34c2.53,3.93,6.79,4.97,10.84,5.72,6.26,1.15,12.18,2.94,17.63,6.23,.07,.21,.1,.43,.11,.65,.39,3.89-.02,7.6-2.34,10.91-6.72-6.28-15.24-8.04-23.85-9.83-5.54-1.14-10.29-4.03-13.75-8.7,3.55-2.2,7.37-3.77,11.36-4.98Z"/>
      <path class="cls-67" d="M129.3,37.59c-10.17-1.07-19.08,1.78-26.73,8.55-.69,.62-1.28,1.16-2.23,.58-.64-2.79-3.74-3.73-4.71-6.27-.53-.93-.12-1.81,.5-2.36,5.73-5.09,10.74-11.15,18.33-13.76,1.98-.68,3.97-1.67,6.05-.29,3.56,4.11,6.72,8.47,8.79,13.54Z"/>
      <path class="cls-41" d="M139.95,111.61c6.89,1.75,14.36,1.36,20.53,5.73,3.47,2.46,5.79,5.69,6.98,9.76-6.9,3.2-14.28,2.25-21.53,2.5-1.21,0-1.64-1.17-2.51-1.68-1.43-5.38-3.51-10.62-3.46-16.31Z"/>
      <path class="cls-68" d="M122.59,82.32c.53-4.64,3.03-7.93,7.01-10.2,2.95,.53,4.56,2.55,5.67,5.12,2.46-1.23,4.96-1.92,7.61-.53,.22,.11,.42,.26,.61,.41,3.96,7.82,.53,14.3-8.81,16.63-1.05-.05-2.09-.1-3.14-.14-.3,.29-.65,.39-1.05,.31-6.08-2.63-8.79-6.6-7.9-11.59Z"/>
      <path class="cls-100" d="M120.51,24.05c-4.67,0-8.73,1.98-12.32,4.6-4.65,3.39-8.99,7.22-12.56,11.81-.64-.57-.64-1.34-.54-2.06,.64-4.36-1.13-7.12-5.4-8.27,6.39-5.29,11.1-12.7,19.5-15.48,.29-.1,.47-.55,.7-.83,4.01,2.92,7.96,5.91,10.62,10.24Z"/>
      <path class="cls-78" d="M72.43,171.47c-.26,4.96-3.36,8.22-7.15,7.52,2.16-1.07,1.45-3.35,1.69-4.95,3.07-20.07,5.14-40.22,2.49-60.52-1.12-8.62-3.1-17.07-6.2-25.22,2.17-.57,1.97,1.72,2.95,2.57,1.05,.9,1.69,2.27,2.51,3.43,3.16,6.92,3.88,14.38,4.74,21.78,2.04,17.56,.56,35.02-1.87,52.43-.14,1-1.34,2.51,.82,2.95Z"/>
      <path class="cls-22" d="M142.33,154.25c-.45-1.02-.9-2.03-1.34-3.05-.7-5.41,1.38-8.15,6.97-9.16,.51,.09,1.17,.35,1.19,.76,.22,3.95,3.93,4.29,6.22,6.09-.73,7.55-6.04,9.74-13.04,5.37Z"/>
      <path class="cls-78" d="M54.77,144.47c-1.48,4.39-2.96,8.78-4.72,13.99-2.17-5.09-5.68-8.9-3.05-14.5,2.02-4.31,2.9-9.13,5.31-13.32,1.38,4.51,1.94,9.17,2.46,13.84Z"/>
      <path class="cls-91" d="M217.51,144.36c10.51-15.33,19.74-31.55,32.2-45.5,.28-.29,.6-.32,.94-.13,.66,.68,1.01,1.47,.81,2.43-.65,1.42-2.63,1.42-3.18,2.95-.61,.76-.39,1.76-.74,2.6-1.99,2.11-5.51,2.88-5.67,6.56,.05,.34,.03,.67-.07,.99-1.78,1.61-4.2,2.56-5.06,5.01,1.26-.45,2.55-1.26,4.08-.77,.51,.23,.86,.58,.9,1.17-1,2.01-3.18,2.09-4.89,2.9-1.72,.82-3.48,1.48-4.55,3.36,.74-.19,1.34-.25,1.95-.16,.72,.17,1.36,.43,1.48,1.29-.97,1.7-2.84,1.77-4.4,2.37-2.28,.89-3,2.03-.85,3.85-.84,2.38-3.74,1.47-4.92,3.17,1.09-.11,2.28-.55,3.51-.24,.71,.21,1.35,.49,1.42,1.36-1.86,2.55-5.25,1.6-7.63,3.34,1.5,.64,3.82-1.61,4.5,1.3-.48,.26-.95,.52-1.43,.78-2.68,1.07-5.19,2.72-8.28,2.36-.37-.3-.41-.63-.12-1Z"/>
      <path class="cls-99" d="M51.11,125.13c-2.21,5.97-4.42,11.94-6.84,18.47-1.88-5.71-3.84-10.72-.43-16.08,1.85-2.91,3.15-6.16,4.7-9.26,1.62,2.01,1.84,4.54,2.57,6.88Z"/>
      <path class="cls-99" d="M35.18,154.15c6.7,3.49,16.73,12.31,19.11,16.86-3.5-.09-6.75-1.2-10.08-1.83-4-4.41-7.41-9.18-9.02-15.02Z"/>
      <path class="cls-99" d="M30.71,136.23c4.23,4.83,8.08,9.98,12.56,14.61,1.82,1.88,2.58,4.66,3.29,8.05-5.46-3.12-9.2-7.35-13.55-10.8-1.38-3.84-2.23-7.78-2.31-11.86Z"/>
      <path class="cls-99" d="M101.69,151.28c-3.97,1.86-7.25,4.96-11.97,6.82,4.29-8.97,11.57-14.45,18.13-20.55,.9,1.32,.29,2.27-.77,3.11-1.61,3.64-2.68,7.55-5.39,10.63Z"/>
      <path class="cls-17" d="M30.66,121.98c4.7,6.72,10.28,13.02,10.24,22.16-4.2-4.25-7.35-9.17-10.85-13.82-.11-2.8-.59-5.63,.6-8.35Z"/>
      <path class="cls-38" d="M171.72,12.16c-2.67-.77-5.15-1.94-6.53-4.47-1.27-2.33-1.56-4.82,1-6.56,2.62-1.78,4.57,.04,5.95,1.89,1.85,2.46,2.17,5.41,1.2,8.41-.31,.74-.69,1.34-1.62,.74Z"/>
      <path class="cls-77" d="M143.49,77.12c-1.76,.42-4.24-1.1-4.94-.41-3.44,3.36-4.56,2.32-5.49-1.81-.22-.98-2.94-.97-3.46-2.79,.46-1.83,2.08-1.82,3.23-1.45,1.78,.58,2.81-.35,4-1.2,.82-.23,1.63-.5,2.46-.69,.9-.2,1.99-.91,2.64,.22,.51,.88-.28,1.66-.89,2.2-1.23,1.1-.29,1.58,.48,2.18,1.22,.95,1.93,2.17,1.97,3.74Z"/>
      <path class="cls-95" d="M107.08,140.65c.25-1.03,.51-2.07,.77-3.1,.39-1.75,.79-3.51,1.18-5.26-1.63-3.45-1.14-6.98-.43-10.52,.63-1.04,1.48-.7,2.21-.23,5.88,3.76,5.98,14.57,.44,16.84-.98,.66-1.97,1.32-2.95,1.98-.4,.1-.81,.2-1.21,.3Z"/>
      <path class="cls-9" d="M194.07,51.04c-.45,.44-.91,.87-1.36,1.31-4.77-.72-6.5-5.02-4.1-10.18,.64-.73,1.24-1.59,2.41-.87,1.17-.02,2.19,.42,3.15,1.03,.83,.11,.96,.78,1.13,1.42,.19,1.2,.38,2.41,.57,3.61,.83,.84,.59,1.68,.03,2.54-.49,.58-1,1.12-1.83,1.14Z"/>
      <path class="cls-51" d="M230.29,133.24c-1.13-.05-2.52-.32-2.43-1.52,.09-1.21,.72-2.58,2.33-2.98,1.78-.44,3.52-1.04,5.28-1.57,.94-1.68,2.9-1.7,4.3-2.64,1.23-.57,2.44-1.18,3.65-1.81,2.26-.67,3.64-3.24,6.35-2.93-.74,2.32-2.11,4.25-3.73,6.02-2.89,3.18-7.03,3.97-10.7,5.66-.78,.34-1.4,.94-2.09,1.43-.95,.41-1.89,.93-2.96,.34Z"/>
      <path class="cls-55" d="M175.36,13.84c1.64-3.57,3.66-4.76,6.05-3.55,2.53,1.28,3.08,4.74,1.07,7.68-.81,1.19-1.97,2.15-2.97,3.21-.51,.47-1.06,.4-1.62,.1-.77-1.32-1.54-2.64-2.31-3.97-.29-1.15-.91-2.27-.22-3.48Z"/>
      <path class="cls-9" d="M195.53,38.86c-1.29-1.88-2.14-3.87-2.05-6.23,.07-1.93,.79-3.32,2.56-4.16,1.4-.66,2.65-.45,3.81,.5,1.59,1.3,2.29,3.02,1.72,4.96-.68,2.32-2.08,4.21-4.38,5.28-.66,.41-1.29,.61-1.67-.34Z"/>
      <path class="cls-80" d="M187.45,39.68c-1.37,2-3.44,2.76-5.7,3.12-2.03,.32-3.73-.37-4.83-2.1-.95-1.51-.78-3.11,.31-4.51,1.32-1.68,3.19-1.88,5.08-1.44,1.18,.27,2.27,.98,3.4,1.49,1.79,.54,2.26,1.74,1.74,3.44Z"/>
      <path class="cls-55" d="M174.89,26.96c-2.96,1.79-5.17,.07-7.25-1.68-1.51-1.27-2.1-3.05-1.43-5,.53-1.55,1.83-2.31,3.41-2.4,2.01-.12,3.63,.82,4.55,2.53,.62,1.15,.76,2.56,1.12,3.85,.2,.95,.56,1.92-.4,2.7Z"/>
      <path class="cls-38" d="M181.67,24.27c.89-2.81,2.46-4.89,5.69-3.62,2.89,1.14,3.39,3.64,2.65,6.51-.32,1.23-.78,2.34-1.55,3.34,.07,.41-.08,.72-.45,.92-.68,.36-1.4,.57-2.18,.53-2.56-1.92-4.9-3.97-4.17-7.68Z"/>
      <path class="cls-12" d="M240.7,118.99c-1.72,.5-3.44,.99-5.56,1.6,1.28-3.43,3.38-5.51,6.36-6.78,3.12-2.41,6.84-3.82,10.13-5.95,.72-.46,1.58-.72,2.41-.11,0,1.65-.71,3.09-1.33,4.56-2.31,2.12-4.98,3.69-7.71,5.19-1.35,.74-2.8,1.21-4.31,1.49Z"/>
      <path class="cls-84" d="M216.94,93.75c-.04,2.93-3.12,6-6.04,5.93-2.84-.07-2.47-2.29-2.48-4.07-.02-3.54,2.34-6.58,4.93-6.24,2.38,.32,3.69,1.86,3.59,4.38Z"/>
      <path class="cls-12" d="M233.99,126.49c-.96,.17-1.92,.34-2.87,.51q1.32-3.61,5.9-5.41c1.49-.59,2.96-1.25,4.44-1.88,.9-1.4,2.51-1.73,3.81-2.54,2.6-.74,4.16-3.68,7.23-3.44-.68,1.75-1.35,3.5-2.03,5.25-2.89,.63-4.68,3.22-7.4,4.15-1.22,.6-2.48,1.13-3.69,1.76-1.62,1.12-3.61,1.03-5.39,1.6Z"/>
      <path class="cls-17" d="M58.86,166.07c-.48,1.12-.96,2.23-1.45,3.36-5.87-5.55-6.24-10.29-1.5-18.96,.98,5.2,1.97,10.4,2.95,15.6Z"/>
      <path class="cls-25" d="M181.67,24.27c.63,2.96,2.01,5.46,4.53,7.23,1.14,1.44,.95,3.43,2.04,4.85-.58-1.7-1.93-3.31-.89-5.32,.37-.18,.74-.36,1.12-.54,1.75,3.38,1.93,7.14,2.55,10.79-.8,.29-1.6,.58-2.41,.87-.39-.83-.78-1.66-1.16-2.49-.19-1.35-.82-2.48-1.75-3.45-.94-6.19-6.28-7.26-10.81-9.27,.13-.9,.27-1.8,.4-2.7,1.52,1.27,3.27,1.95,5.25,2.34,.11-1.38-1.51-1.84-1.15-3.08-.4-.82,.05-.91,.71-.82,.52,.52,1.05,1.05,1.57,1.57Z"/>
      <path class="cls-97" d="M38.22,111.61v15.12c-.24,.08-.49,.16-.73,.24-2-2.88-4.01-5.76-6.01-8.64,1-3.49,3.15-5.83,6.74-6.72Z"/>
      <path class="cls-32" d="M47.09,115.38c-1.88,3.54-3.75,7.07-5.94,11.2-.95-5.62-1.2-10.53,.65-15.38,2.31,.69,4.23,1.9,5.29,4.17Z"/>
      <path class="cls-1" d="M184.5,135.66c-2.14-2.28-5.55-2.74-7.51-5.27,2-1.85,4.27-.18,6.4-.49,2.93-.43,5.89-.61,8.86-.53,.66,.16,1.25,.46,1.67,1.01,.94,2.14-.03,3.24-2.05,3.86-2.03,.62-4.12,.89-6.19,1.23-.39,.04-.78,.1-1.17,.18Z"/>
      <path class="cls-9" d="M207.32,72.88c-1.08-.12-1.72-.52-1.77-1.81-.11-2.93-.4-5.85-.61-8.78,2.59-.96,4.68-.46,5.88,2.19,1.28,2.84-.23,6.35-3.5,8.39Z"/>
      <path class="cls-11" d="M155.37,148.89c-.91,.67-2.06,.91-2.45-.27-.89-2.71-3.84-.16-4.48-1.71-.57-1.38,1.61-3.36-.49-4.86,.24-.87,.35-2.69,1.51-1.73,2.39,1.99,5.76,1.29,8.37,3.63-3.06,.75-2.47,2.96-2.47,4.94Z"/>
      <path class="cls-72" d="M230.29,133.24c.93-.51,1.9-.87,2.98-.75,.8-.77,1.78-1.21,2.84-1.51,2.62-.47,4.66-2.87,7.59-2.28-1.16,2.3-3.28,3.68-5.12,5.32-3.42,.51-6.22,3.07-9.84,2.9-1.52,.22-3.05,.44-4.63,.67,.59-3.8,4.2-2.87,6.18-4.35Z"/>
      <path class="cls-73" d="M88.83,167.52h-5.18c3.47-5.31,8.42-7.59,13.49-9.7-2.04,3.86-5.2,6.76-8.31,9.7Z"/>
      <path class="cls-45" d="M203.48,88.85c.78-3.64,1.56-7.27,2.34-10.91,4.71,2.91,4.79,5.1,.44,11.22-.94-.02-1.91,.31-2.78-.31Z"/>
      <path class="cls-71" d="M241.5,113.03c-1.08-.04-1.14-.4-.57-1.29,1.61-2.52,3.72-4.4,6.51-5.5,1.94-2.3,4.26-3.62,7.39-2.96-.23,1.28,.62,2.71-.53,3.87-3.87,.89-6.76,3.76-10.39,5.16-.8,.31-1.51,.79-2.41,.72Z"/>
      <path class="cls-9" d="M192.45,57.04c-2.33,1.3-4.66,2.6-6.99,3.9-2.04-2.18-2.69-4.49-.07-6.59,2.36-1.89,4.96-.81,7.06,2.69Z"/>
      <path class="cls-45" d="M195.17,49.52c.82-.53,.67-1.38,.71-2.17,2.09-.92,4.2-2.77,6.46-.58,1.84,1.79,1.86,3.92,.36,6.03-.88-1.19-.66-2.92-2.04-4.08-1.37,1.63-2.72,3.24-4.08,4.83-.62,.73-1.29,1.44-1.58-.23-.23-1.28-.49-2.57,.18-3.81Z"/>
      <path class="cls-1" d="M193.62,139.14c-2.9-1.52-5.95-2.67-9.12-3.49,.09-.09,.18-.17,.28-.25,3.88-.55,7.66-1.67,11.55-2.19,1.09,.26,1.88,.87,2.29,1.94,.24,1.06-.05,1.95-.83,2.69-.59,.45-1.27,.61-1.99,.66-.81-.08-1.57,0-2.18,.63Z"/>
      <path class="cls-66" d="M227.34,142.22c-1.97-2.09-4.22,1.1-6.4-.48,1.99-3.89,6.32-2.54,9.29-4.1,1.31-1.49,2.81-2.3,4.79-1.28-2.56,1.95-5.12,3.9-7.68,5.86Z"/>
      <path class="cls-73" d="M49.31,173.62c5.82-.69,9.95,1.91,12.96,6.67-4.92-1.06-9.29-3.18-12.96-6.67Z"/>
      <path class="cls-3" d="M193,130.29c-5.34,.03-10.67,.07-16.01,.1-.93-.34-1.86-.67-2.79-1.01,2.06-1.63,4.33-.59,6.44-.31,3.24,.44,6.29,.03,9.29-1.11-.28-.4-.22-.72,.2-.98,2.27-.04,3.51,.82,2.87,3.3Z"/>
      <path class="cls-93" d="M247.43,104.21c.02-2.49,2.45-2.18,3.73-3.2,.26-.71,2.05-1.48-.09-2.1,.87-2.21,2.08-4.06,4.64-4.53,.03,2.53,.18,5.07-.79,7.5-2.36,1.24-4.48,3.24-7.5,2.33Z"/>
      <path class="cls-85" d="M207.1,155.55c3.48-1.48,3.86-6.04,7.42-7.44,1.29-.31,2.6-1.29,3.86,.08-3.76,2.99-7.51,5.97-11.27,8.96-.25-.51-.49-1.02-.74-1.54,.21-.32,.45-.35,.72-.07Z"/>
      <path class="cls-17" d="M79.9,176.06c-.88-.38-1.76-.76-2.86-1.24,2.51-2.37,4.09-6.15,8.42-3.58-1.85,1.61-3.7,3.21-5.55,4.82Z"/>
      <path class="cls-18" d="M241.5,113.03c3.91-2.25,7.81-4.51,11.73-6.73,.87-.49,.97,.24,1.07,.84-.08,.2-.17,.4-.25,.6-4.38,1.6-7.79,5.23-12.54,6.06,0-.26,0-.52,0-.78Z"/>
      <path class="cls-82" d="M202.57,140.75c.78,.99,1.55,1.98,2.33,2.97-3.29-1.47-6.57-2.94-9.86-4.4,.3-.75,1.03-.87,1.67-1.13,.7-.08,1.33-.45,2.04-.48,.54-.01,1.05,.09,1.55,.29,1.17,.58,1.9,1.52,2.27,2.76Z"/>
      <path class="cls-70" d="M243.7,128.7c-2.5,.98-5.01,1.95-7.51,2.93-.39-.43-1.13-.06-1.45-.65,3.76-1.72,7.53-3.45,11.29-5.17,.04,1.62-1.33,2.11-2.33,2.89Z"/>
      <path class="cls-71" d="M217.62,145.34c2.56-1.51,5.38-2.07,8.29-2.34-1.88,2.04-4.22,3.39-6.75,4.46-.31,.23-.64,.27-.99,.12-.8-.59-1.35-1.24-.55-2.23Z"/>
      <path class="cls-56" d="M235.01,136.37c-1.74-.11-3.18,.89-4.79,1.28-.32-.6-.91-.66-1.49-.72,2.55-1.12,5.1-2.23,7.64-3.35,.85-.37,1.64-.54,2.2,.45-1.19,.78-2.38,1.56-3.57,2.34Z"/>
      <path class="cls-40" d="M252.5,113.72c-2.61,.9-4.37,3.38-7.21,3.86-.8,.33-.91-.06-.77-.72,2.88-1.25,4.96-3.94,8.19-4.55-.07,.47-.15,.94-.22,1.41Z"/>
      <path class="cls-44" d="M247.43,104.21c2.73-.05,4.82-2.15,7.5-2.33-.03,.47-.07,.94-.1,1.41-2.46,.99-4.92,1.97-7.39,2.96-.45-.68-.46-1.35-.01-2.03Z"/>
      <path class="cls-15" d="M69.55,181.01c2.44-1.16,3.82-5,7.52-3-2.12,1.96-4.45,3.41-7.52,3Z"/>
      <path class="cls-52" d="M242.93,122.73c2.72-.83,4-4.55,7.54-3.76-.23,.27-.47,.55-.7,.82-2.02,1.22-4.03,2.43-6.05,3.65-.31-.19-.73-.25-.79-.71Z"/>
      <path class="cls-60" d="M62.78,175.83c-2.37-1.33-4.45-2.78-2.35-5.89,1.2,1.8,2.1,3.71,2.35,5.89Z"/>
      <path class="cls-81" d="M175.36,13.84c.08,1.16,.15,2.32,.23,3.48-1.29-1.72-2.57-3.44-3.86-5.16,.54-.25,1.08-.49,1.62-.74,.67,.8,1.34,1.61,2.01,2.42Z"/>
      <path class="cls-94" d="M255.72,94.38c-1.77,1.23-3.26,2.74-4.51,4.5-.25,.27-.49,.26-.73,0-.26,0-.51,0-.77-.01,.69-1.53,2.52-2.19,2.99-3.89,1.02-.14,1.64-2.31,3.03-.6Z"/>
      <path class="cls-27" d="M195.53,38.86c.56,.11,1.11,.23,1.67,.34-.22,1.68-.81,3.21-1.89,4.54-.38-.47-.75-.95-1.13-1.42,.45-1.15,.9-2.31,1.36-3.46Z"/>
      <path class="cls-67" d="M218.36,147.4c.27,.02,.54,.04,.81,.06-.26,.24-.52,.49-.78,.73-1.28-.48-2.59,.73-3.86-.08,.52-.73,1.04-1.45,1.56-2.18,1.31-.36,1.28,1.35,2.28,1.47Z"/>
      <path class="cls-61" d="M196.71,138.51c-.56,.27-1.12,.54-1.68,.81-.47-.06-.94-.11-1.42-.17,.06-1,.62-1.42,1.58-1.36,.39,.47,1.18,.13,1.51,.73Z"/>
      <path class="cls-7" d="M207.1,155.55l-.36,.08s-.37-.01-.37-.01c.08-1.26-.42-2.62,.6-3.73,.27,.43,.54,.86,.81,1.29-.23,.79-.46,1.58-.69,2.37Z"/>
      <path class="cls-6" d="M180.1,22.7c-.24,.27-.47,.55-.71,.82-.5-.75-1-1.49-1.5-2.24,.54-.03,1.08-.07,1.62-.1,.2,.51,.39,1.01,.59,1.52Z"/>
      <path class="cls-5" d="M111.25,138.37c4.76-6.8,4.06-12.91-1.96-17.04-.58-.36-.53-.88-.34-1.42-.4-1.06-.31-2.32-1.3-3.13-1.78-1.59-2.41-3.92-3.69-5.83-.99-.52-1.98-1.04-2.96-1.55-1.89,1.15-3.95,1.55-6.13,1.45-.97,.48-1.7,1.19-2.2,2.15-1.32,2.06-1.67,4.73-3.95,6.18-.87,2.39-1.74,4.78-2.61,7.18,.6,3.3,.04,6.23-2.65,8.51-.56,2.66-2.06,5.09-1.91,7.91-.46,2.61,.1,5.5-2.13,7.62-.73,2.12-1.48,4.23-1.61,6.49-.4,2.69,.04,5.66-2.47,7.67-1.42,2.11-2.31,4.45-2.9,6.91-.72,.8-1.45,1.59-2.77,3.05,1.37-9.58,2.42-18.31,3.11-27.09,1.32-16.79,.52-33.39-3.72-49.76-.27-1.05-1.28-2.15-.32-3.36,3.02,1,5.41,3.29,8.67,3.95,5.68,1.15,8.44,.26,11.68-4.4,.83-1.19,1.42-2.7,3.32-2.43,2.6,3.08,5.68,5.55,9.32,7.32,1.04-.27,1.98,.08,2.86,.54,4.22,2.19,8.62,3.85,13.25,4.91,.96,.22,1.93,.54,2.5,1.48,3.87,5.57,3.77,12.02,3.59,18.31-.29,10.09-2.66,19.87-5.56,30.63-2.26-6.14-4.04-11.49-7.12-16.24Z"/>
      <path class="cls-58" d="M46.67,60.93c-4.86-.2-9.33,.48-13.1-2.83,3.45-2.43,7.19-3.84,11.17-3.94,3.1-.08,3.04-1.18,2.21-3.47-1.15-3.13-.96-6.29,0-9.49,.62-2.05,1.33-2.15,2.61-.54,2.02,2.57,3.63,5.38,4.31,8.58,.51,2.4,1.57,2.88,3.92,2.22,3.83-1.08,7.62-.48,11.5,1.4-3.01,3.72-7.38,4.43-11.67,6.02,3.28,2.07,6.37,4.1,8.14,7.47,.39,.73,1.18,1.59,.41,2.31-.41,.39-1.44,.35-2.13,.2-3.15-.69-6.38-1.3-9.06-3.2-1.49-1.05-2.31-.82-3.23,.66-1.91,3.08-4.79,5.01-8.14,6.23-1.48,.54-2.33,.27-1.87-1.73,.8-3.46,2.66-6.37,4.93-9.9Z"/>
      <path class="cls-58" d="M47.54,35.33c.41,.95,.04,1.76-.89,2.03-.83,.24-1.42-.45-1.71-1.14-3.13-7.67-6.79-15.17-8.34-23.4-.05-.24-.02-.5-.03-.74-.09-2.06-.12-4.3,2.48-4.7,2.49-.38,2.98,1.85,3.42,3.61,.76,3,1.32,6.04,1.95,9.07,1.05,5.09,2.07,10.18,3.11,15.27Z"/>
      <path class="cls-88" d="M47.84,86.31c-.36,4.48-.19,9.33-1.58,14.01-.47,1.59-1.22,3.31-3.25,2.84-2.06-.47-1.86-2.3-1.59-3.96,.99-6.22,3.15-12.2,3.71-18.51,.08-.92,.36-2.17,1.71-2,1.15,.14,.99,1.25,1.01,2.09,.03,1.73,0,3.47,0,5.52Z"/>
      <path class="cls-74" d="M89.71,83.39c-.42,2.06-1.73,2.63-3.49,1.6-1.59-.93-3.03-2.15-4.46-3.33-4.02-3.31-8-6.67-12.01-9.99-.72-.59-1.43-1.22-.86-2.15,.48-.78,1.34-.49,1.99-.11,5.57,3.24,11.41,6.05,16.37,10.26,1.14,.97,2.11,2.1,2.47,3.72Z"/>
      <path class="cls-74" d="M39.8,39.94c-.25,.44-.39,1.01-.73,1.2-.72,.39-1.48,.17-1.98-.49-3.88-5.19-6.75-10.9-8.64-17.09-.32-1.03,.25-1.97,1.37-2.31,1.03-.32,2.1-.15,2.64,.81,3.14,5.64,4.71,11.91,7.35,17.88Z"/>
      <path class="cls-88" d="M52.69,29.76c.21-3.26,.28-6.5,.67-9.69,.18-1.41,.79-3.16,2.77-2.87,1.87,.27,2.21,1.94,2.03,3.47-.63,5.55-1.39,11.08-2.09,16.62-.12,.92-.28,1.8-1.47,1.71-1.1-.08-1.38-.93-1.45-1.85-.17-2.48-.31-4.96-.46-7.39Z"/>
      <path class="cls-42" d="M63.26,71.7c.12,.04,.24,.08,.36,.12,1.98,.56,10.32,11.59,10.21,13.49-.04,.68-.35,1.19-.98,1.44-.75,.29-1.54,.23-2.07-.38-3.45-3.95-5.65-8.72-8.44-13.1-.5-.78,.01-1.39,.92-1.56Z"/>
      <path class="cls-79" d="M73.06,62.41c4.98,1.79,10.27,3.5,14.59,7.18,.6,.51,.73,1.31,.17,2-.62,.76-1.45,.89-2.33,.49-4.73-2.15-8.97-5.14-13.43-7.77-.4-.23-.74-.68-.44-1.24,.25-.48,.64-.73,1.45-.66Z"/>
      <path class="cls-79" d="M41.96,76.28c-1.34,4.72-3.3,9.4-6.29,13.59-.63,.88-1.61,1.25-2.62,.55-.85-.59-.89-1.45-.41-2.31,2.44-4.32,4.88-8.65,7.38-12.94,.2-.34,.82-.66,1.2-.61,.8,.12,.66,.89,.74,1.73Z"/>
      <path class="cls-88" d="M56.18,88.04c0,1.74,.05,3.47-.02,5.2-.04,1.18-.44,2.41-1.82,2.37-1.27-.03-1.92-1.22-1.93-2.37-.03-2.97,.09-5.94,.21-8.91,.05-1.23,.2-2.47,.4-3.69,.16-.97-.59-2.63,1.1-2.64,1.5,0,1.07,1.65,1.36,2.65,.69,2.42,.61,4.91,.69,7.38Z"/>
      <path class="cls-21" d="M36.64,65.4c1-.05,1.6,.45,1.4,1.28-.35,1.46-1.22,2.68-2.75,3.09-.77,.2-1.58-.28-1.34-1.2,.39-1.45,1.32-2.57,2.69-3.17Z"/>
      <path class="cls-86" d="M31.67,66.56c-.92-.04-1.58-.55-1.43-1.36,.3-1.63,1.75-1.94,3.11-2.13,.78-.11,1.67,.31,1.46,1.19-.37,1.54-2.05,1.59-3.14,2.3Z"/>
      <path class="cls-16" d="M28.27,60.81c-1.08-.17-2.48,.12-2.26-1.36,.15-1.05,1.43-1.38,2.38-1.39,.97,0,2.15,.39,2.07,1.63-.1,1.49-1.5,.86-2.19,1.12Z"/>
      <path class="cls-83" d="M91.65,54.43c0,1.18-.86,1.08-1.58,1.09-1.03,0-2.1-.12-2.3-1.38-.14-.88,.53-1.38,1.34-1.46,1.31-.13,2.01,.74,2.54,1.74Z"/>
      <path class="cls-69" d="M68.66,42.93c-.55,1.09-1.24,2.13-2.72,2.01-.75-.06-1.07-.73-.85-1.37,.42-1.24,1.22-2.2,2.67-2.1,.72,.05,.95,.69,.9,1.46Z"/>
      <path class="cls-21" d="M83.69,54.33c-.19,.94-.83,1.27-1.65,1.13-1.12-.18-2.41-.53-2.41-1.86,0-1.06,1.11-1.17,2.03-1.02,1.03,.17,1.91,.57,2.04,1.75Z"/>
      <path class="cls-43" d="M29.65,52.62c1.12,.37,2.58,.39,2.75,1.9,.09,.81-.8,1.14-1.59,1.06-1.08-.12-2.27-.24-2.47-1.63-.13-.89,.46-1.27,1.31-1.33Z"/>
      <path class="cls-10" d="M27.65,72.59c-.84,.08-1.37-.24-1.38-.94-.01-1.24,.83-2.03,1.9-2.37,.79-.25,1.5,.34,1.46,1.15-.05,1.23-1.03,1.8-1.98,2.16Z"/>
      <path class="cls-34" d="M15.52,53.12c-.02,1.02-.56,1.53-1.36,1.59-1.21,.08-2.31-.37-2.49-1.68-.12-.87,.68-1.21,1.5-1.22,1.07-.01,1.92,.36,2.35,1.31Z"/>
      <path class="cls-98" d="M22.42,74.24c-.12,1.12-.45,2.22-1.72,2.44-.85,.15-1.29-.61-1.21-1.41,.11-1.1,.38-2.24,1.71-2.45,.96-.16,1.22,.56,1.23,1.42Z"/>
      <path class="cls-53" d="M75.42,50.7c0,1.14-.94,1.32-1.72,1.53-.98,.26-1.7-.22-1.82-1.21-.13-1.1,.66-1.44,1.6-1.49,.9-.05,1.7,.12,1.94,1.17Z"/>
      <path class="cls-30" d="M21.4,57.9c.78,.2,1.74,.43,1.66,1.51-.09,1.28-1.16,1.39-2.18,1.35-1-.04-1.69-.52-1.48-1.59,.19-.98,.99-1.31,2-1.27Z"/>
      <path class="cls-43" d="M82.89,38.23c-.15,1.28-.89,1.62-1.83,1.68-.92,.06-1.81-.05-1.72-1.3,.08-1.02,.86-1.52,1.74-1.64,.97-.13,1.55,.53,1.81,1.26Z"/>
      <path class="cls-53" d="M24.77,68.07c-.9-.1-1.47-.53-1.37-1.4,.12-1.07,.9-1.73,1.89-1.95,.81-.18,1.5,.32,1.5,1.15-.01,1.26-1.01,1.8-2.01,2.2Z"/>
      <path class="cls-2" d="M73.99,42.07c-.98,.15-1.55-.24-1.51-1.13,.05-1.11,.8-1.72,1.87-1.86,.75-.1,1.58,.06,1.67,.95,.15,1.45-1.24,1.53-2.03,2.03Z"/>
      <path class="cls-47" d="M88.87,58.75c-.59,.65-1.39,.49-2.14,.55-2.12,1.3-4.46,.29-6.67,.64-.55-.26-1.1-.51-2.56-1.19h11.37Z"/>
      <path class="cls-62" d="M70.02,47.83c-1.06,.09-1.68-.3-1.74-1.17-.06-.87,.57-1.33,1.37-1.47,.83-.14,1.56,.21,1.77,.99,.34,1.26-1.01,1.13-1.4,1.64Z"/>
      <path class="cls-59" d="M80.06,59.94c2.11-1.42,4.45-.35,6.67-.64-.99,.69-1.98,1.38-2.97,2.08-1.23-.48-2.47-.96-3.7-1.44Z"/>
      <path class="cls-48" d="M21.68,51.8c1.09,.07,2.07-.02,2.11,1.19,.03,.8-.36,1.47-1.28,1.32-.83-.13-1.73-.43-1.96-1.37-.27-1.15,.78-.9,1.13-1.13Z"/>
      <path class="cls-33" d="M17.63,66.67c-.78-.1-1.18-.52-1.07-1.22,.17-1.12,.9-1.68,2.02-1.57,.62,.06,1.26,.44,1.09,1.13-.25,1.01-1.07,1.54-2.04,1.66Z"/>
      <path class="cls-63" d="M87.87,45.46c-.18,.83-.74,1.24-1.56,1.22-.85-.01-1.85,0-2.03-1.08-.18-1.16,.72-1.4,1.63-1.41,.9-.01,1.69,.26,1.96,1.27Z"/>
      <path class="cls-33" d="M76.6,32.48c.7,.12,1.12,.5,1.02,1.23-.13,.98-.76,1.54-1.72,1.55-.69,0-1.1-.48-1.01-1.21,.12-.99,.76-1.46,1.71-1.57Z"/>
      <path class="cls-35" d="M77.26,55.07c-.06,.75-.56,1.07-1.2,1.15-.73,.09-1.59,.18-1.84-.76-.26-.97,.4-1.31,1.24-1.36,.79-.05,1.48,.13,1.8,.97Z"/>
      <path class="cls-89" d="M76.4,46.88c.2-.96,.93-1.04,1.71-.99,.66,.04,1.39,.31,1.37,.99-.04,1.15-1.03,1.21-1.92,1.17-.7-.03-1.14-.39-1.15-1.16Z"/>
      <path class="cls-19" d="M62.34,83.89c-.21,.24-.35,.38-.48,.52-.26-.36-.58-.7-.77-1.1-.23-.47,.07-.78,.47-.53,.36,.22,.54,.74,.78,1.1Z"/>
      <path class="cls-78" d="M83.45,134.86c.88-2.83,1.76-5.67,2.64-8.5,2.74,2.34,1.81,5.84,2.66,8.77,1.07,3.67,1.38,7.55,2.24,11.29,.98,4.25-2.19,6.84-3.83,11.21-1.64-8.25-3.07-15.44-3.72-22.76Z"/>
      <path class="cls-99" d="M88.71,119.18c1.12-2.19,1.64-4.76,3.95-6.18,1.01,5.84,1.89,11.72,3.08,17.52,.95,4.62-.35,8.63-2.72,13.49-1.54-8.89-2.93-16.86-4.31-24.84Z"/>
      <path class="cls-50" d="M108.95,119.91c.11,.47,.22,.95,.34,1.42-.09,3.65-.17,7.31-.25,10.96-3.89,4.26-7.77,8.53-11.66,12.79-.37-.34-.74-.68-1.1-1.01,2.28-9.05,7.82-16.43,12.68-24.16Z"/>
      <path class="cls-17" d="M94.86,110.85c1.79-1.54,3.88-1.82,6.13-1.45,0,5.86-1.52,11.49-3.15,17.28-1-5.28-1.99-10.55-2.99-15.83Z"/>
      <path class="cls-14" d="M79.42,150.4c.42-2.62,.8-5.25,2.12-7.62,1.08,5.55,2.14,11.11,3.26,16.65,.51,2.53-1.8,3.47-2.66,6.37-1.5-5.83-1.18-10.79-2.72-15.4Z"/>
      <path class="cls-23" d="M103.96,110.96c2.07,1.41,3.32,3.35,3.69,5.83-1.91,2.95-3.81,5.91-5.72,8.86l-.45-.2c.83-4.83,1.65-9.66,2.48-14.49Z"/>
      <path class="cls-23" d="M75.33,164.56c.6-2.63,1.26-5.24,2.47-7.67,.47,3.16,.95,6.32,1.42,9.48,.47,3.19-2.12,4.37-4.25,6.61,.04-3.21,.89-5.81,.36-8.43Z"/>
      <path class="cls-67" d="M120.34,105.67c-6.62-1.19-12.93-3.23-18.61-6.93,5-3.87,8.3-9.48,13.52-13.13,2.26-1.58,4.53-3.02,7.35-3.29,.67,5.24,3.12,9.15,8.3,10.98-1.38,4.42-3.97,8-7.61,10.84-.72,1.02-1.63,1.68-2.95,1.54Z"/>
      <path class="cls-29" d="M123.29,104.13c2.54-3.61,5.07-7.22,7.61-10.83,.24,.05,.45,.15,.64,.3-.85,6.86-1.97,13.65-4.74,20.23-.57-3.49-2.83-6.29-3.51-9.69Z"/>
      <path class="cls-5" d="M190.82,110.97c2.82-2.52,4.98-5.52,6.52-8.96,.13-.06,.26-.11,.39-.16,1.61-.16,3.08,.04,4.09,1.5,3.43,2,3.17,5.48,3.45,8.72,.21,2.33,.32,4.66,.48,6.99,.53,7,.09,14.01,.23,21.02,.02,.8-.17,1.47-1.1,1.63-.65-.38-.69-1.06-.82-1.69-3.83-6.6-6.65-13.74-10.94-20.12-1.46-2.16-3.98-3.79-3.95-6.84,.55-.7,1.11-1.39,1.66-2.09Z"/>
      <path class="cls-100" d="M189.16,113.06c5.46,6.91,9.82,14.47,13.52,22.43,.67,1.44,1.59,2.81,1.37,4.52-.22-.02-.45-.04-.67-.06-1.07-.39-1.89-1.11-2.64-1.94-.97-.78-1.85-1.66-2.62-2.63-.45-.46-.91-.92-1.36-1.38-1.19-.88-2.22-1.93-3.12-3.1-.21-.2-.42-.41-.64-.61-.35-1.7-1.35-2.74-3.07-3.07-1.11-.4-1.88-1.12-2.2-2.27-1.24-2.3-5.21-3.79-4.62-5.75,.74-2.43,3.92-4.13,6.05-6.14Z"/>
      <path class="cls-4" d="M187.72,124.95c.93,.56,1.73,1.26,2.2,2.27,0,.25,0,.49,0,.74-3.12-1.26-6.4-1.82-9.71-2.26-.04-1.42,.75-1.07,1.54-.72,1.5-.52,2.97,1.74,4.48,.04,.5,.13,1.03,.82,1.49-.07Z"/>
      <path class="cls-24" d="M201.82,103.34c-1.36-.5-2.72-1-4.09-1.5,.87-1.76,1.85-3.48,2.58-5.3,1.06-2.66,1.95-1.64,2.92,0,1.2,1.68-.03,3.7,.77,5.44-.73,.46-1.45,.91-2.18,1.37Z"/>
      <path class="cls-54" d="M204.87,141.7c1.36-1.3,.87-3,.88-4.54,.06-6.04,0-12.07,0-18.11,1.39,3.18,.49,6.52,.62,9.79,.16,4.05,0,8.12,0,12.17,0,1.4-.27,2.06-1.51,.69Z"/>
      <path class="cls-54" d="M201.12,137.73c1.01,.47,1.74,1.24,2.26,2.22-.27,.27-.54,.53-.81,.8-.97-.53-1.73-1.26-2.17-2.29,.15-.34,.38-.58,.73-.72Z"/>
      <path class="cls-8" d="M202.13,91.12c.94,.73,1.34,1.46,1.1,2.38-.04,.15-.67,.35-.84,.25-.95-.61-.58-1.48-.27-2.63Z"/>
      <path class="cls-64" d="M203.99,101.98c-1.1-1.69-.42-3.64-.77-5.44,1.32,1.66,.89,3.57,.77,5.44Z"/>
      <path class="cls-44" d="M181.76,124.98c-.61,.05-1.2,.13-1.54,.72-1.62-.38-3.23-.77-4.85-1.15,.06-.33,.13-.67,.19-1,2.07,.48,4.13,.96,6.2,1.43Z"/>
      <path class="cls-37" d="M223.11,126.03c.08,.22,.35,.58,.26,.77-.2,.4-.53,.93-.91,1.02-.79,.19-.67-.43-.49-.89,.17-.45,.38-.91,1.14-.9Z"/>
      <path class="cls-26" d="M218.36,147.4c-1.21,.21-1.49-1.02-2.28-1.47,.48-.52,.95-1.05,1.43-1.57,.04,.33,.07,.65,.11,.98,.25,.69,.49,1.37,.74,2.06Z"/>
      <path class="cls-57" d="M229.07,120.55c.14,.44,.36,.76,.3,1.02-.1,.49-.49,.84-1,.65-.16-.06-.26-.65-.16-.91,.1-.27,.47-.43,.86-.76Z"/>
      <path class="cls-20" d="M216.34,138.45c-.65-.15-.83-.44-.6-.8,.23-.36,.58-.64,.88-.96,.18,.27,.55,.63,.48,.81-.16,.39-.54,.69-.76,.95Z"/>
      <path class="cls-87" d="M217.29,140.92c-.67,.59-.91,.81-1.16,1.03-.19-.23-.58-.52-.54-.68,.09-.29,.39-.64,.68-.72,.24-.07,.58,.2,1.02,.37Z"/>
      <path class="cls-96" d="M195.17,49.52c-.06,1.27-.12,2.54-.18,3.81-.31-.77-.61-1.53-.92-2.29,.3-.55,.29-1.32,1.09-1.51Z"/>
      <path class="cls-87" d="M250.48,98.87c.24,0,.49,0,.73,0,1.13-.13,2.26-.26,3.63-.41-.5,2.3-2.52,1.77-3.67,2.55-.23-.71-.46-1.42-.69-2.13Z"/>
      <path class="cls-39" d="M233.99,126.49c1.77-.72,3.54-1.43,5.3-2.15,.3,.19,.72,.25,.78,.71-1.24,1.34-3.05,1.44-4.6,2.12-.33-.58-.9-.64-1.48-.68Z"/>
      <path class="cls-87" d="M244.53,116.86c.26,.24,.51,.48,.77,.72-1.06,1.1-2.48,1.55-3.83,2.13-.25-.24-.5-.48-.76-.71,1.27-.71,2.55-1.42,3.82-2.13Z"/>
      <path class="cls-3" d="M240.07,125.05c-.26-.24-.52-.47-.78-.71,1.21-.54,2.43-1.07,3.64-1.61,.26,.24,.53,.47,.79,.71-1.17,.64-2.25,1.49-3.65,1.61Z"/>
      <path class="cls-67" d="M234.74,130.97c.48,.22,.97,.44,1.45,.65-.97,.29-1.95,.57-2.92,.86,.01-.97,.53-1.46,1.47-1.52Z"/>
      <path class="cls-31" d="M187.36,31.04c.37,2,.74,4.01,1.11,6.01-1.09-1.77-2.66-3.31-2.26-5.54,.23-.54,.65-.59,1.15-.47Z"/>
      <path class="cls-28" d="M193.63,130.9c1.75,.32,2.78,1.37,3.12,3.1-4.05-.04-7.83,2.27-11.98,1.4,1.95-1.82,4.62-1.28,6.91-2.03,1.44-.47,2.14-.98,1.94-2.48Z"/>
      <path class="cls-65" d="M201.12,137.73c-.24,.24-.48,.48-.73,.73-.53-.04-1.07-.08-1.6-.12-.41-.41-1.17-.07-1.48-.68,.49-.68,.89-1.39,.81-2.28,1.44,.22,2.38,1.09,3,2.35Z"/>
      <path class="cls-67" d="M197.31,137.66c.49,.23,.99,.46,1.48,.69-.69,.06-1.39,.11-2.08,.17-.58-.08-1.18-.12-1.51-.73,.7-.04,1.4-.09,2.11-.13Z"/>
      <path class="cls-36" d="M52.12,48.68c-.08,1.25-.26,2.86-1.77,2.67-1.86-.23-2.14-2.19-2.36-3.74-.18-1.26,.75-2.31,1.89-2.25,1.91,.1,1.9,1.92,2.24,3.32Z"/>
      <path class="cls-75" d="M53.97,57.5c-.05,1.29-.58,2.28-1.89,2.38-1.46,.11-2.39-.82-2.38-2.23,.01-1.2,.85-2.06,2.13-2.15,1.37-.09,1.96,.79,2.13,1.99Z"/>
      <path class="cls-92" d="M56.75,61.45c1.36,.49,2.93,1.09,3.57,2.69,.29,.73-.61,1.48-1.36,1.4-1.65-.17-3.12-.85-3.58-2.65-.22-.85,.22-1.44,1.38-1.44Z"/>
      <path class="cls-32" d="M43.13,58.54c-1.48,.04-2.78-.13-2.63-1.61,.14-1.38,1.49-1.38,2.64-1.38,1.18,0,2.49,.11,2.33,1.62-.15,1.36-1.46,1.46-2.33,1.37Z"/>
      <path class="cls-90" d="M58.75,56.36c-1,.04-2.06,.09-2.14-1.29-.08-1.39,.72-1.9,2.06-1.81,1.12,.07,2.44,.08,2.46,1.47,.02,1.32-1.23,1.59-2.38,1.63Z"/>
      <path class="cls-49" d="M47.65,66.82c-1.14,.01-1.6-.54-1.42-1.4,.29-1.43,1.22-2.49,2.63-2.77,.72-.14,1.36,.61,1.22,1.45-.24,1.46-1.22,2.32-2.43,2.72Z"/>
      <path class="cls-39" d="M188.18,117.07c.35,.44,.68,.68,.73,.98,.03,.19-.34,.46-.54,.69-.22-.25-.55-.47-.62-.75-.05-.21,.22-.51,.43-.92Z"/>
    </g>
  </g>
</svg>