<?xml version="1.0" encoding="UTF-8"?>
<svg id="Layer_2" data-name="Layer 2" xmlns="http://www.w3.org/2000/svg" viewBox="0 0 82.38 65.02">
  <defs>
    <style>
      .cls-1 {
        fill: #fff;
      }

      .cls-2 {
        fill: #e5c768;
      }

      .cls-3 {
        fill: #424143;
      }

      .cls-4 {
        fill: #494745;
      }

      .cls-5 {
        fill: #4a4745;
      }

      .cls-6 {
        fill: #434243;
      }
    </style>
  </defs>
  <g id="Layer_1-2" data-name="Layer 1">
    <g>
      <path class="cls-1" d="M0,32.75c15.69,10.55,31.39,21.1,47.08,31.64,.92,.62,.74,.65,1.36-.27,11.29-16.8,22.58-33.6,33.87-50.39,.18,.28-.11,.41-.21,.57-4.33,6.46-8.67,12.91-13,19.36-6.94,10.33-13.89,20.66-20.82,31-.28,.42-.42,.45-.84,.16C31.77,54.28,16.09,43.74,.42,33.2c-.16-.11-.47-.12-.41-.44Z"/>
      <path class="cls-1" d="M47.56,21.28c4.89,6.32,6.66,13.41,5.17,21.28-.22,1.18-.58,2.35-1.37,3.3-1.08,1.3-2.43,1.53-3.77,.51-2.59-1.97-3.96-4.61-3.8-7.89,.15-3.17,.87-6.27,1.55-9.37,.05-.24,.09-.48,.13-.72-.22-.51-.01-.99,.09-1.47,.12-.54,.26-1.08,.43-1.6,.23-1.06,.51-2.11,.81-3.15,.08-.25,.07-.53,.21-.76,.13-.21,.27-.46,.53-.12Z"/>
      <path class="cls-1" d="M34.61,21.22c-1.31,.87-2.61,1.73-3.92,2.6-1.54,1.02-3.11,1.99-4.78,2.76-3,1.39-5.97,1.23-8.8-.48-1.71-1.03-1.91-2.81-.59-4.33,.93-1.07,2.05-1.9,3.27-2.6,6.42-3.68,13.2-4.53,20.34-2.57,.12,.03,.23,.09,.34,.13,.06,.5-.34,.66-.64,.9-.82,.64-1.64,1.29-2.5,1.87-.68,.55-1.37,1.06-2.12,1.52-.16,.18-.35,.28-.6,.19Z"/>
      <path class="cls-2" d="M39.66,17.45c.27-.24,.54-.48,.8-.72-.39-1.95-.23-3.8,1-5.45,1.37-1.83,3.16-2.8,5.49-2.65,.1,.13,.07,.28,.04,.42-.02,.12-.1,.23,0,.4,.41-.19,.36-.9,.94-.87,.72,.4,1.53,.59,2.21,1.11,.56,.43,1.15,.82,1.57,1.4,.14,.19,.29,.32,.55,.22,.18,.58-.53,.77-.54,1.28,.26,.09,.44-.21,.69-.12,.73,1.07,.74,2.29,.53,3.46-.49,2.73-2.14,4.48-4.79,5.29-.18,.06-.39,.05-.58,.07-.12-.03-.26-.15-.29,.12-.03,.28-.14,.55-.22,.83-.72,.11-1.02-.52-1.46-.86-1.48-1.18-3.01-2.27-4.76-3.03-.45-.19-1.03-.26-1.17-.89Z"/>
      <path class="cls-3" d="M29.46,28.65l1.05-1.91c.74-1.36,.77-1.39,2.13-.82,1.92,.81,3.81,1.68,5.5,2.92,1.47,1.08,2.77,2.33,3.82,3.82,.21,.29,.33,.59,.32,.95-.51,.89-1.26,1.59-1.82,2.43-.45,.16-.7-.17-.92-.44-1.2-1.5-2.62-2.77-4.15-3.91-1.47-1.1-3.15-1.85-4.91-2.41-.39-.12-.83-.17-1.01-.63Z"/>
      <path class="cls-3" d="M34.61,21.22c.14-.11,.28-.23,.43-.34,.45-.12,.86-.03,1.28,.17,2,.94,3.94,1.99,5.7,3.31,1.07,.8,2.13,1.64,3.02,2.66,.41,.48,.58,.94,.29,1.53-.55,.87-.86,1.87-1.47,2.7-.42,.08-.62-.22-.84-.48-1.38-1.64-2.91-3.13-4.74-4.26-1.44-.89-2.96-1.62-4.53-2.27-.39-.16-.87-.25-.98-.79,.61-.74,1.22-1.48,1.84-2.23Z"/>
      <path class="cls-3" d="M38.33,38.23c-.77,.63-1.46,1.34-2.33,1.84-.43,.05-.68-.24-.92-.51-1.88-2.14-4.22-3.58-6.86-4.6-.38-.15-.8-.28-.89-.78,.32-1.01,.64-2.02,.96-3.03,.28-.19,.59-.21,.92-.13,2.35,.57,4.42,1.7,6.26,3.25,1.02,.85,1.97,1.77,2.75,2.84,.25,.34,.49,.7,.1,1.11Z"/>
      <path class="cls-2" d="M32.78,23.44c1.41,.68,2.87,1.26,4.25,2,2.48,1.32,4.59,3.08,6.34,5.27,.15,.19,.33,.36,.49,.54-.53,.79-1.06,1.58-1.58,2.37-1.47-2.12-3.24-3.93-5.45-5.28-1.66-1.01-3.43-1.78-5.23-2.52-.28-.12-.45-.06-.6,.2-.14,.26-.33,.49-.5,.73,.34-.96,1.03-1.71,1.61-2.52,.2-.28,.44-.52,.66-.78Z"/>
      <path class="cls-2" d="M38.33,38.23c.13-.18,.12-.34-.03-.53-2.56-3.32-5.72-5.73-9.93-6.54-.02,0-.05,0-.07,0,.39-.83,.66-1.72,1.16-2.51,1.82,.51,3.57,1.18,5.17,2.2,1.92,1.22,3.59,2.7,5.05,4.44,.23,.27,.4,.63,.77,.76-.7,.74-1.35,1.52-2.12,2.18Z"/>
      <path class="cls-2" d="M45.33,28.54c.21-.46-.04-.77-.32-1.09-1.64-1.86-3.62-3.29-5.75-4.52-1.35-.79-2.71-1.58-4.22-2.06,.72-.52,1.43-1.04,2.15-1.56,1.11-.11,1.93,.59,2.84,1.03,1.97,.95,3.66,2.31,5.31,3.73,.42,.36,.76,.75,.88,1.31-.25,1.01-.49,2.02-.74,3.03-.05,.05-.1,.09-.15,.14Z"/>
      <path class="cls-2" d="M27.33,34.18c.41,.44,1,.46,1.51,.68,2.8,1.17,5.18,2.9,7.16,5.21-.67,.66-1.5,1.05-2.34,1.43-.53-.18-.87-.62-1.26-.99-1.23-1.15-2.62-2.06-4.18-2.7-.45-.19-.89-.4-1.3-.66,.03-1,.18-1.99,.41-2.96Z"/>
      <path class="cls-3" d="M26.92,37.15c.12-.13,.25-.12,.4-.07,2.34,.91,4.44,2.16,6.13,4.05,.09,.11,.23,.19,.21,.37-.71,.27-1.42,.55-2.18,.65-2.23,.32-3.76-.71-4.32-2.89-.18-.69-.17-1.41-.24-2.11Z"/>
      <path class="cls-6" d="M47.94,8.59c-.21,.36-.41,.72-.63,1.08-.13,.22-.3,.42-.59,.26-.29-.16-.22-.41-.1-.64,.11-.22,.23-.43,.35-.65,1.09-1.8,1.78-3.71,1.59-5.85-.05-.56-.07-1.11-.63-1.49-.29-.19-.27-.57-.09-.87,.17-.3,.45-.5,.79-.39,.32,.1,.76,.31,.66,.68-.31,1.09,.17,2.12,.09,3.2-.13,1.68-.74,3.18-1.44,4.67Z"/>
      <path class="cls-6" d="M52.41,12.47c-.16,.18-.33,.35-.49,.53-.18,.21-.37,.18-.57,.02-.19-.16-.15-.34-.02-.51,.31-.4,.62-.8,.93-1.2,1.59-1.81,3.37-3.29,5.86-3.64,.28-.04,.4-.27,.6-.4,.39-.25,.71-.08,1,.17,.29,.24,.29,.56,.12,.87-.19,.34-.52,.57-.85,.38-.95-.55-1.78-.05-2.58,.3-1.68,.74-2.97,1.97-4,3.47Z"/>
      <path class="cls-3" d="M46.22,25.38c-2.57-2.67-5.67-4.57-9.03-6.07,.83-.62,1.65-1.24,2.48-1.86,2.82,1.04,5.22,2.73,7.39,4.78-.28,1.05-.55,2.09-.83,3.14Z"/>
      <path class="cls-4" d="M49.57,15.9c-.27,.33-.62,.42-.97,.2-.36-.22-.44-.61-.22-.96,.24-.38,.63-.48,1.01-.22,.34,.24,.38,.6,.18,.97Z"/>
      <path class="cls-5" d="M45.77,13.36c-.27,.33-.62,.42-.96,.18-.34-.23-.43-.59-.2-.96,.25-.39,.64-.46,1.01-.2,.34,.24,.37,.6,.16,.97Z"/>
    </g>
  </g>
</svg>