<?xml version="1.0" encoding="UTF-8"?>
<svg id="Layer_2" data-name="Layer 2" xmlns="http://www.w3.org/2000/svg" viewBox="0 0 315.23 290.1">
  <defs>
    <style>
      .cls-1 {
        fill: #f8bd5d;
      }

      .cls-2 {
        fill: #f1ae34;
      }

      .cls-3 {
        fill: #3f2516;
      }

      .cls-4 {
        fill: #666065;
      }

      .cls-5 {
        fill: #533b29;
      }

      .cls-6 {
        fill: #614634;
      }

      .cls-7 {
        fill: #472f1e;
      }

      .cls-8 {
        fill: #fdfdfc;
      }

      .cls-9 {
        fill: #d78b2f;
      }

      .cls-10 {
        fill: #433933;
      }

      .cls-11 {
        fill: #e28e27;
      }

      .cls-12 {
        fill: #45372e;
      }

      .cls-13 {
        fill: #deaf70;
      }

      .cls-14 {
        fill: #ea9b29;
      }

      .cls-15 {
        fill: #d27d2a;
      }

      .cls-16 {
        fill: #b9cdc9;
      }
    </style>
  </defs>
  <g id="Layer_1-2" data-name="Layer 1">
    <g>
      <path class="cls-8" d="M267.17,289.53l.36,.12,.12-.41c.95-1.89,.52-3.92,.52-5.88,.02-62.21,.02-124.42,.02-186.63v-6.18c4.1,2.11,7.44,3.84,10.78,5.56,1.96,1.2,4.09,2.19,5.83,3.65,3.98,3.33,7.08,1.25,9.82-1.55,6.1-6.26,3.87-15.46-5.08-20.54C246.61,53.35,203.62,29.12,160.7,4.78c-2.46-1.39-4.22-1.5-6.77-.04-20.61,11.82-41.32,23.46-62.01,35.14-22.42,12.66-44.85,25.31-67.29,37.93-5.6,3.15-8.54,7.71-7.82,14.22,.82,7.34,7.44,10.82,13.63,7.31,4.98-2.82,9.96-5.62,15.37-8.67,.1,1.72,.21,2.83,.21,3.94,.02,16.76,.04,33.52,.04,50.27,0,46.29,.05,92.58-.11,138.87-.02,4.93,1.26,6.36,6.41,6.35,68.4-.2,136.81-.13,205.21-.14,1.49,0,2.97-.15,4.46-.22,1.73,.3,3.46,.52,5.15-.21Zm-10.98-244.33s0-.02,0-.04c2.82,0,5.65,.18,8.45-.04,4.87-.38,9.25-4.41,9.28-9.26,.02-3.45,1-5.21,4.37-5.6,1.93-.23,2.52-1.65,2.03-3.13-.48-1.46-1.76-2.39-3.55-1.66-.61,.25-1.21,.52-1.85,.67-5.26,1.28-9.08-2.3-7.87-7.38,.27-1.13,.75-2.24,.79-3.38,.19-5.37-.98-10.35-5.73-13.51-3.93-2.62-8.11-2.5-12.04,.35-1,.72-2.12,.83-3.3,.84-4.34,.05-6.92,2.6-8.81,6.2-2.88,5.47-2.14,10.97,.43,16.14,1.07,2.14,1.19,3.79,.55,5.9-2.09,6.87,2.59,13.49,9.8,13.88,2.48,.14,4.97,.02,7.46,.02Zm32.54,147.43c3.88,.48,8.04-.97,12.32-1.34,5.07-.43,8.83-5.19,8.77-10.33-.03-2.68,.07-4.81,3.32-5.46,1.7-.34,2.44-1.77,1.93-3.44-.61-1.97-2.22-1.61-3.7-1.2-.63,.17-1.22,.5-1.84,.71-4.72,1.65-8.43-1.22-7.78-6.02,.96-7.14-1.85-13.86-6.82-16.3-6.72-3.3-20.84,3.14-22.93,10.4-1.57,5.44-.36,10.39,2.39,15.14,.71,1.23,1.77,2.21,1.51,3.99-1.41,9.66,2.62,14.11,12.85,13.84ZM12.68,145.27c.24,6.27-2.29,8.26-8.2,6.1-1.9-.69-3.27-.73-4.17,1.07-.88,1.76,.25,2.95,1.83,3.35,2.64,.67,2.89,2.32,2.95,4.73,.13,5.18,3.6,9.12,8.66,9.91,4.24,.67,8.55,1.07,12.84,1.19,6.43,.18,10.52-4.12,10.35-10.55-.06-2.12-.41-4.1,.9-6.16,3.3-5.19,4.38-10.85,.95-16.33-3.3-5.27-9.51-6.38-14.77-7.61-6.94-1.61-11.69,5.04-11.34,14.29Z"/>
      <path class="cls-12" d="M262.02,289.74c-1.49,.08-2.97,.22-4.46,.22-68.4,.01-136.81-.06-205.21,.14-5.15,.01-6.43-1.42-6.41-6.35,.16-46.29,.11-92.58,.11-138.87,0-16.76-.01-33.52-.04-50.27,0-1.11-.12-2.22-.21-3.94-5.41,3.05-10.4,5.85-15.37,8.67-6.2,3.51-12.81,.03-13.63-7.31-.73-6.51,2.22-11.07,7.82-14.22,22.45-12.62,44.87-25.27,67.29-37.93,20.69-11.68,41.4-23.32,62.01-35.14,2.55-1.46,4.31-1.35,6.77,.04,42.92,24.35,85.91,48.58,128.84,72.91,8.95,5.07,11.19,14.27,5.08,20.54-2.74,2.81-5.84,4.88-9.82,1.55-1.74-1.46-3.88-2.45-5.83-3.65,.88-3.63-4.26-3.94-3.98-7.23,3.98,.8,7.02,3.56,10.63,5.16,1.57,.7,2.99,2.59,4.83,.74,1.81-1.82,3.18-3.96,2.03-6.68-1.35-3.19-3.87-5.23-6.87-6.89-13.65-7.57-27.27-15.2-40.87-22.86-18.14-10.21-36.28-20.41-54.36-30.72-9.33-5.32-18.62-10.69-28.1-15.76-3.18-1.7-5.52-3.05-8.86-1.08-7.96,4.68-15.94,9.32-23.98,13.85-23.42,13.18-46.88,26.29-70.3,39.45-8.64,4.85-17.28,9.71-25.85,14.68-3.7,2.15-7.7,3.99-10.31,7.6-1.91,2.64-1.54,5.38,.28,7.82,1.8,2.42,3.7,.89,5.61-.17,13.51-7.52,27.11-14.89,40.56-22.52,13.93-7.9,27.5-16.46,41.64-23.96,14.7-7.79,28.9-16.45,43.56-24.3,2.27-1.21,3.73-1.01,5.85,.23,9.93,5.84,19.97,11.51,30.02,17.16,11.34,6.38,22.73,12.65,34.08,19.01,14.09,7.89,28.22,15.69,42.15,23.85,2.54,1.49,6.2,1.84,7.36,5.35-4.12-.47-7.73-2.46-11.51-3.93-5.44-2.11-5.46-2.06-5.49,3.95q-8.98,.04-8.98,8.9c0,37.32,0,74.64,0,111.96,0,9.76,0,9.57,9.68,9.78,4.06,.09,5.38-1,5.36-5.23-.16-41.8-.11-83.6-.11-125.4,4.36-.11,2.95,3.21,2.96,5.35,.1,15.44,.05,30.89,.05,46.33s-.22,31.22,.06,46.83c.27,15.2-.74,30.39-.15,45.6,.45,11.61,.24,23.25,.03,34.87-.13,7.46,2.04,15.43-3.95,21.86ZM188.28,106.97c4.88,3.07,9.78,6.12,14.64,9.23,1.09,.7,2.2,.92,3.27,.27,5.2-3.19,11.49-5.51,15.18-9.97,2.81-3.4,.5-9.59,.84-14.53,.16-2.4-.79-3.15-3.14-3.11-10.28,.16-20.56,.18-30.85,.25-1.51,5.96-1.53,11.92,.05,17.88Zm-20.23,14.57c-.95,7.32-1.64,14.64,.31,21.92,3.78,2.35,7.52,4.77,11.36,7.04,2.07,1.22,4.23,3.49,6.77,1.88,5.24-3.33,11.17-5.6,15.67-10.06,.09-.09,.06-.32,.06-.48-.05-6.62,.98-13.49-.56-19.75-.94-3.81-7.35-4.23-10.71-7.12-.83-.72-1.98-.67-2.94-1.48-1.87-1.57-4.44-1.44-6.51-.25-4.56,2.63-8.97,5.52-13.44,8.31Zm56.47,103.88c-11.46,0-22.92,.05-34.38-.04-2.61-.02-5.67,.75-5.13,3.21,.84,3.85-1.58,7.08-.76,10.76,.84,3.78-.82,5.16-4.86,5.1-14.61-.24-29.23-.08-43.85-.1-4.69,0-7.5-4.1-6.1-8.84,1.82-6.19-.94-10.07-7.28-10.08-22.03-.03-44.07,.02-66.1-.03-2.86,0-4.33,.94-4.32,4.01,.06,16.11-.15,32.22,.12,48.33,.12,7.29,1.82,8.47,9.07,8.47,50.74,0,101.49,0,152.23,0,14.29,0,28.57,.04,42.86-.02,6.54-.03,7.03-.6,7.03-7.13,0-16.11-.12-32.22,.08-48.33,.05-4.02-.92-5.52-5.21-5.41-11.12,.29-22.26,.1-33.38,.09Zm-67.16-53.82c-26.72,0-53.44,.06-80.15-.06-3.95-.02-5.69,1-5.62,5.31,.22,12.77,.17,25.55,.02,38.33-.05,3.76,1.05,5.34,5.08,5.33,53.43-.09,106.87-.09,160.3,0,3.93,0,5.23-1.37,5.18-5.23-.17-12.77-.28-25.56,.05-38.33,.12-4.6-1.5-5.46-5.7-5.43-26.38,.18-52.77,.09-79.16,.09Zm-.77-142.47c-1.91-.23-3.39,.35-4.97,1.6-2.29,1.81-5.12,3.05-7.48,4.64-4.24,2.86-9.48,3.65-13.32,6.94-5.66,4.84-12.32,7.84-18.76,11.36-3.22,1.76-6.97,2.55-9.77,4.95-7.49,6.41-16.35,10.32-25.11,14.56-3.62,1.75-7.12,3.71-10.93,5.11-1.59,.59-2.25,2.4-2.33,4.12-.05,.98,.79,1.46,1.68,1.43,3.17-.11,6.1,1.29,9.33,1.11,9.15-.5,18.32-.84,27.49-1.01,10.37-.2,20.7,.64,31.12,.15,18.3-.87,36.66,.66,54.99-.22,4.84-.23,9.47,1.62,14.31,1.02,14.45-1.8,28.91-1.19,43.38-.07,1.61,.12,3.95,1.06,4.66-1.47,.59-2.11-.93-3.55-2.64-4.29-4.44-1.92-8.05-5.27-12.64-6.97-3.19-1.18-6.24-2.82-9.26-4.42-9.33-4.94-17.55-11.8-27.52-15.7-7.5-2.93-12.85-9.76-20.72-12.11-3.85-1.15-6.76-3.65-10.05-5.71-3.44-2.16-6.66-5.69-11.46-5.03Zm85.64,120.01c-3.18,1.85-5.86,2.9-7.89,4.69-6,5.29-11.95,5.43-18.39,.89-.81-.57-1.37-1.26-2.09-1.85-6.58-5.43-8.74-5.59-16.2-1.15-2.99,1.78-5.99,3.55-8.9,5.46-2.62,1.72-4.89,1.96-7.72,.05-4.6-3.12-9.6-5.63-14.27-8.64-2.03-1.31-3.38-.41-4.95,.53-4.53,2.74-9.12,5.38-13.58,8.24-2.53,1.62-4.7,1.69-7.27-.01-4.35-2.88-8.99-5.32-13.34-8.21-2.3-1.52-4.08-1.33-6.29,.11-4.44,2.89-9.1,5.45-13.57,8.29-2.22,1.41-4.12,1.49-6.39,.05-4.61-2.92-9.38-5.61-14.05-8.44-1.59-.97-2.99-1.94-4.96-.61-2.74,1.86-5.79,3.26-8.45,5.21-4.2,3.09-2.04,7.69-1.8,11.48,.18,2.78,3.58,1.4,5.48,1.41,53.14,.08,106.29,.06,159.43,.06,.83,0,1.66-.05,2.49,.01,1.82,.13,2.75-.49,2.71-2.5-.09-4.74-.03-9.48-.03-15.06Zm-190.5,4.75c0,18.75,0,37.49,0,56.24,0,9.36,0,9.1,9.57,9.42,4.55,.15,5.49-1.4,5.47-5.66-.17-30.6-.11-61.21-.06-91.81,0-2.34-1.69-5.09-1.13-6.49,2.23-5.56,.84-11.13,1.01-16.65,.32-10.23,.09-10.06-10.21-10.15-3.81-.03-4.75,1.23-4.72,4.87,.15,20.07,.07,40.15,.07,60.22Zm70.06-21.39c1.83-7.27-.53-11.58-7.23-15.38-9.91-5.63-9.23-5.9-19.56-.45-6.58,3.47-8.47,7.67-8.65,15.02-.21,8.41,2.56,12.84,9.65,17.09,6.52,3.9,10.96,3.7,17.25-.19,6.57-4.06,11.28-7.9,8.53-16.09Zm120.07-.05c1.53-6.93-.09-11.63-6.95-15.71-7.35-4.37-12.68-4.9-19.9,.05-5.45,3.73-7.79,7.12-8.11,13.97-.41,8.93,2.05,14.23,10.23,18.23,8.69,4.25,8.35,4.94,16.16-.55,.27-.19,.44-.58,.72-.67,7.73-2.45,9.7-7.95,7.86-15.32Zm-114.18-.31c-2.18,7.68,.91,12.16,7.7,16.23,6.85,4.11,11.69,4.1,18.61-.08,6.61-3.99,8.46-8.21,8.67-15.61,.23-8.1-2.53-12.28-9.24-16.51-6.64-4.18-11.16-3.81-17.62,.05-6.6,3.94-10.65,7.91-8.12,15.9Zm-2.85-43.26c-4.81,0-9.62,.14-14.42-.05-2.89-.12-3.31,1.09-3.69,3.73-1.44,9.93,.98,17.42,11.34,20.85,1.53,.51,2.9,1.6,4.24,2.57,1.2,.86,2.45,1.22,3.7,.46,5.22-3.17,11.18-5.66,15.32-9.9,2.9-2.98,.57-8.55,.97-12.94,.01-.16-.02-.33,0-.5,.45-3.12-.62-4.5-4.03-4.29-4.46,.27-8.95,.07-13.42,.07Zm40.33,0c-1.33,0-2.66,0-3.98,0q-14.6,0-13.8,14.94c.2,3.67,15.53,14.23,18.73,12.52,5.38-2.87,11.53-5.18,15.31-9.85,2.66-3.29,.54-8.64,.87-13.05,.03-.33-.04-.67,0-.99,.42-2.9-.96-3.72-3.7-3.61-4.47,.18-8.96,.05-13.44,.05Zm-93.29,10.32c0,11.17,.86,12.49,10.4,16.88,1.3,.6,2.56,1.11,3.73,.32,4.92-3.3,11.18-5.06,14.8-9.66,2.67-3.4,.57-8.66,.93-13.07,.03-.33-.04-.67,0-.99,.44-3.18-1.16-3.94-4.05-3.85-5.13,.17-10.27,.05-15.4,.05q-10.42,0-10.41,10.32Zm85.33,139.42c4.48,0,8.96,0,13.44,0,9.58,0,9.37,0,9.51-9.4,.06-3.98-1.48-4.66-4.97-4.6-10.28,.19-20.57,.08-30.85,.06-10.29-.01-10.16-.03-9.87,10.4,.08,2.97,1.17,3.63,3.83,3.57,6.3-.14,12.61-.04,18.91-.04Zm84.99-123.13c0-5.84,0-10.96,0-16.09,0-11.4,0-11.33-11.65-10.58-2.31,.15-3.07,.84-3.24,3.18-1.06,14.08-1.12,14.08,11.08,21.37,.97,.58,1.98,1.1,3.81,2.11Zm-169.87,1.12v31.37c8.2-1.7,10.67-6.79,9.47-14.24-.23-1.46-.03-2.98-.03-4.48-.02-8.8-.33-9.22-9.44-12.65Z"/>
      <path class="cls-10" d="M256.19,45.2c-2.49,0-4.98,.11-7.46-.02-7.21-.39-11.9-7.01-9.8-13.88,.64-2.11,.52-3.75-.55-5.9-2.57-5.17-3.31-10.67-.43-16.14,1.89-3.59,4.47-6.14,8.81-6.2,1.18-.01,2.3-.12,3.3-.84,3.93-2.85,8.11-2.96,12.04-.35,4.75,3.16,5.92,8.14,5.73,13.51-.04,1.13-.52,2.25-.79,3.38-1.21,5.08,2.61,8.66,7.87,7.38,.63-.15,1.24-.43,1.85-.67,1.79-.73,3.07,.2,3.55,1.66,.49,1.48-.1,2.9-2.03,3.13-3.37,.39-4.34,2.16-4.37,5.6-.03,4.85-4.41,8.88-9.28,9.26-2.8,.22-5.63,.04-8.45,.04,0,.01,0,.02,0,.04Zm-11.07-36.02c-4.3,2.46-5.52,11.02-2.14,14.38,.94,.93,1.76,.64,2.64,.24,1.18-.55,1-1.54,.56-2.48-1.82-3.93-.97-8.08-1.09-12.16,.23-.14,.45-.27,.68-.41l-.57-.26c-.03,.23-.06,.46-.09,.69Zm4.91,5.7c.01,.19-.11,1.07,.13,1.83,.8,2.63,.28,5.98,4.62,6.42,4.54,.46,6.7-1.37,7.53-5.63,.55-2.84,.58-5.64-.4-8.31-.84-2.29-2.59-3.83-5.17-4.05-2.63-.22-4.29,1.17-5.55,3.35-1.05,1.82-1.1,3.78-1.15,6.39Zm10.76,25.18c5.84,0,8.23-1.85,8.22-5.97-.01-4.12-2.84-5.47-8.88-6.11-7.87-.83-3.72,5.28-4.47,7.83-1.09,3.69,2.16,4.81,5.13,4.25Zm-10.37-5.94c-1.06-1.93,1.43-5.35-1.87-5.72-3.16-.35-4.9,2.44-4.95,5.54-.05,2.99,1.09,6,4.52,5.87,4.22-.17,.96-3.94,2.31-5.69Z"/>
      <path class="cls-10" d="M288.73,192.63c-10.22,.26-14.25-4.18-12.85-13.84,.26-1.78-.8-2.76-1.51-3.99-2.74-4.75-3.95-9.7-2.39-15.14,2.09-7.26,16.21-13.7,22.93-10.4,4.97,2.43,7.78,9.16,6.82,16.3-.65,4.8,3.06,7.68,7.78,6.02,.62-.22,1.21-.54,1.84-.71,1.48-.41,3.09-.78,3.7,1.2,.52,1.67-.23,3.1-1.93,3.44-3.24,.65-3.34,2.78-3.32,5.46,.06,5.14-3.7,9.9-8.77,10.33-4.28,.37-8.44,1.81-12.32,1.34Zm8.06-29.5c.34-5.41-2.21-9.49-6.09-9.75-3.6-.24-6.19,2.88-6.42,7.73-.21,4.53,2.37,9.21,5.22,9.48,4.71,.44,6.94-1.84,7.29-7.45Zm.01,23.44c5.14,.02,8.2-2.19,7.96-6.06-.22-3.67-2.56-6.33-6.05-5.58-2.35,.51-6.8-1.53-7.12,2.69-.53,7.05,.96,8.93,5.21,8.94Zm-9.92-2.87c-.06-5.6-.76-7.52-2.65-7.07-2.69,.64-4.21,2.71-4.11,5.42,.11,2.87,1.59,5.18,4.71,5.4,3.15,.22,1.77-2.39,2.04-3.75Zm-7.02-26.5c-4.42,4.76-4.87,9.48-1.76,14.07,.5,.74,.65,2.33,2.45,1.44,1.79-.88,1.34-1.85,.72-3.19-1.69-3.65-2.07-7.52-1.41-12.32Z"/>
      <path class="cls-10" d="M12.68,145.27c-.35-9.26,4.4-15.91,11.34-14.29,5.26,1.22,11.47,2.33,14.77,7.61,3.43,5.48,2.35,11.14-.95,16.33-1.31,2.06-.96,4.04-.9,6.16,.17,6.43-3.92,10.73-10.35,10.55-4.29-.12-8.6-.52-12.84-1.19-5.06-.8-8.53-4.73-8.66-9.91-.06-2.42-.31-4.06-2.95-4.73-1.58-.4-2.7-1.59-1.83-3.35,.89-1.8,2.27-1.76,4.17-1.07,5.91,2.15,8.44,.17,8.2-6.1Zm15.76-2.52c-.78-2.9-.54-6.78-5.21-6.93-3.73-.12-5.53,2.92-5.47,8.78,.03,3.57,.4,6.63,5.24,6.21,3.17-.27,5.52-3.49,5.44-8.06Zm-11.94,12.94c-3.52-.69-6.41,.65-6.31,4.59,.09,3.44,2.48,5.23,6.34,5.46,4.67,.28,4.89-2.55,5.31-5.83,.55-4.28-2.03-4.52-5.34-4.22Zm10.13,7.74c-.32,1.51-.71,2.43,.17,2.94,.93,.54,2.21,.39,2.74-.38,1.49-2.16,3.42-4.35,1.58-7.28-.73-1.17-1.67-2.23-3.15-1.88-1.54,.36-.98,1.86-1.1,2.91-.18,1.47-.19,2.95-.24,3.69Zm6.42-22.95c-.16,3.4,.18,6.88-1.52,10.06-.41,.76-.65,1.58,.35,2.05,.53,.25,1.05,.57,1.76,.03,2.97-2.25,2.65-9.63-.59-12.13Z"/>
      <path class="cls-10" d="M274.99,88.88c-.28,3.3,4.87,3.61,3.98,7.23-3.34-1.72-6.68-3.44-10.78-5.56v6.18c0,62.21,0,124.42-.02,186.63,0,1.96,.42,3.99-.52,5.88-.18,.06-.34,.16-.48,.29-1.69,.73-3.42,.51-5.15,.21,5.99-6.43,3.82-14.4,3.95-21.86,.21-11.62,.42-23.26-.03-34.87-.59-15.21,.42-30.4,.15-45.6-.28-15.61-.06-31.22-.06-46.83s.04-30.89-.05-46.33c-.01-2.13,1.4-5.46-2.96-5.35-1.98,0-3.97-.01-5.95-.02,.02-6.01,.05-6.07,5.49-3.95,3.79,1.47,7.39,3.46,11.51,3.93,.31,0,.62,.01,.93,.02Z"/>
      <path class="cls-12" d="M267.17,289.53c.14-.13,.3-.23,.48-.29,0,0-.12,.41-.12,.41l-.36-.12Z"/>
      <path class="cls-5" d="M224.52,225.42c11.13,0,22.26,.19,33.38-.1,4.29-.11,5.26,1.39,5.21,5.41-.2,16.11-.08,32.22-.08,48.33,0,6.52-.49,7.1-7.03,7.13-14.28,.06-28.57,.02-42.86,.02-50.74,0-101.49,0-152.23,0-7.26,0-8.95-1.18-9.07-8.47-.27-16.11-.06-32.22-.12-48.33-.01-3.07,1.46-4.01,4.32-4.01,22.03,.05,44.07,0,66.1,.03,6.35,0,9.1,3.89,7.28,10.08-1.39,4.74,1.41,8.83,6.1,8.84,14.62,.01,29.24-.14,43.85,.1,4.04,.07,5.71-1.31,4.86-5.1-.82-3.68,1.6-6.91,.76-10.76-.53-2.46,2.52-3.23,5.13-3.21,11.46,.09,22.92,.04,34.38,.04Z"/>
      <path class="cls-3" d="M157.37,171.6c26.39,0,52.77,.09,79.16-.09,4.2-.03,5.82,.83,5.7,5.43-.32,12.77-.22,25.55-.05,38.33,.05,3.87-1.25,5.24-5.18,5.23-53.43-.09-106.87-.09-160.3,0-4.03,0-5.12-1.57-5.08-5.33,.15-12.77,.2-25.55-.02-38.33-.07-4.3,1.67-5.32,5.62-5.31,26.72,.12,53.43,.06,80.15,.06Z"/>
      <path class="cls-7" d="M156.6,29.14c4.8-.66,8.01,2.86,11.46,5.03,3.28,2.06,6.2,4.56,10.05,5.71,7.87,2.35,13.22,9.18,20.72,12.11,9.97,3.9,18.19,10.76,27.52,15.7,3.02,1.6,6.06,3.24,9.26,4.42,4.59,1.7,8.2,5.05,12.64,6.97,1.71,.74,3.23,2.17,2.64,4.29-.7,2.53-3.05,1.59-4.66,1.47-14.47-1.12-28.92-1.73-43.38,.07-4.84,.6-9.48-1.25-14.31-1.02-18.33,.88-36.69-.65-54.99,.22-10.42,.49-20.75-.34-31.12-.15-9.17,.17-18.33,.52-27.49,1.01-3.23,.17-6.16-1.22-9.33-1.11-.89,.03-1.73-.46-1.68-1.43,.09-1.72,.74-3.54,2.33-4.12,3.81-1.4,7.31-3.36,10.93-5.11,8.76-4.24,17.62-8.15,25.11-14.56,2.8-2.4,6.55-3.19,9.77-4.95,6.44-3.52,13.1-6.52,18.76-11.36,3.84-3.29,9.08-4.08,13.32-6.94,2.36-1.59,5.19-2.83,7.48-4.64,1.58-1.25,3.06-1.82,4.97-1.6Z"/>
      <path class="cls-6" d="M274.99,88.88c-.31,0-.62-.01-.93-.02-1.16-3.51-4.82-3.86-7.36-5.36-13.93-8.16-28.07-15.96-42.15-23.85-11.35-6.36-22.74-12.63-34.08-19.01-10.05-5.65-20.08-11.32-30.02-17.16-2.12-1.24-3.58-1.44-5.85-.23-14.66,7.84-28.86,16.51-43.56,24.3-14.14,7.49-27.71,16.06-41.64,23.96-13.45,7.63-27.05,15-40.56,22.52-1.9,1.06-3.81,2.59-5.61,.17-1.81-2.44-2.19-5.19-.28-7.82,2.62-3.61,6.61-5.46,10.31-7.6,8.57-4.97,17.21-9.83,25.85-14.68,23.43-13.16,46.89-26.27,70.3-39.45,8.04-4.53,16.02-9.17,23.98-13.85,3.35-1.97,5.68-.61,8.86,1.08,9.48,5.06,18.77,10.43,28.1,15.76,18.08,10.31,36.22,20.51,54.36,30.72,13.6,7.66,27.22,15.29,40.87,22.86,3,1.66,5.52,3.7,6.87,6.89,1.15,2.72-.22,4.86-2.03,6.68-1.84,1.85-3.25-.05-4.83-.74-3.6-1.59-6.64-4.35-10.63-5.16Z"/>
      <path class="cls-1" d="M242.24,149.15c0,5.58-.06,10.32,.03,15.06,.04,2.02-.89,2.63-2.71,2.5-.83-.06-1.66-.01-2.49-.01-53.14,0-106.29,.02-159.43-.06-1.9,0-5.3,1.38-5.48-1.41-.25-3.79-2.4-8.39,1.8-11.48,2.66-1.95,5.71-3.36,8.45-5.21,1.97-1.34,3.36-.36,4.96,.61,4.67,2.84,9.43,5.52,14.05,8.44,2.26,1.43,4.17,1.36,6.39-.05,4.47-2.84,9.13-5.41,13.57-8.29,2.21-1.44,3.99-1.63,6.29-.11,4.35,2.88,8.99,5.33,13.34,8.21,2.58,1.7,4.74,1.64,7.27,.01,4.46-2.86,9.05-5.5,13.58-8.24,1.56-.94,2.91-1.85,4.95-.53,4.67,3.02,9.68,5.53,14.27,8.64,2.83,1.92,5.1,1.68,7.72-.05,2.91-1.91,5.91-3.68,8.9-5.46,7.45-4.44,9.62-4.28,16.2,1.15,.71,.59,1.27,1.28,2.09,1.85,6.44,4.54,12.39,4.4,18.39-.89,2.03-1.78,4.7-2.83,7.89-4.69Z"/>
      <path class="cls-6" d="M257.06,88.89c1.98,0,3.97,.01,5.95,.02,0,41.8-.05,83.6,.11,125.4,.02,4.23-1.31,5.32-5.36,5.23-9.68-.21-9.68-.02-9.68-9.78,0-37.32,0-74.64,0-111.96q0-8.86,8.98-8.9Z"/>
      <path class="cls-6" d="M51.74,153.9c0-20.07,.08-40.15-.07-60.22-.03-3.63,.91-4.9,4.72-4.87,10.3,.09,10.53-.08,10.21,10.15-.17,5.51,1.22,11.08-1.01,16.65-.56,1.39,1.14,4.15,1.13,6.49-.05,30.6-.12,61.21,.06,91.81,.02,4.26-.92,5.81-5.47,5.66-9.57-.31-9.57-.06-9.57-9.42,0-18.75,0-37.49,0-56.24Z"/>
      <path class="cls-2" d="M121.8,132.51c2.75,8.2-1.96,12.04-8.53,16.09-6.3,3.89-10.73,4.09-17.25,.19-7.1-4.24-9.86-8.68-9.65-17.09,.18-7.36,2.07-11.55,8.65-15.02,10.33-5.45,9.65-5.18,19.56,.45,6.7,3.81,9.06,8.11,7.23,15.38Z"/>
      <path class="cls-11" d="M241.87,132.46c1.84,7.37-.13,12.87-7.86,15.32-.28,.09-.45,.48-.72,.67-7.81,5.5-7.47,4.8-16.16,.55-8.18-4-10.65-9.3-10.23-18.23,.32-6.85,2.66-10.23,8.11-13.97,7.23-4.95,12.55-4.41,19.9-.05,6.86,4.07,8.48,8.78,6.95,15.71Z"/>
      <path class="cls-11" d="M127.69,132.15c-2.53-7.99,1.52-11.96,8.12-15.9,6.46-3.86,10.98-4.24,17.62-.05,6.71,4.23,9.47,8.41,9.24,16.51-.21,7.4-2.06,11.61-8.67,15.61-6.92,4.18-11.75,4.18-18.61,.08-6.79-4.07-9.89-8.55-7.7-16.23Z"/>
      <path class="cls-2" d="M168.05,121.54c4.47-2.79,8.88-5.68,13.44-8.31,2.07-1.19,4.64-1.32,6.51,.25,.97,.81,2.11,.76,2.94,1.48,3.36,2.89,9.77,3.31,10.71,7.12,1.53,6.25,.51,13.13,.56,19.75,0,.16,.03,.39-.06,.48-4.5,4.46-10.43,6.73-15.67,10.06-2.54,1.61-4.7-.66-6.77-1.88-3.83-2.26-7.58-4.68-11.36-7.04-.1-7.31-.21-14.62-.31-21.92Z"/>
      <path class="cls-14" d="M124.83,88.89c4.48,0,8.96,.21,13.42-.07,3.41-.21,4.48,1.17,4.03,4.29-.02,.16,.01,.33,0,.5-.4,4.39,1.93,9.96-.97,12.94-4.14,4.25-10.09,6.74-15.32,9.9-1.24,.75-2.5,.4-3.7-.46-1.34-.96-2.71-2.06-4.24-2.57-10.36-3.43-12.78-10.92-11.34-20.85,.38-2.64,.8-3.85,3.69-3.73,4.8,.19,9.61,.05,14.42,.05Z"/>
      <path class="cls-15" d="M165.17,88.89c4.48,0,8.97,.13,13.44-.05,2.74-.11,4.11,.71,3.7,3.61-.05,.33,.02,.66,0,.99-.34,4.42,1.79,9.77-.87,13.05-3.78,4.67-9.93,6.98-15.31,9.85-3.2,1.7-18.53-8.85-18.73-12.52q-.8-14.93,13.8-14.94c1.33,0,2.66,0,3.98,0Z"/>
      <path class="cls-14" d="M188.23,89.1c10.28-.07,20.56-.09,30.85-.25,2.35-.04,3.3,.71,3.14,3.11-.34,4.94,1.97,11.13-.84,14.53-3.69,4.46-9.98,6.79-15.18,9.97-1.07,.65-2.18,.43-3.27-.27-4.86-3.1-9.76-6.16-14.64-9.23-.02-5.96-.03-11.92-.05-17.88Z"/>
      <path class="cls-15" d="M71.87,99.21q0-10.32,10.41-10.32c5.13,0,10.27,.13,15.4-.05,2.89-.1,4.49,.66,4.05,3.85-.05,.32,.02,.66,0,.99-.36,4.41,1.74,9.67-.93,13.07-3.62,4.6-9.87,6.36-14.8,9.66-1.18,.79-2.44,.28-3.73-.32-9.53-4.39-10.39-5.71-10.4-16.88Z"/>
      <path class="cls-2" d="M157.2,238.63c-6.3,0-12.61-.1-18.91,.04-2.66,.06-3.75-.6-3.83-3.57-.29-10.43-.41-10.42,9.87-10.4,10.28,.01,20.57,.12,30.85-.06,3.49-.06,5.03,.62,4.97,4.6-.14,9.39,.07,9.4-9.51,9.4-4.48,0-8.96,0-13.44,0Z"/>
      <path class="cls-15" d="M242.19,115.5c-1.83-1.01-2.84-1.53-3.81-2.11-12.2-7.29-12.14-7.29-11.08-21.37,.18-2.34,.93-3.03,3.24-3.18,11.66-.76,11.66-.83,11.65,10.58,0,5.13,0,10.25,0,16.09Z"/>
      <path class="cls-9" d="M72.32,116.62c9.12,3.43,9.43,3.85,9.44,12.65,0,1.49-.2,3.02,.03,4.48,1.2,7.45-1.27,12.54-9.47,14.24v-31.37Z"/>
      <path class="cls-13" d="M168.05,121.54c.1,7.31,.21,14.62,.31,21.92-1.95-7.28-1.26-14.6-.31-21.92Z"/>
      <path class="cls-13" d="M188.23,89.1c.02,5.96,.03,11.92,.05,17.88-1.58-5.95-1.56-11.91-.05-17.88Z"/>
      <path class="cls-16" d="M250.02,14.88c.06-2.61,.1-4.57,1.15-6.39,1.26-2.17,2.92-3.57,5.55-3.35,2.58,.22,4.33,1.76,5.17,4.05,.98,2.67,.96,5.47,.4,8.31-.83,4.26-2.99,6.09-7.53,5.63-4.34-.44-3.82-3.79-4.62-6.42-.23-.77-.12-1.64-.13-1.83Z"/>
      <path class="cls-4" d="M260.79,40.06c-2.97,.56-6.22-.56-5.13-4.25,.75-2.55-3.4-8.66,4.47-7.83,6.04,.64,8.87,1.99,8.88,6.11,.01,4.13-2.38,5.97-8.22,5.97Z"/>
      <path class="cls-14" d="M250.42,34.12c-1.34,1.76,1.91,5.53-2.31,5.69-3.42,.14-4.57-2.88-4.52-5.87,.05-3.1,1.8-5.89,4.95-5.54,3.3,.37,.81,3.79,1.87,5.72Z"/>
      <path class="cls-16" d="M245.09,9.17c.12,4.07-.73,8.23,1.09,12.16,.44,.94,.62,1.93-.56,2.48-.88,.41-1.7,.69-2.64-.24-3.38-3.36-2.16-11.92,2.14-14.38l-.02-.02Z"/>
      <path class="cls-16" d="M245.12,9.19c.03-.23,.06-.46,.09-.69,.19,.09,.38,.18,.57,.26-.23,.14-.45,.27-.68,.41,0,0,.02,.02,.02,.02Z"/>
      <path class="cls-16" d="M296.79,163.13c-.35,5.61-2.58,7.89-7.29,7.45-2.85-.27-5.44-4.95-5.22-9.48,.23-4.85,2.82-7.97,6.42-7.73,3.88,.26,6.43,4.34,6.09,9.75Z"/>
      <path class="cls-4" d="M296.8,186.57c-4.25-.01-5.74-1.89-5.21-8.94,.32-4.22,4.77-2.19,7.12-2.69,3.49-.75,5.83,1.91,6.05,5.58,.23,3.86-2.82,6.07-7.96,6.06Z"/>
      <path class="cls-14" d="M286.88,183.7c-.27,1.36,1.11,3.97-2.04,3.75-3.13-.22-4.61-2.52-4.71-5.4-.1-2.71,1.42-4.78,4.11-5.42,1.89-.45,2.59,1.47,2.65,7.07Z"/>
      <path class="cls-16" d="M279.87,157.2c-.67,4.8-.28,8.67,1.41,12.32,.62,1.34,1.07,2.31-.72,3.19-1.8,.89-1.95-.7-2.45-1.44-3.1-4.59-2.66-9.31,1.76-14.07Z"/>
      <path class="cls-16" d="M28.43,142.75c.09,4.57-2.27,7.78-5.44,8.06-4.84,.42-5.21-2.64-5.24-6.21-.06-5.86,1.75-8.9,5.47-8.78,4.67,.15,4.44,4.03,5.21,6.93Z"/>
      <path class="cls-4" d="M16.5,155.69c3.31-.3,5.89-.06,5.34,4.22-.42,3.28-.64,6.11-5.31,5.83-3.86-.23-6.25-2.03-6.34-5.46-.1-3.93,2.78-5.27,6.31-4.59Z"/>
      <path class="cls-14" d="M26.63,163.43c.04-.74,.06-2.23,.24-3.69,.13-1.05-.43-2.55,1.1-2.91,1.48-.35,2.42,.71,3.15,1.88,1.83,2.93-.1,5.12-1.58,7.28-.53,.77-1.81,.92-2.74,.38-.88-.51-.49-1.43-.17-2.94Z"/>
      <path class="cls-16" d="M33.04,140.48c3.24,2.5,3.57,9.89,.59,12.13-.71,.54-1.24,.22-1.76-.03-1-.47-.76-1.29-.35-2.05,1.7-3.17,1.36-6.65,1.52-10.06Z"/>
    </g>
  </g>
</svg>