<?xml version="1.0" encoding="UTF-8"?>
<svg id="Layer_2" data-name="Layer 2" xmlns="http://www.w3.org/2000/svg" viewBox="0 0 255.16 182.36">
  <defs>
    <style>
      .cls-1 {
        fill: #3a9892;
      }

      .cls-2 {
        fill: #edf4f0;
      }

      .cls-3 {
        fill: #fff;
      }

      .cls-4 {
        fill: #33948f;
      }

      .cls-5 {
        fill: #f79548;
      }

      .cls-6 {
        fill: #73c7bb;
      }

      .cls-7 {
        fill: #73c5b9;
      }

      .cls-8 {
        fill: #8cd0c5;
      }

      .cls-9 {
        fill: #7ac697;
      }

      .cls-10 {
        fill: #2d9270;
      }

      .cls-11 {
        fill: #d474a1;
      }

      .cls-12 {
        fill: #fdd7c9;
      }

      .cls-13 {
        fill: #f9e9ed;
      }

      .cls-14 {
        fill: #319270;
      }

      .cls-15 {
        fill: #e3a638;
      }

      .cls-16 {
        fill: #82cec2;
      }

      .cls-17 {
        fill: #f3ca1a;
      }

      .cls-18 {
        fill: #fcf6f2;
      }

      .cls-19 {
        fill: #2f9371;
      }

      .cls-20 {
        fill: #78c596;
      }

      .cls-21 {
        fill: #f8b49c;
      }

      .cls-22 {
        fill: #8cd0bc;
      }

      .cls-23 {
        fill: #2f9271;
      }

      .cls-24 {
        fill: #f17d22;
      }

      .cls-25 {
        fill: #389892;
      }

      .cls-26 {
        fill: #d476a2;
      }

      .cls-27 {
        fill: #9cb;
      }

      .cls-28 {
        fill: #86cfc4;
      }

      .cls-29 {
        fill: #8cd0c0;
      }

      .cls-30 {
        fill: #f1a731;
      }

      .cls-31 {
        fill: #81cdc1;
      }

      .cls-32 {
        fill: #fab49c;
      }

      .cls-33 {
        fill: #8cd1c5;
      }

      .cls-34 {
        fill: #e6f1ec;
      }

      .cls-35 {
        fill: #d275a3;
      }

      .cls-36 {
        fill: #3c9791;
      }

      .cls-37 {
        fill: #379675;
      }

      .cls-38 {
        fill: #ffefe5;
      }

      .cls-39 {
        fill: #77c6bb;
      }

      .cls-40 {
        fill: #359590;
      }

      .cls-41 {
        fill: #f3aa26;
      }

      .cls-42 {
        fill: #77c696;
      }

      .cls-43 {
        fill: #80ccc0;
      }

      .cls-44 {
        fill: #d880a9;
      }

      .cls-45 {
        fill: #f2c91c;
      }

      .cls-46 {
        fill: #d775a4;
      }

      .cls-47 {
        fill: #32948f;
      }

      .cls-48 {
        fill: #78c394;
      }

      .cls-49 {
        fill: #76c595;
      }

      .cls-50 {
        fill: #ec7624;
      }

      .cls-51 {
        fill: #77c596;
      }

      .cls-52 {
        fill: #fcfdfc;
      }

      .cls-53 {
        fill: #fffffe;
      }

      .cls-54 {
        fill: #f3c91b;
      }

      .cls-55 {
        fill: #e3efea;
      }

      .cls-56 {
        fill: #cd76a2;
      }

      .cls-57 {
        fill: #f9b49b;
      }

      .cls-58 {
        fill: #cee8d7;
      }

      .cls-59 {
        fill: #f2aa28;
      }

      .cls-60 {
        fill: #89cfbd;
      }

      .cls-61 {
        fill: #f2a92b;
      }

      .cls-62 {
        fill: #79c498;
      }

      .cls-63 {
        fill: #81ccc0;
      }

      .cls-64 {
        fill: #f3ca1d;
      }

      .cls-65 {
        fill: #7ecbb2;
      }

      .cls-66 {
        fill: #f3c91c;
      }

      .cls-67 {
        fill: #79c5ba;
      }

      .cls-68 {
        fill: #7ac798;
      }

      .cls-69 {
        fill: #cfe4db;
      }

      .cls-70 {
        fill: #7ecdc0;
      }

      .cls-71 {
        fill: #ec7724;
      }

      .cls-72 {
        fill: #8ad0c5;
      }

      .cls-73 {
        fill: #8ed1c2;
      }

      .cls-74 {
        fill: #f4cd21;
      }

      .cls-75 {
        fill: #f2aa27;
      }

      .cls-76 {
        fill: #f0a639;
      }

      .cls-77 {
        fill: #f17e23;
      }

      .cls-78 {
        fill: #8dd1c6;
      }

      .cls-79 {
        fill: #f2c71b;
      }

      .cls-80 {
        fill: #74c5ba;
      }

      .cls-81 {
        fill: #8fd2c4;
      }

      .cls-82 {
        fill: #8bd0c0;
      }

      .cls-83 {
        fill: #def0e4;
      }

      .cls-84 {
        fill: #2f9270;
      }

      .cls-85 {
        fill: #329372;
      }

      .cls-86 {
        fill: #7ac799;
      }

      .cls-87 {
        fill: #d671a4;
      }

      .cls-88 {
        fill: #79c797;
      }

      .cls-89 {
        fill: #8cd1c4;
      }

      .cls-90 {
        fill: #f3c81c;
      }

      .cls-91 {
        fill: #83cec2;
      }

      .cls-92 {
        fill: #d774a4;
      }

      .cls-93 {
        fill: #f8f3eb;
      }

      .cls-94 {
        fill: #f0a539;
      }

      .cls-95 {
        fill: #f9b49c;
      }

      .cls-96 {
        fill: #34948f;
      }

      .cls-97 {
        fill: #379591;
      }

      .cls-98 {
        fill: #78c497;
      }

      .cls-99 {
        fill: #d771a4;
      }

      .cls-100 {
        fill: #f3c91a;
      }

      .cls-101 {
        fill: #76c495;
      }

      .cls-102 {
        fill: #2e9270;
      }

      .cls-103 {
        fill: #d673a3;
      }

      .cls-104 {
        fill: #f4cd23;
      }

      .cls-105 {
        fill: #d772a4;
      }

      .cls-106 {
        fill: #fefefe;
      }

      .cls-107 {
        fill: #f2c61c;
      }
    </style>
  </defs>
  <g id="Layer_1-2" data-name="Layer 1">
    <g>
      <path class="cls-88" d="M187.15,150.19c-.43-11.65,.43-23.37-.94-34.95-1.27-10.72-3.8-21.24-9.66-30.6-1.97-1.52-3.32-3.57-4.73-5.56-.73-1.04-1.34-2.18-.2-3.3,1.24-1.21,2.54-.65,3.64,.21,1.8,1.39,2.86,3.31,3.49,5.47,2.94,5.57,5.95,11.12,7.66,17.23,1.08,.9,.97-.36,1.33-.74,1.46-18.87,4.35-37.49,9.62-55.7,.17-.59,.18-1.23,.27-1.84,.17-2.56,.36-5.1,1.61-7.43,.76-1.42,1.75-2.51,3.49-2.01,1.9,.55,2.32,2.13,1.97,3.84-.42,2.03-.73,4.16-2.43,5.66-4.03,12.29-6.49,24.95-8.27,37.71-2.14,15.37-3.25,30.85-3.18,46.4,0,.83,0,1.65,.39,2.54,1.49-4.27,2.98-8.54,4.48-12.81,2.9-8.23,7.11-15.84,11.19-23.5,1.41-2.64,2.57-5.36,3.39-8.23,.51-1.42,1.52-1.43,2.65-.86,1.2,.6,1.84,1.64,1.77,2.97-.1,2.02-.85,3.79-2.4,5.17-9.84,16.79-17.41,34.47-20.56,53.79-.83,5.1-.1,10.24,.99,15.36,1.15-4.13,2.3-8.25,3.44-12.38,2.79,1.29,1.16,3.84,1.66,5.78-.04,1.9,.07,3.8-.15,5.69-1.97,5.48-4.57,10.75-5.86,16.49-.24,1.08-1.29,3.09-2.31,1.22-2.63-4.8-6.82-8.98-6.82-14.99,.41-1.69,.87-3.37,1.24-5.07,.26-1.2,.51-2.53,2.26-2.39,.07,.21,.14,.41,.24,.61,.59,.77,1.12,1.55,.93,2.3-.36-1.83,.64-3.95-.21-6.06Z"/>
      <path class="cls-32" d="M53.25,59.34c.9-15.03,4.34-29.61,7.79-44.2,.43-1.8,.9-3.59,2.04-5.47,1.7,11.95,3.31,23.92,5.13,35.86,1.87,12.23,1.75,24.47,.73,36.74-.86,1.57,.74,3.15-.04,4.72-.29,.99-.43,1.99-.28,3.03-.04,2.63-.99,5.08-1.53,7.61-.71,1.68-1.01,3.62-2.95,4.5-.63,.08-1.18-.07-1.65-.51-3.12-5.75-4.1-12.15-5.52-18.41-1.51-6.64-2.62-13.36-4.12-20.01-.3-1.31-.74-2.68,.4-3.86Z"/>
      <path class="cls-78" d="M183.38,160.76c-.4,3,1.59,5.05,2.88,7.4,1.36,2.48,2.57,5.04,4.18,8.22,1.55-6.61,3.55-12.41,6.37-17.91,.64-2,.62-3.99,.02-5.99-.26-1.96,.66-4.04-.64-5.88,1.32-1.58-.58-4.31,1.96-5.46,1.12,3.42,1.13,6.97,1.12,10.96,2.71-4.27,5.24-8.07,5.14-12.93,.21-.51,.53-.91,1.1-1.04,.67-.31,.77,2.37,1.85,.3,1.46-2.79,3.32-5.35,5.15-7.91,.52-.66,1.15-1.23,1.61-1.94,1.84-3.57,5.45-6.1,6.02-10.39,.2-.49,.52-.86,1.04-1.01,2.12,.08,2.85-1.73,3.86-3.01,1.3-1.64,2.79-3.11,4.14-4.7,.77-.95,1.61-1.84,2.35-2.82,.67-.89,1.37-1.77,2.22-2.47,3.84-3.15,6.18-6.94,5.52-12.14-.14-1.12,.28-2.18,.9-3.14,.29-.64,.84-.75,1.46-.72,1.55,2.97-.05,5.69-.21,8,3.77-3.56,6.85-8.69,11.45-12.41,.4-.78,.91-1.73,1.88-1.2,.73,.4,.32,1.29-.08,1.95-1.4,2.28-2.78,4.57-4.17,6.86-.66,1.04-1.5,1.94-2.13,2.97,.59-.04,.52-1.37,1.47-.91,.28,1.59-.34,2.81-1.54,3.8-.99,1.96-2.89,2.91-4.57,4.13-3.69,2.68-6.65,6.04-8.97,9.97-.27,.64-.58,1.26-1.01,1.82-3.55,2.2-5.59,5.83-8.38,8.75-.68,.74-.35,1.88-1.01,2.63-2.92,2.44-4.83,5.71-7.04,8.71-.44,.73,.13,1.63-.37,2.36-3.19,2.33-4.69,5.9-6.68,9.1-.3,.48,.11,.92,.33,1.34,.13,.51,.05,.98-.25,1.41-2.91,1.02-3.67,3.87-5.16,6.09-.9,1.33-1.39,2.92-2.47,4.15-.87,.49-.26,1.41-.59,2.06-2.44,4.32-4.42,8.85-5.94,13.56-.54,1.68-1.41,3.15-2.37,4.59-1.79,4.37-1.89,4.4-5.04,1.22-1.62-1.64-3.17-3.35-4.74-5.03-.88-1.78-2.34-3.18-3.12-5.03-1.54-3.63-4.05-6.14-8.07-6.87-.91-.43-1.51-1.1-1.62-2.13,1.18-1.58,2.78-.02,4.28-.59-.87-3-2.76-5.48-4.02-8.25-.28-1.19-1.01-2.15-1.59-3.18-1.54-3.68-3.72-7.1-4.49-11.08-.02-.96,.27-1.84,.69-2.69,1.09-1.38,1.49-3.5,3.79-3.61,.27,.24,.47,.54,.59,.88-.46,5.54,3.39,9.64,4.88,14.82,.76-1.16,.94-2.47,2.11-3.03,.89,.06,1.15,.7,1.31,1.43-2.1,5.94,.84,10.48,4.15,14.91,.45,.23,.82,.49,.44,1.06Z"/>
      <path class="cls-102" d="M113.18,172.03c-1.02,2.95-3.41,5.35-2.64,9.01,.42,1.98-1.39,1.25-2.16,.52-2.5-2.4-4.88-4.93-7.31-7.41-.89-1.41,.22-2.11,1.14-2.57,1.72-.86,1.83-2.08,1.23-3.64-.26-1.08-.53-2.16-.84-3.23-.3-1.82-.27-3.68-.87-5.46-.46-12.6-.61-25.2,1.16-37.73,.16-1.28,.07-2.58,.19-3.87,.02-.84,.04-1.67,.19-2.5,.37-1.59,.56-3.2,.67-4.83,1.35-8.8,2.41-17.65,4.59-26.31,.72-2.55,1.05-5.18,1.59-7.77,.76-1.4,1.55-2.73,3.39-1.27-2.8,12-5.69,23.98-6.51,36.33,.33,1.3,.29,2.63,.26,3.96-.02,.78-.12,1.56-.28,2.32-.38,1.58-.38,3.18-.36,4.79-.24,4.96-1.16,9.87-1.14,14.85-1.04,4.17-.9,8.41-1.02,11.77-.51-1.74,.51-4.34,.38-6.95,.73-6.63,1.02-13.33,2.61-19.84,.2-1.55,.62-3.05,1-4.55,.22-.89,.54-1.75,.67-2.67,.13-1.13,.5-2.13,1.47-2.81,5.61-23.31,14.35-45.33,27.03-65.74,.13-.11,.26-.21,.39-.32,.53-.13,1-.07,1.31,.45-8.92,15.46-16.78,31.42-22.13,48.51-1.84,5.89-3.64,11.81-4.75,17.9,.58,.85,.24,1.73,.12,2.61-.08,.73-.18,1.45-.31,2.18-.36,1.49-.52,3.01-.83,4.51-3.5,16.94-5.19,34.01-3.46,48.69,2.05-15.23,7.08-32.23,14.89-48.4,.58-.87,.91-1.85,1.14-2.86,.26-.47,.63-.76,1.19-.76,1.66-1.09,1.77-3.16,2.9-4.58,.72-.55,1.45-.61,2.21-.09-.83,4.69-3.44,8.65-5.39,12.86-5.11,11.08-8.71,22.63-11.46,34.48-.2,.85-.13,1.73-.19,2.59-1.48,2.59,.28,5.22-.09,7.83Z"/>
      <path class="cls-24" d="M159.54,57.43c-.07-3.85-.05-7.71-.23-11.56-.14-3.08,1.72-3.77,4.21-3.95,2.98-.21,2.63,1.86,2.64,3.74,.03,4.09-.19,8.2,1.03,12.66,1.28-3.91,2.48-7.36,2.85-11.09,.13-1.31-.51-3.93,1.74-3.73,2.17,.2,4.25,1.81,4.1,4.51-.27,4.6-1.1,9.12-2.99,13.38-4.3,2.62-8.83,4.93-12.37,8.64-1.45,1.52-3.35,.23-4.91,.9-3.51,.33-6.97-.21-10.41-.72-1.56-.23-4.05-.17-3.67-2.68,.38-2.55,2.77-2.74,4.74-2.28,3.59,.85,7.16,.6,10.84,.39-4.75-2.15-9.7-3.84-14.16-6.53-1.09-.66-3.54-.74-2.63-2.76,.74-1.64,2.86-2.15,4.61-1.53,2.52,.89,4.91,2.18,7.96,3.58-1.96-3.86-4.06-7.05-5.08-11.14,3.43,.18,6.23,.91,7.49,4.56,.81,2.34,1.76,4.65,3.44,6.55,1.36,.62,.87-.34,.8-.93Z"/>
      <path class="cls-41" d="M142.95,45.6c-.49,0-.98,0-1.47,0-.39-1.72,1.07-2.4,1.97-3.32,3.12-3.23,5.49-6.94,7.38-10.98-2.35,5.09-5.63,9.51-9.79,13.28-1.32,1.2-2.67,2.09-3.89-.13-.9-6.51-.61-12.83,2.97-18.65,.04-.49-.85-.12-.36-.13,.2,0,.26,.12,.15,.33-2.62,5.2-4.12,10.6-3.04,16.49,.14,.74-.02,1.49-.73,1.98-3.86-7.92-2.28-15.66,1.1-23.16,1.73-3.84,4.48-7.09,7.89-9.7,1.81-1.39,3.5-2.61,5.3-.08,.85,1.19,1.45,.14,2.14-.2,3.5,.42,5.49,2.37,6.12,6.28,.4,2.46,.57,5.03-.11,7.42-2.51,8.87-6.51,16.68-15.64,20.55Z"/>
      <path class="cls-41" d="M104.9,72.47c-3.48-4.88-6.3-9.98-6.05-16.26,.23-5.77,2.18-11.06,4.22-16.37,.93-2.44,3.46-.88,4.57-2.41,4.1-1.21,5.39-.91,7.49,2.55,5.03,8.26,7.45,16.98,4.38,26.62-.74,2.32-2.31,4.07-3.55,6.05-.71,.51-1.43,1.02-2.14,1.52-.8-.95-.2-1.91,.07-2.79,1.54-4.98,1.65-10.12,1.74-15.25-.49-1.18-.06-2.63-.97-3.7,.93,1.29,.51,2.92,1.01,4.32-.3,4.81-.19,9.67-1.78,14.31-.47,1.37-.59,3.01-2.43,3.4-4.24-2.21-5.55-6.44-6.97-10.47-.7-2-1.14-4.2-1.17-6.4,.02,6.08,2.94,11.14,5.7,16.25-.01,.36-.11,.7-.31,1.01-1.95,.3-2.89-1.03-3.82-2.38Z"/>
      <path class="cls-32" d="M55.42,106.07c-4.16-1.54-8.42-2.87-12.47-4.66-14.55-6.45-25.09-17.14-32.38-31.16-1.59-3.06-3.24-6.08-5.17-9.7,3.67,1.22,5.95,3.52,8.48,5.31,14.02,9.85,28.34,19.32,40.63,31.42,.39,.39,1.1,.46,1.66,.67,3.23,1.58,3.81,4.82,4.88,7.76-.45,1.66-1.66,2.01-3.17,1.81-.95-.25-1.9-.5-2.44-1.44Z"/>
      <path class="cls-24" d="M214.2,66.46c-.53-5.19-.66-10.35,.57-15.48,.49-2.05,1.2-3.81,3.64-4.05,2.55-.25,4,1.27,3.46,3.79-.55,2.53-1.25,5.03-1.17,7.66-.19,.3-.29,.66-.01,.89,.36,.3,.52-.1,.7-.33,.74-2.61,1.56-5.21,2.2-7.85,.49-2.02,1.37-3.19,3.58-2.26,1.91,.8,4.18,1.42,3.16,4.39-1.32,3.83-2.75,7.62-3.63,12.51,3.76-3.11,6.11-6.33,8.23-9.75,1.16-1.87,2.07-4.42,4.98-2.61,2.49,1.55,2.53,3.74,.92,6.06-.18,.26-.2,.63-.43,1.4,2.1-.89,4-1.13,5.94-.92,.77,.08,1.65,.21,1.92,.92,.32,.86-.65,1.19-1.16,1.7-4.56,4.52-10.06,7.54-15.91,10-1.71,.48-2.82-.69-3.88-1.61-3.43-2.95-7.21-4.63-11.83-3.89-.51,.08-.96-.12-1.26-.57Z"/>
      <path class="cls-10" d="M62.86,101.67c.53,0,1.06-.02,1.59-.02,2.1,.15,2.02,1.86,2.37,3.27,.05,.37,.06,.75,.06,1.12,.01,.37,0,.75-.04,1.12-.07,.76-.32,1.45-.88,1.99-.6,11.63,1.05,23.04,3.32,34.41,2.1,10.51,5.63,20.57,9.54,30.51,.36,.92,.72,1.85,.93,2.81,.43,1.88,1.55,4.38-.77,5.3-2.2,.86-3.46-1.58-4.37-3.25-5.68-10.36-8.54-21.66-10.88-33.12-2.48-12.15-2.45-24.46-2.24-36.78-1.19-1.4,.36-2.89-.14-4.31-.06-.97,.02-1.91,.52-2.78,.26-.35,.6-.44,1-.26Z"/>
      <path class="cls-41" d="M127.17,111.75c-2.1-5.81,0-11.22,1.85-16.53,1.48-4.21,3.84-8.06,6.93-11.35,3.13-3.34,4.68-3.45,8.27-.69,.71,.55,1.1,.08,1.62-.12,3.85,.84,5.27,2.62,4.71,6.94-.87,6.63-3.14,12.78-7.63,17.9-1.72,1.95-3.56,3.81-5.62,5.44-1.2,.68-2.42,1.28-3.84,.64-1.06-1.61,.35-2.23,1.27-2.91,3.05-2.26,5.37-5.16,6.69-7.1-1.65,2.8-5.02,5.86-8.66,8.65-2.7,2.07-3.85,1.57-4.19-1.94-.46-4.69,.36-9.16,2.74-13.29,.47-.89,1.15-1.63,1.67-2.48-.56,.9-1.34,1.63-1.83,2.59-1.94,3.38-2.68,7.08-3.01,10.9-.1,1.18,.25,2.51-.98,3.36Z"/>
      <path class="cls-75" d="M65.97,105.65c-.2-1.45-.14-2.99-1.52-3.99,.66-1.5,1.08-3.13,2.31-4.32,.56-2.2,1.64-4.17,2.9-6.01,4.85-7.03,6.5-14.89,6.56-23.28,.05-7.37,1.79-14.22,6.72-20.06,5.61-6.65,9.62-14.14,11.44-22.74,.43-2.05,1.17-4.05,2.1-5.95,.26-.16,.73-1.72,.75-.22,.06,6.36,.71,12.75-.63,19.06-.93,4.11-3.21,7.52-5.93,10.58-6.06,6.82-8,14.98-7.97,23.77,0,3.17-.53,6.13-1.78,9-.46,.89-.93,1.77-1.39,2.66-1.13,1.01,.37,2.29-.34,3.35-1.25,3.34-3.46,6.15-5.13,9.26-1.93,2.05-3.21,4.58-4.98,6.75-.82,1.01-1.46,2.33-3.12,2.14Z"/>
      <path class="cls-59" d="M62.47,101.88l-.41,2.85c-.28,.55-.52,1.15-1.33,.72-1.52-2.5-3.05-5-4.57-7.5-3.22-6.1-7.2-11.82-8.94-18.63-1.54-3.21-1.92-6.63-1.68-10.13,.58-8.66-1.76-16.32-7.33-23.09-4-4.86-6.22-10.6-7.18-16.82v-12.51c1.77,1.24,2.3,3.07,3,4.78,.75,1.84,1.43,3.7,1.87,5.65,1.72,7.65,5.07,14.48,9.78,20.77,4.36,5.83,6.7,12.5,6.32,19.89-.51,9.77,1.79,18.74,7.26,26.89,1.46,2.17,2.5,4.58,3.21,7.11Z"/>
      <path class="cls-87" d="M62.47,101.88c-7.4-10.55-12.52-21.77-11.53-35.15,.5-6.79-1.95-12.96-6.17-18.28-6.27-7.92-9.59-16.95-10.75-26.88,8.27,11.65,15.44,23.85,19.23,37.78,2.64,12.85,4.65,25.84,8.53,38.41,.4,1.3,.73,2.61,1.08,3.92-.12,.09-.25,.16-.39,.21Z"/>
      <path class="cls-24" d="M196.82,20.37c-4.08-3.53-6.32-8.11-7.88-13.19-.83-2.69,.87-2.99,2.55-3.43,1.69-.44,3.5-1.5,4.2,1.6,.76,3.34,2.09,6.56,4.84,9.59,.43-4.39,.93-8.27,1.16-12.17,.13-2.3,1.15-3.18,3.26-2.59,1.96,.55,4.2,.84,3.59,4.03-.63,3.28-.76,6.64-.55,10.27,1.97-3.18,3.92-6.37,5.91-9.53,.52-.83,1.01-1.77,1.74-2.38,1.29-1.07,2.99-1.84,4.46-.77,1.7,1.24,.27,2.69-.43,3.9-2.54,4.38-5.14,8.72-7.73,13.08-1.77,1.19-3.31-.12-4.87-.55-3.82-1.04-7.27-.67-10.25,2.14Z"/>
      <path class="cls-87" d="M96.49,19.29c-1.27,10.46-4.81,20.01-11.78,28.03-5.25,6.05-7.65,13.07-7.44,20.9,.3,11.14-3.75,20.57-10.51,29.1-.46-2.69,.91-5.07,1.34-7.6-.23-.92,.36-1.68,.48-2.53-.03-1.26,.12-2.47,1.01-3.46,2.21-8.88,4.21-17.81,6.67-26.62,3.07-10.98,9.04-20.57,15.27-30,1.7-2.58,3.31-5.21,4.96-7.82Z"/>
      <path class="cls-32" d="M214.2,66.46c4.9-1.6,9.08-.02,12.95,2.93,1.35,1.03,2.69,2.09,4.03,3.14-3.93,8.33-10.19,14.13-18.86,17.31,.48-1.37,1.01-2.72,1.42-4.11,.79-2.73-.37-3.78-3.43-3.17-.37-4.89,.64-9.45,3.15-13.69,.42-.71,.51-1.6,.76-2.41Z"/>
      <path class="cls-88" d="M177.44,143.6c-.56,1.34-1.12,2.69-1.91,4.6-2.15-4.6-3.98-8.64-5.91-12.63-.71-1.45,.58-2.61,.32-3.95,.52-1.03,.3-2.13,.25-3.21-.2-.85-.57-1.66-.74-2.5-.49-2.48-1.64-3.82-4.37-2.81-.46,.17-.98-.03-1.44-.26-1.72-1.91-2.63-4.12-2.56-6.71,.21-.94,.49-1.87,.78-2.79,.64-1.72,.98-3.5,1.2-5.33,.19-1.56,0-3.57,2.29-4.02,3.01,5.02,6.02,10.04,9.03,15.06,0,.12,.03,.24,.02,.35-.1,.79-1.24,1.46-.68,2.18,.62,.79,1.23-.94,2.09-.38,.16,3.86,2.65,6.86,3.87,10.32,.04,4.17,1.2,8.55-2.23,12.08Z"/>
      <path class="cls-95" d="M104.9,72.47c1.64,.15,2.34,1.68,3.57,2.42,1.04-.04,1.72,.6,2.38,1.28,.19,2.62-.72,5.04-1.3,7.53-5.76,7.51-12.91,13.24-21.72,16.82-1.16-.34-1.82-1.22-2.39-2.2-.42-.84-.7-1.7-.38-2.65,4.07-4.18,9.3-6.91,13.62-10.79,1.18-1.06,2.55-1.92,3.75-3.45-6.1,1.87-11.29,4.81-16.13,8.43-1.16,.86-2.11,2.2-3.88,1.7-.83-.58-1.41-1.24-.76-2.31,6.38-4.81,12.73-9.65,19.15-14.41,1.26-.93,2.42-2.12,4.1-2.37Z"/>
      <path class="cls-57" d="M196.82,20.37c0-1.92,1.03-2.67,2.85-3.23,4.42-1.38,8.26,.49,12.26,1.65,.15-.12,.31-.13,.47-.04,1.57,1.16,2.91,2.44,2.42,4.66-2.72,4.61-4.9,9.56-8.49,13.61-1.17,1.32-1.96,3.18-4.06,3.45,.52-1.9,.98-3.81,1.57-5.69,.43-1.39,.17-2.54-1.17-3.07-1.53-.61-2.29,.53-2.73,1.75-.82,2.3-1.55,4.63-2.31,6.95-1.82-6.61-.46-13.36-.81-20.03Z"/>
      <path class="cls-95" d="M155.62,70.93c2.81-.31,4.74-2.06,6.81-3.8,3.07-2.58,6.15-5.35,10.47-5.74,2.93,6.4,5.48,12.92,5.85,20.07-1.24-1.53-2.38-3.15-3.76-4.54-.7-.7-1.74-1.82-2.88-.9-1.33,1.09,.05,1.91,.62,2.77,1.28,1.94,3.04,3.58,3.82,5.85-7.93-1.51-14.09-5.75-18.57-12.35-.72-1.05-1.49-1.05-2.35-1.35Z"/>
      <path class="cls-87" d="M31.02,29.29c2.29,7,5.67,13.4,10.19,19.24,3.76,4.87,5.19,10.58,5.36,16.68,.12,4.7,.43,9.4,.65,14.11-3.97-4.98-6.33-10.85-8.86-16.58-4.69-10.62-7.06-21.83-7.33-33.45Z"/>
      <path class="cls-87" d="M80.93,81.49c.54-6.41,.87-12.84,1.69-19.21,.61-4.75,3.02-8.85,6.03-12.56,2.96-3.65,5.61-7.51,7.96-11.57-.49,9.37-3.26,18.17-6.91,26.7-2.47,5.77-5.08,11.5-8.77,16.65Z"/>
      <path class="cls-50" d="M136.99,112.77c6.17-5.68,10.83-12.22,12.37-20.7,.7-3.85,.65-7.16-3.51-9,.54-.57,1.08-1.14,1.62-1.71,1.23-.87,2.42-.63,3.58,.16,1.19,1.27,2.21,2.77,3.6,3.75,2.62,1.87,3.53,4.37,3.49,7.4,.73,3.43-1.45,5.84-2.97,8.48-.59,.88-1.28,1.69-2.01,2.46-1.38,1.33-2.71,2.71-4.05,4.08-2.63,2.37-5.68,4-9.03,5.11-1,.33-2.06,1.1-3.07-.02Z"/>
      <path class="cls-99" d="M55.42,106.07c.74,.25,1.7-.11,2.23,.76-.21,.31-.39,.7-.74,.8-9.12,2.7-17.34,8.08-27.03,9.13-2.35,.25-4.73,.4-7.05-.03-3.58-.66-7.13-.71-10.71-.03-1.34,.26-2.73,.33-3.88-.69,8.88-4.68,18.58-6.66,28.34-8.2,6.22-.98,12.56-1.19,18.84-1.74Z"/>
      <path class="cls-105" d="M61.16,109.13c-6.75,5.1-14.35,8.32-22.59,10.01-12.2,2.51-24.49,3.83-36.96,2.54,.85-2.51,3.21-2.99,5.27-3.6,5.03-1.5,10.18-2.35,15.44-1.44,6.73,1.16,13.05-.37,19.24-2.8,4.39-1.72,8.65-3.8,13.21-5.07,2.15-.6,4.35-1.23,6.4,.35Z"/>
      <path class="cls-4" d="M210.27,145.91c-.45-.14-1.71,.44-1.29-.3,2.17-3.81,3.3-8.49,7.95-10.42,1.25-1.98,3.5-2.09,5.41-2.72,3.12-1.04,6.09-2.49,9.28-3.36,1.03-.02,2.47-1.08,2.68,1.04-1.33,3.46-3.4,6.51-5.36,9.63-2.01,2.79-5.13,3.51-8.17,4.4-1.63,.45-3.21,1.04-4.81,1.57-1.89,.24-3.75,1.49-5.69,.16Z"/>
      <path class="cls-50" d="M115.96,72.65c-.62-.8,0-1.45,.39-1.99,7.02-9.85,2.36-24.39-3.05-31.9-1.69-2.35-4,0-5.65-1.33,.73-3.26,5.77-4.85,8.78-2.18,9.3,8.26,12.3,30.32-.46,37.4Z"/>
      <path class="cls-71" d="M142.95,45.6c5.79-4.07,10.34-9.15,13.24-15.7,1.73-3.9,2.11-7.92,1.66-12.02-.35-3.14-2.15-5.45-5.27-6.54,1.66-3.09,3.13-3.4,5.37-.82,4.3,4.95,4.56,10.87,3.21,16.83-1.61,7.15-5.54,12.93-11.82,16.86-1.87,1.17-4.05,1.9-6.39,1.39Z"/>
      <path class="cls-4" d="M202.1,157.72c1.53-2.89,3.13-5.74,4.55-8.69,.79-1.64,2.15-1.75,3.62-1.87,1.91-1.41,4.34-1.09,6.42-1.92,1.45-.33,2.82-.92,4.25-1.33,1.99-.13,3.65-2.05,5.84-1.07-2.31,2.95-4.63,5.89-6.94,8.84-2.36,2.2-5.05,3.84-8.17,4.75-3.19,.45-6.14,2.68-9.57,1.29Z"/>
      <path class="cls-61" d="M61.16,109.13c-4.95-.59-9.29,1.47-13.56,3.42-8.75,3.98-17.63,6.33-27.42,5.04-6.51-.85-12.85,.62-18.57,4.09-.29-.55-2.92-.03-.77-1.71,2.24-1.75,4.81-2.88,7.4-3.97,6.42-1.23,12.85-.31,19.29-.23,7.41,.1,13.94-3.21,20.54-6.04,3.1-1.33,6.28-2.3,9.58-2.91,1.35,.24,2.5,.05,3.09-1.39,.44-.24,.89-.48,1.33-.72,.29,1.5-.15,2.89-.57,4.29,0,0-.33,.11-.33,.11Z"/>
      <path class="cls-4" d="M216.24,133.09c2.97-2.81,3.93-7.44,8.19-9.09,1.25-2.13,3.62-2.19,5.57-3.05,1.67-.6,3.29-1.3,4.93-1.98,1.49-.42,2.79-1.97,4.56-.8-.62,3.25-2.11,6.13-3.71,8.97-1.35,1.39-3.2,1.83-4.88,2.59-3.78,1.5-7.63,2.81-11.52,4-1.04,.32-2.5,1.52-3.13-.65Z"/>
      <path class="cls-47" d="M193.84,177.93c1.98-6.59,3.7-13.3,8.16-18.81,2.97-1.89,6.62-1.71,9.74-3.13,1.27-.09,2.38-1.39,3.78-.47-.68,2.87-3.25,4.24-5.07,6.13-5.38,5.58-10.54,11.4-16.61,16.28Z"/>
      <path class="cls-88" d="M229.78,109.9c-2.24,2.61-4.48,5.24-6.74,7.84-.67,.78-1.37,1.25-1.63-.31-1.27-1.31-1.54-2.98-1.66-4.7,.36-2.69-1.41-5.43,.16-8.1,2.69-3.09,5.48-6.08,9.04-8.23,2.01,4.39,2.46,8.88,.84,13.5Z"/>
      <path class="cls-88" d="M220.71,118.19c.48,2.81-1.4,4.57-2.86,6.54-1.1,1.48-2.07,3.05-3.1,4.58-1.68,.2-2.12-.98-2.37-2.23-.79-3.99-1.32-8.01-.79-12.09,2-3.17,4.16-6.23,6.89-8.83,2.27,2.03,1.1,4.86,1.7,7.28,.4,1.56,.44,3.16,.53,4.75Z"/>
      <path class="cls-88" d="M213.23,130.89c-2.22,3.38-4.43,6.75-6.7,10.2-1.04-1.02-.6-1.95-.81-2.75-1.89-3.9-2.15-7.9-.76-12.01,1.46-3.4,3.4-6.53,5.4-9.63,1.28-.06,1.32,.93,1.36,1.75,.17,4.19,1.24,8.26,1.51,12.43Z"/>
      <path class="cls-88" d="M240.17,88.92c0,1.23-.1,2.47,.03,3.69,.47,4.51-.89,8.17-4.52,11.05-1.42,1.13-2.49,2.7-3.72,4.07-.36-.04-.86,.05-.96-.37-.95-4.07-2.04-8.13-.53-12.31,3-2.41,6.25-4.44,9.7-6.13Z"/>
      <path class="cls-77" d="M214.83,23.4c-.19-1.87-1.92-2.95-2.42-4.66,3.89-2.32,7-5.46,9.43-9.25,1.08-1.68,2.47-2.28,4.37-2.01,3.15,.43,3.76,1.79,1.88,4.4-3.51,4.88-7.8,8.88-13.26,11.52Z"/>
      <path class="cls-88" d="M182.64,160c-4.35-3.44-6.13-9.34-4.51-14.94,.3-2.78,1.28-5.43,1.56-8.21,.07-.74,.27-1.47,1.28-1.42,1.57,4.35,3.17,8.68,3.99,13.25-.02,3.93-.15,7.83-2.32,11.32Z"/>
      <path class="cls-86" d="M205.02,139.1c.99,6.29-3.43,10.32-6.35,15.09,.17-4.41-1.25-8.68-.53-13.04,1.49-4.3,3.37-8.44,5.47-12.48,2.2,2.06,.49,4.87,1.37,7.21,.37,.99-.23,2.14,.03,3.22Z"/>
      <path class="cls-9" d="M154.42,100.89c1.7-2.53,3.12-5.19,3.7-8.22,1.69,2.5,3.38,4.99,5.07,7.49,1.6,4.33,.11,8.45-.84,12.61-.33,.92-.35,2.13-1.84,1.98-3.44-4-4.37-9.1-6.09-13.86Z"/>
      <path class="cls-10" d="M83.32,130.12c-.31-1.75-.62-3.5-.92-5.25,3.2-4.23,6.96-7.73,12.13-9.44,.79,.28,1.16,.9,1.4,1.64,.29,1.08,.64,2.14,.77,3.26,.06,.56,.05,1.13-.02,1.69-2.46,4.65-7.19,6.51-11.32,9.09-.85,.53-1.66-.04-2.04-1Z"/>
      <path class="cls-10" d="M154.99,143.54l-4.58,2.25c-.72,.18-1.28-.19-1.52-.76-1.84-4.43-4.32-8.62-4.93-13.5,1.6-2.37,3.74-3.6,6.67-3.2,2.67,4.72,5.42,9.41,4.35,15.2Z"/>
      <path class="cls-10" d="M86.19,141.28c-.55-2.21-1.11-4.43-1.66-6.64,2.78-3.39,6.79-5.15,10.23-7.66,.93-.68,2.08-.72,3,.28,.83,2.26,1.59,4.52,.9,6.98-2.99,3.3-7.09,4.95-10.75,7.27-.54,.34-1.2,.27-1.71-.23Z"/>
      <path class="cls-10" d="M159.43,141.41l-.34-.04-.34,.05c-1.54,.14-1.74-1.15-2.06-2.1-1.32-3.91-2.92-7.74-3.77-11.8,0-.4,.09-.78,.26-1.14,.38-.47,.88-.76,1.42-.99,1.94-.47,3.54-2.53,5.86-1.28,1.91,4.13,2.89,8.54,3.82,12.96-.16,2.71-2.4,3.35-4.31,4.32-.18,0-.36,.02-.54,.02Z"/>
      <path class="cls-40" d="M224.47,121.87c2.95-3.05,4.54-7.45,8.97-9.03,3.23-2.36,6.34-4.95,10.61-5.15-1.01,2.5-2.03,5.01-3.04,7.51-1.48,2.52-4.33,2.91-6.58,4.23-1.68,.62-3.32,1.35-4.97,2.06-1.19,.62-2.5,.86-3.74,1.34-.71,.28-1.48,.2-1.26-.96Z"/>
      <path class="cls-10" d="M146.73,147.31c-1.51,.75-3.03,1.5-4.54,2.25-.95,.62-1.73,.17-2.16-.6-2.16-3.79-4.41-7.54-4.91-12.01,1.44-2.01,3.28-3.35,5.82-3.55,1.05,.25,1.79,.96,2.08,1.92,1.21,4.01,4.3,7.44,3.71,12Z"/>
      <path class="cls-10" d="M89.25,151.77c-.59-1.96-1.18-3.92-1.77-5.88-.35-.92-.11-1.75,.61-2.33,2.8-2.24,5.8-4.16,9.11-5.56,.71-.3,1.46-.17,2.02,.46,.82,2.51,1.61,5.02,.94,7.72-3.2,2.7-6.2,5.83-10.91,5.59Z"/>
      <path class="cls-10" d="M137.79,151.76c-1.99,1.03-3.99,2.07-5.98,3.1-3.14-2.58-4.1-6.39-5.61-9.89,1.28-2.86,2.77-5.48,6.49-5.42,2.76,2.75,3.84,6.43,5.45,9.81,.38,.81,.26,1.67-.35,2.4Z"/>
      <path class="cls-10" d="M81.74,121.06c-.34-1.49-.68-2.97-1.01-4.46-.69-.87-1.36-1.75-.83-2.96,3.46-2.93,6.17-6.83,10.72-8.38,.81,.51,1.18,1.36,1.62,2.15,.67,1.48,1.66,2.9,1.1,4.67-3.28,3.74-6.76,7.24-11.6,8.97Z"/>
      <path class="cls-40" d="M172.1,151.12c2.27,2.93,3.57,6.36,5.25,9.77-2.31,.68-4.04-1.42-6.1-.79-3.85-4.94-7-10.33-10.18-15.7,1.39-1.19,2.14,.22,3.11,.75,1.05,.81,2.16,1.53,3.29,2.24,1.62,1.15,3.47,2.01,4.63,3.74Z"/>
      <path class="cls-23" d="M92.96,161.5c-.79-1.99-1.58-3.99-2.37-5.98,1.6-3.04,4.76-3.91,7.53-5.28,1.1-.55,2.13-.1,2.77,1.03,.55,2.09,1.31,4.15,.63,6.36-2.57,1.9-4.56,5.1-8.55,3.87Z"/>
      <path class="cls-102" d="M128.75,156.92c-1.76,1.27-3.51,2.54-5.27,3.8-3.88-1.37-3.67-4.95-4.36-8.05,.9-2.16,1.95-4.21,4.38-5.06,3.64,2.03,4.76,5.49,5.26,9.3Z"/>
      <path class="cls-68" d="M252.87,83.79c-3.12,5.05-7.41,9.14-11.46,13.74-1.33-3.24,.36-6.28,.22-9.33,3.54-2,7.2-3.69,11.24-4.41Z"/>
      <path class="cls-54" d="M131.79,97.26c-1.78,5.14-3.35,10.29-1.9,16.08,5.81-2.96,9.63-7.76,13.43-12.64-1.07,4.05-3.6,7.12-6.71,9.72-1.24,1.03-2.66,1.82-3.36,3.37-.49,1.79-1.74,1.39-2.98,1.04-.73-.16-1.45-.31-2.18-.47-.31-.87-.63-1.74-.94-2.61,.03-5.41,.42-10.72,3.86-15.27,.68-.16,1,.04,.77,.78Z"/>
      <path class="cls-1" d="M234.27,111.37c.95-4.5,4.77-6.83,7.69-9.75,1.78-1.78,4.21-2.92,6.35-4.35-1.01,2.69-2.02,5.39-3.03,8.08-3.25,2.77-6.67,5.23-11.01,6.02Z"/>
      <path class="cls-51" d="M97.22,127.13c-3.89,.99-6.53,4.05-9.85,5.99-.93,.55-1.63,1.5-2.84,1.53-.88-1.38-1.05-2.95-1.21-4.52,.32,.18,.78,.59,.95,.49,4.28-2.41,8.83-4.49,11.72-8.76,2.21,1.34,2.55,3.12,1.23,5.28Z"/>
      <path class="cls-49" d="M146.73,147.31c-1.87-4.6-2.84-9.61-6.06-13.61,.4-2.18,1.68-2.86,3.75-2.19,1.83,4.83,3.39,9.77,5.99,14.28-1.07,.88-2.28,1.44-3.68,1.52Z"/>
      <path class="cls-42" d="M153.36,126.97c2.22,4.66,2.8,9.94,5.4,14.46-.99,1.18-2.25,1.88-3.77,2.12-.6-5.32-3.01-10.09-4.57-15.12,.42-1.6,1.45-2,2.94-1.45Z"/>
      <path class="cls-51" d="M81.74,121.06c3.79-2.99,7.59-5.99,11.38-8.98,1.48,.33,1.71,1.49,1.8,2.73-.06,.34-.21,.65-.45,.9-4.5,2.44-7.96,6.23-12.08,9.16-1.08-1.12-.69-2.5-.65-3.81Z"/>
      <path class="cls-51" d="M137.79,151.76c-.76-4.51-3.65-8.1-5.33-12.21,.31-1.71,.91-3.07,3.07-2.57,1.61,3.68,3.21,7.36,4.82,11.04,.36,.81,.84,1.5,1.84,1.54-1.29,1.09-2.74,1.86-4.4,2.19Z"/>
      <path class="cls-51" d="M98.73,138.35c-4.12,1.97-8.43,3.65-11.26,7.54-.83-1.42-1.46-2.9-1.28-4.6,3.99-2.25,7.97-4.5,11.96-6.75,2.1,.98,1.72,2.34,.58,3.81Z"/>
      <path class="cls-85" d="M98.11,170.46l-3-4.55c.7-3.39,3.44-4.17,6.24-4.88,.36,.09,.66,.28,.92,.55,.66,1.13,.71,2.4,.77,3.66,.31,1.03,.95,2.01,.48,3.17-1.59,1.23-2.94,3.1-5.4,2.06Z"/>
      <path class="cls-14" d="M81.65,89.25c.33,.7,.66,1.41,.99,2.11,1.2,.78,1.83,1.86,1.84,3.3-1.35,2.38-2.6,4.91-6.11,3.99-.61-.89-.65-1.91-.71-2.93-.06-1.03,.04-2.06-.03-3.09-.03-1.69,.49-3.29,.85-4.92,.16-1.28,.33-2.55,.5-3.83,0-.02,.22-.05,.3,0,.1,.05,.17,.17,.25,.26,.48,1.8,.94,3.6,2.12,5.11Z"/>
      <path class="cls-101" d="M128.75,156.92c-1.77-2.98-2.42-6.61-5.24-8.98-.03-1.91,.99-2.82,2.81-2.97,2.56,2.89,3.55,6.65,5.48,9.89-.69,1.17-1.92,1.54-3.06,2.06Z"/>
      <path class="cls-46" d="M80.36,113.69c.12,.97,.24,1.94,.37,2.91-5.09-1.69-9.84-4.03-14.12-7.29,1.57-1.7,3.39-.76,5.14-.49,2.79,.44,5.48,1.19,7.95,2.61,.7,.61,1.1,1.31,.67,2.25Z"/>
      <path class="cls-19" d="M120.56,163.01c-1.53,1.72-3.07,3.44-4.6,5.16-2.75-.28-2.71-2.39-2.87-4.37-.01-2.92,1.31-5.17,3.54-6.96,3,.98,3.34,3.65,3.93,6.17Z"/>
      <path class="cls-51" d="M100.21,151.02c-4.1-.41-6.34,3.15-9.61,4.5-.88-1.1-1.32-2.35-1.35-3.75,3.88-.89,6.63-4,10.32-5.28,1.97,1.26,2.1,2.78,.64,4.53Z"/>
      <path class="cls-64" d="M136.14,44.49c-.81-10.87,.04-14.53,5.16-20.64-3.38,6.69-4.08,13.78-3.54,21.06,.43,.45,.42,.91,.06,1.39,0,0-.19,.14-.19,.13-.49-.65-.99-1.3-1.48-1.95Z"/>
      <path class="cls-97" d="M172.87,162.23c2.23-1.15,4.71,.06,5.59,1.3,2.29,3.23,4.96,6.44,5.61,10.6-4.4-3.34-7.78-7.63-11.19-11.9Z"/>
      <path class="cls-20" d="M101.8,161.48c-2.73,.72-5.01,2.13-6.69,4.43-1.16-1.25-1.82-2.75-2.15-4.41,3.34,.1,5.13-3.07,8.06-3.83,1.55,1,1.55,2.33,.78,3.81Z"/>
      <path class="cls-45" d="M137.82,46.3c-.02-.46-.04-.93-.06-1.39,1.56,1.02,2.18-.42,3.05-1.17,4.66-4.05,7.91-9.14,10.8-14.51-1.24,6.77-5.84,11.48-10.13,16.38-.72,.32-1.43,.64-2.15,.96-.5-.09-1.01-.17-1.51-.26Z"/>
      <path class="cls-90" d="M110.85,76.18c-1.19,.31-1.82-.43-2.38-1.28,0,0,.18-.12,.18-.12,.46-1.04,1.29-.96,2.18-.72,3.65-1.72,2.73-5.48,3.5-8.36,.81-3.05,.68-6.34,.96-9.53-.32-.8,.07-.92,.74-.77,.36,6.39-.06,12.68-2.22,18.77-.1,.27-.2,.54-.3,.81-1.21-.32-2.1,.08-2.67,1.19Z"/>
      <path class="cls-101" d="M120.56,163.01l-3.7-6.01c-.28-2.3,.47-3.92,2.91-4.42,.63,2.99,1.38,5.92,3.7,8.15-.76,1.03-1.78,1.73-2.91,2.29Z"/>
      <path class="cls-76" d="M125.2,118.95c-.29,.29-.58,.58-.86,.87-4.43,.1-8.64-.88-12.73-2.5,.09-.73,.19-1.46,.28-2.2,2.1-1.49,3.93-.49,5.74,.64,2.69,.66,5.33,1.43,7.56,3.18Z"/>
      <path class="cls-30" d="M79.45,112.06c-4.2-1.3-8.29-3.09-12.84-2.75-.22-.06-.43-.11-.65-.15,0-.73,0-1.46,0-2.2,3.7-1.47,10.53,.5,13.73,3.95,.1,.42,.02,.81-.24,1.16Z"/>
      <path class="cls-62" d="M98.11,170.46c2.09,0,3.24-2.12,5.25-2.3,.24-.35,.46-.33,.67,.03,1.2,1.57,1.63,2.85-.87,3.67-.94,.31-2.03,.94-2.09,2.28-1.44-.87-2.38-2.14-2.96-3.69Z"/>
      <path class="cls-98" d="M113.6,163.53c.37,1.76,.65,3.57,2.37,4.64-.75,1.42-1.49,2.83-2.78,3.86-.05-.23-.07-.48-.16-.7-.63-1.46-1.11-5.49-.78-6.65,.37-.47,.53-1.21,1.35-1.15Z"/>
      <path class="cls-82" d="M213.23,130.89c-1.49-3.92-1.41-8.13-2.18-12.18-.14-.71,.01-1.49-.68-2,.41-.57,.82-1.14,1.23-1.72,1.56,3.6,.59,7.56,1.63,11.25,.33,1.17,.07,2.5,1.53,3.07-.51,.53-1.02,1.05-1.52,1.58Z"/>
      <path class="cls-33" d="M230.47,95.05c.22,4.26-.81,8.66,1.49,12.68-.73,.72-1.45,1.45-2.18,2.17,.27-4.54-.64-9-.84-13.5,.07-.94,.58-1.38,1.52-1.35Z"/>
      <path class="cls-29" d="M161.73,112.94c1.24-4.17,1.66-8.44,1.47-12.78,1.29,.95,1.46,2.53,2.15,3.82-2.37,2.83-.51,6.92-2.88,9.75-.43-.08-.49-.52-.73-.79Z"/>
      <path class="cls-60" d="M180.97,135.43c-1.34,3.09-1.09,6.66-2.84,9.63-.03-.58-.11-1.14-.69-1.46,1.64-3.86,1.22-8.11,2.23-12.08,1.13,1.07,.63,2.69,1.3,3.91Z"/>
      <path class="cls-22" d="M182.64,160c.77-3.77,1.54-7.55,2.32-11.32,.86,1.43,.99,3.06,1.24,4.65-2.4,1.92-.96,5.29-2.81,7.42-.25-.25-.5-.5-.74-.76Z"/>
      <path class="cls-63" d="M234.27,111.37c3.67-2.01,7.34-4.01,11.01-6.02-.21,.88-.47,1.74-1.23,2.34-3.62,1.56-6.8,4.01-10.61,5.15,.03-.63,.22-1.17,.83-1.48Z"/>
      <path class="cls-37" d="M175.8,121.19c-.64,.89-1.27,1.78-2.12,2.96-1.23-2.12-2.68-3.9,.69-5.11,.91-.19,1.81-.37,3.12-.64-.71,1.17-1.2,1.98-1.69,2.79Z"/>
      <path class="cls-56" d="M106.41,115.17c-.06-1.33-.11-2.65,.61-3.86,1.19,.29,2.39,.57,3.58,.86-.25,1.02-.49,2.03-.74,3.05-1.17,.98-2.31,.84-3.45-.05Z"/>
      <path class="cls-81" d="M205.02,139.1c-1.4-1.97-.43-4.21-.74-6.3-.2-1.38,.51-2.91-.67-4.13,.23-.91,.6-1.73,1.35-2.34,.25,4,.51,8,.76,12.01-.24,.25-.47,.51-.71,.76Z"/>
      <path class="cls-78" d="M226.78,142.84c-2,.52-4.01,1.03-6.01,1.55-.2-.18-.26-.36-.21-.55,.06-.19,.12-.28,.18-.28,2.73-1.26,5.46-2.52,8.2-3.78,0,1.52-1.03,2.33-2.16,3.06Z"/>
      <path class="cls-31" d="M215.52,155.52c-1.24,.29-2.48,.58-3.71,.87-.2-.19-.27-.38-.21-.58,.05-.2,.11-.3,.17-.3,2.69-1.28,5.38-2.56,8.07-3.84-.99,1.78-2.11,3.43-4.31,3.84Z"/>
      <path class="cls-27" d="M151.05,81.51c-1.19-.05-2.38-.11-3.58-.16,.2-1.37-.65-3.78,.69-3.88,2.09-.16,1.55,2.88,2.89,4.04Z"/>
      <path class="cls-78" d="M234.26,118.97c2.25-1.26,4.51-2.51,6.76-3.77-.04,1.23-.23,2.38-1.53,2.96-1.51,.49-3.02,.99-4.53,1.48-.78,.34-.87-.03-.7-.67Z"/>
      <path class="cls-73" d="M219.96,113.72c-1.79-2.27,.41-5.31-1.47-7.56,.48-.51,.95-1.02,1.43-1.54-.07,2.8,1.21,5.47,.79,8.3-.25,.26-.31,.7-.74,.79Z"/>
      <path class="cls-44" d="M117.64,115.76c-1.91-.21-3.83-.43-5.74-.64,.19-.72,.38-1.43,.57-2.15,1.75,.88,4.25,.38,5.18,2.79Z"/>
      <path class="cls-70" d="M163.9,145.8c-1-.36-1.58-1.55-2.83-1.4-.39-1.08-1.72-1.64-1.64-2.98,0,0,.01-.29,.01-.29,2.69,.09,4.27,1.73,5.45,3.92-.07,.59-.22,1.09-.99,.76Z"/>
      <path class="cls-39" d="M231.08,129.26c1.43-1,2.94-1.84,4.69-2.12-.18,1.16-.61,2.19-1.47,3.01-.73-1.28-1.58-.18-2.37-.13-.28-.25-.75-.31-.85-.77Z"/>
      <path class="cls-83" d="M187.15,150.19c1.18,2.2,.33,4.56,.57,6.88-.95-.85-1.28-1.92-1.28-3.12,1.14-1.08,.35-2.53,.72-3.76Z"/>
      <path class="cls-25" d="M249.84,93.47c-1.06,.86-1.21,2.77-3.61,2.74,1.67-1.71,2.34-3.76,4.27-4.81,.24,.83-.33,1.41-.66,2.06Z"/>
      <path class="cls-13" d="M69.6,83.73c-.27,1.27-.55,2.54-.82,3.81-.21,.2-.41,.19-.61-.02,.22-1.75-.45-3.64,.78-5.25,.22,.49,.43,.97,.65,1.46Z"/>
      <path class="cls-58" d="M187.74,97.94c-.03,.85,.6,2.07-.5,2.38-.71,.2-.86-.91-.83-1.64,.44-.25,.89-.49,1.33-.74Z"/>
      <path class="cls-5" d="M221.38,58.93c.14,.74,.05,1.4-.67,1.8-.12,.06-.49-.06-.53-.17-.3-.82-.26-1.6,.51-2.18l.69,.56Z"/>
      <path class="cls-38" d="M159.54,57.43c.61,.72,.63,1.56,.58,2.46-1.06-.03-1.19-.8-1.38-1.53,.27-.31,.53-.62,.8-.93Z"/>
      <path class="cls-86" d="M196.83,152.48c1.05,2,1.14,4-.02,5.99,0-2,.01-3.99,.02-5.99Z"/>
      <path class="cls-105" d="M63.47,89.43c-4.64-11.75-5.27-30.36-1.21-39.61,3.51,13.35,3.11,26.22,1.21,39.61Z"/>
      <path class="cls-104" d="M64.47,41.54c-.09,1.36-.85,2.04-2.19,1.94-1.69-.13-2.85-1.04-2.89-2.78-.03-1.12,.37-2.34,1.93-2.11,1.69,.25,3.18,.83,3.15,2.96Z"/>
      <path class="cls-12" d="M68.16,87.52c.2,0,.41,0,.61,.02,.2,.86-.33,1.49-.66,2.19-.89-.76-.83-1.49,.05-2.2Z"/>
      <path class="cls-10" d="M163.83,122.53q5.02-1.23,6.74,3.88c.23,.7,.52,1.38,.78,2.06-.43,.78-.78,1.61-1.51,2.19-1,1.27-2,2.55-3,3.82-.74,.2-1.22-.25-1.42-.81-1.27-3.5-3-6.89-2.6-10.79,.24-.39,.58-.51,1.01-.36Z"/>
      <path class="cls-40" d="M164.65,145.06c-1.74-1.31-3.47-2.63-5.21-3.94,1.43-1.26,3.39-1.83,4.48-3.52,.43-.99,1.05-1.51,2.12-.79,1.55,3.76,3.1,7.53,4.65,11.29-1.08,.92-2.01,.41-2.92-.3-1.21-.72-2.44-1.41-3.12-2.74Z"/>
      <path class="cls-49" d="M166.05,136.81c-.71,.26-1.41,.53-2.12,.79-1.79-4.34-2.75-8.91-3.85-13.45-.17-.36-.15-.69,.09-1.02,.97-.59,1.93-1.19,3.08-.42,.84,4.03,1.61,8.08,3.59,11.76-.26,.78-.53,1.55-.79,2.33Z"/>
      <path class="cls-91" d="M231.08,129.26c.28,.26,.56,.51,.85,.77-5,1.72-9.99,3.45-14.99,5.17-.18-.72-2.19-.84-.7-2.11,.78,1.22,1.7,.49,2.59,.19,4.08-1.34,8.16-2.68,12.25-4.02Z"/>
      <path class="cls-43" d="M211.77,155.51c.01,.29,.03,.58,.04,.88-3.07,1.61-6.48,2.03-9.8,2.73-.1-.48-.78-1,.1-1.41,3.22-.73,6.45-1.47,9.67-2.2Z"/>
      <path class="cls-28" d="M167.7,147.25c.93,.53,1.88,.97,2.99,.85,.89,.81,1.77,1.63,1.41,3.02-2-.59-3.45-2.07-5.16-3.14-.16-.67-.04-1.06,.76-.73Z"/>
      <path class="cls-78" d="M216.96,145.65c-2.23,.5-4.46,1-6.69,1.5,0-.41,0-.83,0-1.24,1.96-.31,3.91-.63,5.87-.94,.8-.4,.9,.02,.82,.68Z"/>
      <path class="cls-16" d="M224.47,121.87c1.94,1.15,3.39-.75,5.13-.83,.82-.32,.96,.09,.83,.78-2,.72-4,1.45-6.01,2.17-.23-.71-1.1-1.44,.05-2.12Z"/>
      <path class="cls-89" d="M219.96,113.72c.25-.26,.49-.53,.74-.79,.24,1.5,.48,3,.72,4.49-.23,.25-.47,.51-.7,.76-1.24-1.32-.52-2.97-.76-4.46Z"/>
      <path class="cls-65" d="M169.84,130.65c.02-1.06,.73-1.65,1.51-2.18-.01,1.26-.47,2.31-1.42,3.15-.03-.32-.06-.64-.09-.96Z"/>
      <path class="cls-3" d="M113.6,163.53c-.45,.38-.9,.77-1.35,1.15,1.36-10.64,4.82-20.68,8.68-30.61,2.59-6.66,5.49-13.19,9.36-19.24,.97-.4,2.29,.19,2.98-1.04,1.39,.2,2.47-.76,3.73-1.03,4.4-.91,8.09-3.28,11.78-5.66,.57,.26,.81,.76,.97,1.32,.21,1.28,.43,2.57,.82,3.82,.84,3.85,1.95,7.63,3,11.42,.14,.93,.44,1.86-.06,2.77-.06,.17-.11,.35-.15,.53-1.12,.2-2.17,.54-2.94,1.45-2.17,.7-4.11,1.85-6,3.1-1.5,.31-2.81,.93-3.75,2.19-1.71,1.09-3.43,2.18-5.15,3.28-1.29,.54-2.37,1.33-3.07,2.57-2.43,1.37-4.36,3.31-6.13,5.42-1.28,.67-2.15,1.72-2.81,2.97-1.24,1.55-2.49,3.09-3.73,4.64-1.36,1.22-2.32,2.71-2.91,4.43-1.32,2.06-2.61,4.14-3.27,6.53Z"/>
      <path class="cls-106" d="M124.06,122.09c-7.79,16.74-13.15,34.2-15.94,52.5-3.19-17.74-1.37-35.25,2.49-52.66,.88-.77,1.94-1.19,3.06-1.05,3.46,.44,7.04-.16,10.38,1.22Z"/>
      <path class="cls-53" d="M91.71,107.87c-.43-.77-.85-1.54-1.28-2.32-1.13-.75-1.73-1.94-2.48-3.01-.34-.76-.8-1.51-.26-2.37,7.2-3.79,13.73-8.45,19.27-14.45,.74-.8,1.4-1.77,2.6-2.03-1.58,8.98-3.16,17.95-4.73,26.93-4.69,.59-9.02-.53-13.11-2.76Z"/>
      <path class="cls-52" d="M101.8,161.48c.17-1.36,.03-2.65-.78-3.81-.27-2.22-.54-4.44-.82-6.66,.29-1.58,.13-3.1-.64-4.53-.28-2.71-.56-5.43-.83-8.14,.09-1.31,.49-2.67-.58-3.81-.31-2.47-.62-4.94-.93-7.41,.21-1.9-.44-3.61-1.23-5.28-.02-.45-.03-.9-.05-1.35,2.74-1.27,5.3-.79,7.75,.8-.89,12.84-1.57,25.69-1.02,38.57,.27,.74,.73,1.56-.69,1.55l-.16,.07Z"/>
      <path class="cls-103" d="M91.71,107.87c4.37,.92,8.74,1.84,13.11,2.76,.11,1.63-.13,3.21-.7,4.74-3.16,2.24-6.33,2.15-9.49,0-.5-1.1-1-2.19-1.51-3.29-.47-1.4-.94-2.81-1.41-4.21Z"/>
      <path class="cls-92" d="M124.06,122.09c-4.49,.88-8.96-.32-13.44-.17,.03-1.6,.24-3.16,.99-4.61,4.42-.06,8.61,1.04,12.73,2.5,.54,.83,.31,1.57-.27,2.27Z"/>
      <path class="cls-2" d="M108.42,121.91c-.98,6.7-1.95,13.41-2.93,20.11-1.98-1.32-.73-3.14-.74-4.76-.12-5.2,.29-10.36,.92-15.51,.96-.7,1.88-.65,2.75,.17Z"/>
      <path class="cls-11" d="M103.68,121.29c-2.58-.27-5.16-.53-7.75-.8-.23-.97-.47-1.95-.7-2.92,2.93-.94,5.84-1.2,8.74,.11-.1,1.2-.2,2.41-.29,3.61Z"/>
      <path class="cls-94" d="M103.98,117.69c-2.92,.25-5.83,.37-8.74-.11-.25-.62-.51-1.24-.76-1.86,.05-.12,.1-.23,.15-.34,3.16,.69,6.33,.35,9.49,0-.05,.77-.09,1.54-.14,2.31Z"/>
      <path class="cls-35" d="M108.42,121.91c-.92-.05-1.83-.11-2.75-.16-.09-1.48-.22-2.97,.52-4.35,1.04-.71,2.08-.97,3.12,0-.3,1.5-.6,3.01-.89,4.51Z"/>
      <path class="cls-55" d="M104.75,137.26c.41,1.56-.49,3.33,.74,4.76-.26,2.8-.53,5.6-.79,8.4-.44-4.41-1.08-8.8,.05-13.16Z"/>
      <path class="cls-15" d="M109.32,117.4c-1.04,0-2.08,0-3.12,0,.07-.74,.14-1.48,.21-2.22,1.15,.02,2.3,.03,3.45,.05-.18,.73-.36,1.45-.54,2.18Z"/>
      <path class="cls-34" d="M101.97,161.41c.23-.52,.46-1.03,.69-1.55,1.06,1.68,.61,3.55,.65,5.35-.2,.23-.39,.22-.58-.02-.25-1.26-.51-2.52-.76-3.78Z"/>
      <path class="cls-69" d="M102.73,165.19c.19,0,.38,.01,.58,.02,.92,.83,.73,1.93,.72,2.98-.22-.02-.44-.03-.67-.03-.21-.99-.42-1.98-.63-2.97Z"/>
      <path class="cls-100" d="M145.1,27.63c-.1,3.46-.71,6.72-3.09,9.39-.4-3.58,1.19-6.55,3.09-9.39Z"/>
      <path class="cls-66" d="M110.84,74.05c-.73,.24-1.45,.48-2.18,.72-2.26-4.34-5.12-8.4-5.76-13.48-.3-2.35-.2-4.59,.4-7.03,.56,7.42,3.11,13.97,7.54,19.79Z"/>
      <path class="cls-17" d="M108.41,55.79c2.52,2.27,2.25,5.5,3.02,8.34,.08,.31-.36,.97-.71,1.14-.77,.36-1.04-.35-1.29-.9-1.26-2.75-.52-5.71-1.02-8.58Z"/>
      <path class="cls-79" d="M116.04,55.4c-.25,.26-.49,.51-.74,.77-1.13-1.13-.7-2.46-.58-3.89,1.4,.73,1.29,1.95,1.31,3.12Z"/>
      <path class="cls-99" d="M54.38,102.68c-11.63-4.99-21.59-12.35-30.07-21.78,12.86,3.19,21.8,12,30.07,21.78Z"/>
      <path class="cls-74" d="M21.06,75.15c-.15,1.51-.79,2.63-2.46,2.6-1.76-.04-2.63-1.16-2.72-2.84-.07-1.44,.67-2.38,2.15-2.4,1.71-.02,2.65,1.02,3.03,2.64Z"/>
      <path class="cls-21" d="M78.55,92.68c0,1,.01,2,.02,3-.64,1.61-1.68,2.91-3.15,3.97,1.24-.18,2.44-1.31,3.64-.05,.61,1.19,.67,2.48,.74,3.78-.06,.4-.24,.73-.55,1-2.47,1.35-5.2,1.75-7.93,2.11-1.77,0-3.55,.29-5.31-.16-.09-.23-.1-.46-.03-.69,3.1-2.47,4.2-6.58,7.37-9,1.54-1.58,2.22-4.28,5.21-3.97Z"/>
      <path class="cls-26" d="M66,106.33c1.72-.28,3.45-.57,5.17-.85,2.64,1.12,5.37-.97,8.01,.25,1.12,.81,1.25,2.08,1.56,3.27-.15,.81,.6,2.13-1.14,2.06-4.12-2.8-8.83-3.62-13.64-4.11-.08-.22-.06-.42,.05-.63Z"/>
      <path class="cls-17" d="M138.44,97.25c-1.04,2.58-2.06,5.18-3.13,7.75-.24,.57-.77,1.12-1.44,.83-.68-.29-.64-1.02-.33-1.59,1.34-2.45,2.07-5.28,4.91-6.99Z"/>
      <path class="cls-107" d="M131.79,97.26c-.26-.26-.51-.52-.77-.78,.94-1.19,1.88-2.38,2.82-3.57-.09,1.82-.48,3.4-2.05,4.35Z"/>
      <path class="cls-93" d="M78.55,92.68c-1.74,1.32-3.47,2.65-5.21,3.97,1.02-3.37,3.65-5.82,5.14-8.93,.02,1.65,.05,3.31,.07,4.96Z"/>
      <path class="cls-8" d="M163.25,122.72c-.98,.21-1.95,.41-2.93,.62-2.42-1.89-3.28-5.02-5.59-7-.04-.54,.23-.96,.53-1.36,.42-2.61-1.32-4.67-1.8-7.05-.31-1.54-1.37-2.97-.72-4.66,.56-.79,1.12-1.58,1.69-2.37,3,4.04,4.09,8.9,5.76,13.52,.15,.86,1.95,.07,1.51,1.52-.07,2.45,1.59,4.35,2.14,6.6-.19,.08-.38,.14-.58,.19Z"/>
      <path class="cls-33" d="M161.69,115.92c-.31-.7-1.88-.14-1.51-1.52,1.01,.04,1.42-.57,1.55-1.47,.24,.26,.49,.52,.73,.79-.05,.81,.03,1.66-.78,2.2Z"/>
      <path class="cls-87" d="M84.07,94.5c-.47-1.05-.95-2.09-1.42-3.14,6.1-4.51,12.28-8.87,19.76-10.86,.58-.15,1.16-.29,1.95-.11-5.48,6.21-12.26,10.79-19,15.42-1.15,.27-.89-.85-1.3-1.31Z"/>
      <path class="cls-84" d="M80.11,109.42c-.25-1.01-.51-2.02-.76-3.03-.53-.83-.65-1.69-.14-2.58,.08-.17,.13-.35,.14-.53,1.19-3.12,3.52-4.78,6.74-5.31,.53,.74,1.06,1.48,1.6,2.21,.28,.72,.57,1.43,.85,2.15-1.91,3.43-4.11,6.52-8.43,7.09Z"/>
      <path class="cls-48" d="M86.09,97.97c-2.25,1.77-4.49,3.54-6.74,5.31-.96-1.12-.44-2.55-.77-3.8-.17-.36-.05-.58,.33-.68,2.11-.97,3.72-2.54,5.16-4.3,.43,.44,.87,.88,1.3,1.32,.24,.72,.48,1.44,.72,2.16Z"/>
      <path class="cls-36" d="M152.74,103.26c1.33,3.66,2.6,7.33,4.01,10.96,.55,1.42,0,1.43-1.07,1.11-1.46-.49-2.27-1.8-3.37-2.74-1.27-1.25-2.54-2.5-3.29-4.16-.08-.44-.16-.87-.25-1.31,1.32-1.28,2.64-2.57,3.97-3.85Z"/>
      <path class="cls-72" d="M216.96,145.65c-.27-.23-.54-.45-.82-.68,1.4-.89,2.95-1.32,4.6-1.42,0,.28,.02,.55,.03,.83-1.13,.85-2.42,1.21-3.81,1.26Z"/>
      <path class="cls-80" d="M230.43,121.82c-.28-.26-.55-.52-.83-.78,1.33-1.2,3.08-1.43,4.65-2.07,.23,.22,.46,.45,.7,.67-1.51,.73-3.02,1.45-4.52,2.18Z"/>
      <path class="cls-96" d="M155.1,115.89c2.55,1.92,4.21,4.45,5.22,7.45-.08,.27-.16,.54-.24,.82-1.71,.71-3.41,1.43-5.12,2.14-.76-.69-1.5-1.4-2.12-2.22-1.3-3.88-2.49-7.79-3.07-11.86,.87-.85,1.6-.31,2.34,.21,1.06,1.1,2.41,1.95,3,3.46Z"/>
      <path class="cls-67" d="M152.83,124.07c1.27,.21,2.14,.79,2.12,2.22-.48,.05-.97,.09-1.46,.14-.22-.79-.44-1.57-.67-2.36Z"/>
      <path class="cls-42" d="M80.11,109.42c3.33-1.75,5.59-4.76,8.43-7.09,1.03,.84,1.54,1.99,1.89,3.23-3.63,2.38-6.23,6.02-10.06,8.13-.3-.54-.61-1.08-.91-1.62,.05-.33,.1-.66,.15-.99,.17-.55,.34-1.1,.51-1.65Z"/>
      <path class="cls-6" d="M167.7,147.25c-.25,.24-.51,.49-.76,.73-1.01-.73-2.03-1.45-3.04-2.18,.25-.25,.5-.49,.75-.74,1.02,.73,2.03,1.46,3.05,2.19Z"/>
      <path class="cls-105" d="M78.9,98.8c-.11,.23-.22,.45-.32,.68-1.56,.59-3.12,1.17-5.24,1.97,1.37-2.76,3.36-4.21,5.23-5.77,.11,1.04,.22,2.08,.33,3.12Z"/>
      <path class="cls-78" d="M152.05,112.84c-.76-.21-1.52-.42-2.29-.63-.77-1.16-.95-2.44-.75-3.79,1.45,1.06,2.76,2.24,3.58,3.88,.2,.57,.05,.79-.55,.54Z"/>
      <path class="cls-18" d="M79.21,103.81c.05,.86,.09,1.72,.14,2.57-2.7-.54-5.59,.63-8.18-.9,2.79,0,5.33-1.23,8.03-1.67Z"/>
      <path class="cls-7" d="M152.05,112.84c.18-.18,.37-.36,.55-.54,1.43,.6,2.42,1.64,3.08,3.02-.19,.19-.39,.38-.58,.57-1.42-.61-2.48-1.59-3.05-3.05Z"/>
    </g>
  </g>
</svg>